%
M48
M72
T01C0.0118
T02C0.0335
T03C0.0400
T04C0.0866
%
T01
X16715Y4864
X16715Y4471
X16715Y3683
X15285Y2866
X15745Y2430
X14285Y2816
X13655Y3446
X13705Y3936
X12705Y3436
X12375Y2786
X11895Y2786
X12016Y2284
X14105Y1096
X14352Y534
X15533Y534
X15533Y927
X11596Y534
X10022Y534
X8841Y534
X8841Y1321
X8441Y3791
X7501Y3801
X6501Y3891
X5691Y4471
X5297Y3880
X4510Y4471
X4116Y3880
X3612Y4251
X3010Y4829
X3095Y5186
X3095Y5752
X2735Y6596
X1951Y6556
X1200Y6299
X2725Y7546
X2801Y8066
X3320Y8066
X3800Y8066
X4320Y8066
X4800Y8066
X5210Y8808
X6085Y8876
X6085Y9983
X6085Y10770
X8053Y10770
X10415Y10770
X11203Y10770
X11203Y9983
X10415Y9983
X9365Y8896
X8995Y8436
X8330Y8432
X8035Y7266
X9195Y6646
X9565Y7216
X10120Y6791
X10405Y6416
X9936Y5947
X10380Y5489
X9895Y4963
X9455Y4186
X10395Y4186
X11605Y4206
X12295Y4569
X12295Y5357
X11696Y5947
X11335Y5506
X11305Y6586
X12185Y6616
X12085Y7376
X12365Y8446
X12040Y8706
X11695Y8446
X12835Y9049
X13335Y8786
X14005Y9989
X13885Y10466
X15140Y10770
X15140Y9983
X17108Y10770
X2148Y9983
X1360Y9195
X1360Y8408
X825Y7606
X3715Y7006
X4615Y6786
X5015Y6946
X5625Y7456
X6325Y7446
X6635Y7146
X6365Y6886
X7990Y6472
X7990Y5592
X6880Y5452
X6375Y5746
X5100Y5652
X2248Y4046
X1775Y4306
X1105Y4466
X1460Y4809
X505Y4856
X2348Y3046
X3055Y2706
X1360Y2109
X2148Y1321
X10415Y7266
X13655Y5260
X13645Y4776
X15205Y5296
X16715Y6439
X15185Y3756
X14695Y7106
T02
X15870Y7821
X15870Y9790
T03
X3575Y1006
X4575Y1006
X5575Y1006
X6575Y1006
X7575Y1006
X7575Y2006
X6575Y2006
X5575Y2006
X4575Y2006
X3575Y2006
T04
X1360Y9983
X1360Y1321
M30
