G75*
%MOIN*%
%OFA0B0*%
%FSLAX25Y25*%
%IPPOS*%
%LPD*%
%AMOC8*
5,1,8,0,0,1.08239X$1,22.5*
%
%ADD10C,0.00800*%
%ADD11C,0.00000*%
D10*
X0013602Y0001400D02*
X0175019Y0001400D01*
X0175019Y0052581D01*
X0171082Y0052581D01*
X0170958Y0052583D01*
X0170835Y0052589D01*
X0170711Y0052598D01*
X0170589Y0052612D01*
X0170466Y0052629D01*
X0170344Y0052651D01*
X0170223Y0052676D01*
X0170103Y0052705D01*
X0169984Y0052737D01*
X0169865Y0052774D01*
X0169748Y0052814D01*
X0169633Y0052857D01*
X0169518Y0052905D01*
X0169406Y0052956D01*
X0169295Y0053010D01*
X0169185Y0053068D01*
X0169078Y0053129D01*
X0168972Y0053194D01*
X0168869Y0053262D01*
X0168768Y0053333D01*
X0168669Y0053407D01*
X0168572Y0053484D01*
X0168478Y0053565D01*
X0168387Y0053648D01*
X0168298Y0053734D01*
X0168212Y0053823D01*
X0168129Y0053914D01*
X0168048Y0054008D01*
X0167971Y0054105D01*
X0167897Y0054204D01*
X0167826Y0054305D01*
X0167758Y0054408D01*
X0167693Y0054514D01*
X0167632Y0054621D01*
X0167574Y0054731D01*
X0167520Y0054842D01*
X0167469Y0054954D01*
X0167421Y0055069D01*
X0167378Y0055184D01*
X0167338Y0055301D01*
X0167301Y0055420D01*
X0167269Y0055539D01*
X0167240Y0055659D01*
X0167215Y0055780D01*
X0167193Y0055902D01*
X0167176Y0056025D01*
X0167162Y0056147D01*
X0167153Y0056271D01*
X0167147Y0056394D01*
X0167145Y0056518D01*
X0167147Y0056642D01*
X0167153Y0056765D01*
X0167162Y0056889D01*
X0167176Y0057011D01*
X0167193Y0057134D01*
X0167215Y0057256D01*
X0167240Y0057377D01*
X0167269Y0057497D01*
X0167301Y0057616D01*
X0167338Y0057735D01*
X0167378Y0057852D01*
X0167421Y0057967D01*
X0167469Y0058082D01*
X0167520Y0058194D01*
X0167574Y0058305D01*
X0167632Y0058415D01*
X0167693Y0058522D01*
X0167758Y0058628D01*
X0167826Y0058731D01*
X0167897Y0058832D01*
X0167971Y0058931D01*
X0168048Y0059028D01*
X0168129Y0059122D01*
X0168212Y0059213D01*
X0168298Y0059302D01*
X0168387Y0059388D01*
X0168478Y0059471D01*
X0168572Y0059552D01*
X0168669Y0059629D01*
X0168768Y0059703D01*
X0168869Y0059774D01*
X0168972Y0059842D01*
X0169078Y0059907D01*
X0169185Y0059968D01*
X0169295Y0060026D01*
X0169406Y0060080D01*
X0169518Y0060131D01*
X0169633Y0060179D01*
X0169748Y0060222D01*
X0169865Y0060262D01*
X0169984Y0060299D01*
X0170103Y0060331D01*
X0170223Y0060360D01*
X0170344Y0060385D01*
X0170466Y0060407D01*
X0170589Y0060424D01*
X0170711Y0060438D01*
X0170835Y0060447D01*
X0170958Y0060453D01*
X0171082Y0060455D01*
X0175019Y0060455D01*
X0175019Y0111636D01*
X0013602Y0111636D01*
X0013317Y0111633D01*
X0013031Y0111622D01*
X0012746Y0111605D01*
X0012462Y0111581D01*
X0012178Y0111550D01*
X0011895Y0111512D01*
X0011614Y0111467D01*
X0011333Y0111416D01*
X0011053Y0111358D01*
X0010775Y0111293D01*
X0010499Y0111221D01*
X0010225Y0111143D01*
X0009952Y0111058D01*
X0009682Y0110966D01*
X0009414Y0110868D01*
X0009148Y0110764D01*
X0008885Y0110653D01*
X0008625Y0110536D01*
X0008367Y0110413D01*
X0008113Y0110283D01*
X0007862Y0110147D01*
X0007614Y0110006D01*
X0007370Y0109858D01*
X0007129Y0109705D01*
X0006893Y0109545D01*
X0006660Y0109380D01*
X0006431Y0109210D01*
X0006206Y0109034D01*
X0005986Y0108852D01*
X0005770Y0108666D01*
X0005559Y0108474D01*
X0005352Y0108277D01*
X0005150Y0108075D01*
X0004953Y0107868D01*
X0004761Y0107657D01*
X0004575Y0107441D01*
X0004393Y0107221D01*
X0004217Y0106996D01*
X0004047Y0106767D01*
X0003882Y0106534D01*
X0003722Y0106298D01*
X0003569Y0106057D01*
X0003421Y0105813D01*
X0003280Y0105565D01*
X0003144Y0105314D01*
X0003014Y0105060D01*
X0002891Y0104802D01*
X0002774Y0104542D01*
X0002663Y0104279D01*
X0002559Y0104013D01*
X0002461Y0103745D01*
X0002369Y0103475D01*
X0002284Y0103202D01*
X0002206Y0102928D01*
X0002134Y0102652D01*
X0002069Y0102374D01*
X0002011Y0102094D01*
X0001960Y0101813D01*
X0001915Y0101532D01*
X0001877Y0101249D01*
X0001846Y0100965D01*
X0001822Y0100681D01*
X0001805Y0100396D01*
X0001794Y0100110D01*
X0001791Y0099825D01*
X0001791Y0013211D01*
X0001794Y0012926D01*
X0001805Y0012640D01*
X0001822Y0012355D01*
X0001846Y0012071D01*
X0001877Y0011787D01*
X0001915Y0011504D01*
X0001960Y0011223D01*
X0002011Y0010942D01*
X0002069Y0010662D01*
X0002134Y0010384D01*
X0002206Y0010108D01*
X0002284Y0009834D01*
X0002369Y0009561D01*
X0002461Y0009291D01*
X0002559Y0009023D01*
X0002663Y0008757D01*
X0002774Y0008494D01*
X0002891Y0008234D01*
X0003014Y0007976D01*
X0003144Y0007722D01*
X0003280Y0007471D01*
X0003421Y0007223D01*
X0003569Y0006979D01*
X0003722Y0006738D01*
X0003882Y0006502D01*
X0004047Y0006269D01*
X0004217Y0006040D01*
X0004393Y0005815D01*
X0004575Y0005595D01*
X0004761Y0005379D01*
X0004953Y0005168D01*
X0005150Y0004961D01*
X0005352Y0004759D01*
X0005559Y0004562D01*
X0005770Y0004370D01*
X0005986Y0004184D01*
X0006206Y0004002D01*
X0006431Y0003826D01*
X0006660Y0003656D01*
X0006893Y0003491D01*
X0007129Y0003331D01*
X0007370Y0003178D01*
X0007614Y0003030D01*
X0007862Y0002889D01*
X0008113Y0002753D01*
X0008367Y0002623D01*
X0008625Y0002500D01*
X0008885Y0002383D01*
X0009148Y0002272D01*
X0009414Y0002168D01*
X0009682Y0002070D01*
X0009952Y0001978D01*
X0010225Y0001893D01*
X0010499Y0001815D01*
X0010775Y0001743D01*
X0011053Y0001678D01*
X0011333Y0001620D01*
X0011614Y0001569D01*
X0011895Y0001524D01*
X0012178Y0001486D01*
X0012462Y0001455D01*
X0012746Y0001431D01*
X0013031Y0001414D01*
X0013317Y0001403D01*
X0013602Y0001400D01*
D11*
X0009271Y0013211D02*
X0009273Y0013342D01*
X0009279Y0013474D01*
X0009289Y0013605D01*
X0009303Y0013736D01*
X0009321Y0013866D01*
X0009343Y0013995D01*
X0009368Y0014124D01*
X0009398Y0014252D01*
X0009432Y0014379D01*
X0009469Y0014506D01*
X0009510Y0014630D01*
X0009555Y0014754D01*
X0009604Y0014876D01*
X0009656Y0014997D01*
X0009712Y0015115D01*
X0009772Y0015233D01*
X0009835Y0015348D01*
X0009902Y0015461D01*
X0009972Y0015573D01*
X0010045Y0015682D01*
X0010121Y0015788D01*
X0010201Y0015893D01*
X0010284Y0015995D01*
X0010370Y0016094D01*
X0010459Y0016191D01*
X0010551Y0016285D01*
X0010646Y0016376D01*
X0010743Y0016465D01*
X0010843Y0016550D01*
X0010946Y0016632D01*
X0011051Y0016711D01*
X0011158Y0016787D01*
X0011268Y0016859D01*
X0011380Y0016928D01*
X0011494Y0016994D01*
X0011609Y0017056D01*
X0011727Y0017115D01*
X0011846Y0017170D01*
X0011967Y0017222D01*
X0012090Y0017269D01*
X0012214Y0017313D01*
X0012339Y0017354D01*
X0012465Y0017390D01*
X0012593Y0017423D01*
X0012721Y0017451D01*
X0012850Y0017476D01*
X0012980Y0017497D01*
X0013110Y0017514D01*
X0013241Y0017527D01*
X0013372Y0017536D01*
X0013503Y0017541D01*
X0013635Y0017542D01*
X0013766Y0017539D01*
X0013898Y0017532D01*
X0014029Y0017521D01*
X0014159Y0017506D01*
X0014289Y0017487D01*
X0014419Y0017464D01*
X0014547Y0017438D01*
X0014675Y0017407D01*
X0014802Y0017372D01*
X0014928Y0017334D01*
X0015052Y0017292D01*
X0015176Y0017246D01*
X0015297Y0017196D01*
X0015417Y0017143D01*
X0015536Y0017086D01*
X0015653Y0017026D01*
X0015767Y0016962D01*
X0015880Y0016894D01*
X0015991Y0016823D01*
X0016100Y0016749D01*
X0016206Y0016672D01*
X0016310Y0016591D01*
X0016411Y0016508D01*
X0016510Y0016421D01*
X0016606Y0016331D01*
X0016699Y0016238D01*
X0016790Y0016143D01*
X0016877Y0016045D01*
X0016962Y0015944D01*
X0017043Y0015841D01*
X0017121Y0015735D01*
X0017196Y0015627D01*
X0017268Y0015517D01*
X0017336Y0015405D01*
X0017401Y0015291D01*
X0017462Y0015174D01*
X0017520Y0015056D01*
X0017574Y0014936D01*
X0017625Y0014815D01*
X0017672Y0014692D01*
X0017715Y0014568D01*
X0017754Y0014443D01*
X0017790Y0014316D01*
X0017821Y0014188D01*
X0017849Y0014060D01*
X0017873Y0013931D01*
X0017893Y0013801D01*
X0017909Y0013670D01*
X0017921Y0013539D01*
X0017929Y0013408D01*
X0017933Y0013277D01*
X0017933Y0013145D01*
X0017929Y0013014D01*
X0017921Y0012883D01*
X0017909Y0012752D01*
X0017893Y0012621D01*
X0017873Y0012491D01*
X0017849Y0012362D01*
X0017821Y0012234D01*
X0017790Y0012106D01*
X0017754Y0011979D01*
X0017715Y0011854D01*
X0017672Y0011730D01*
X0017625Y0011607D01*
X0017574Y0011486D01*
X0017520Y0011366D01*
X0017462Y0011248D01*
X0017401Y0011131D01*
X0017336Y0011017D01*
X0017268Y0010905D01*
X0017196Y0010795D01*
X0017121Y0010687D01*
X0017043Y0010581D01*
X0016962Y0010478D01*
X0016877Y0010377D01*
X0016790Y0010279D01*
X0016699Y0010184D01*
X0016606Y0010091D01*
X0016510Y0010001D01*
X0016411Y0009914D01*
X0016310Y0009831D01*
X0016206Y0009750D01*
X0016100Y0009673D01*
X0015991Y0009599D01*
X0015880Y0009528D01*
X0015768Y0009460D01*
X0015653Y0009396D01*
X0015536Y0009336D01*
X0015417Y0009279D01*
X0015297Y0009226D01*
X0015176Y0009176D01*
X0015052Y0009130D01*
X0014928Y0009088D01*
X0014802Y0009050D01*
X0014675Y0009015D01*
X0014547Y0008984D01*
X0014419Y0008958D01*
X0014289Y0008935D01*
X0014159Y0008916D01*
X0014029Y0008901D01*
X0013898Y0008890D01*
X0013766Y0008883D01*
X0013635Y0008880D01*
X0013503Y0008881D01*
X0013372Y0008886D01*
X0013241Y0008895D01*
X0013110Y0008908D01*
X0012980Y0008925D01*
X0012850Y0008946D01*
X0012721Y0008971D01*
X0012593Y0008999D01*
X0012465Y0009032D01*
X0012339Y0009068D01*
X0012214Y0009109D01*
X0012090Y0009153D01*
X0011967Y0009200D01*
X0011846Y0009252D01*
X0011727Y0009307D01*
X0011609Y0009366D01*
X0011494Y0009428D01*
X0011380Y0009494D01*
X0011268Y0009563D01*
X0011158Y0009635D01*
X0011051Y0009711D01*
X0010946Y0009790D01*
X0010843Y0009872D01*
X0010743Y0009957D01*
X0010646Y0010046D01*
X0010551Y0010137D01*
X0010459Y0010231D01*
X0010370Y0010328D01*
X0010284Y0010427D01*
X0010201Y0010529D01*
X0010121Y0010634D01*
X0010045Y0010740D01*
X0009972Y0010849D01*
X0009902Y0010961D01*
X0009835Y0011074D01*
X0009772Y0011189D01*
X0009712Y0011307D01*
X0009656Y0011425D01*
X0009604Y0011546D01*
X0009555Y0011668D01*
X0009510Y0011792D01*
X0009469Y0011916D01*
X0009432Y0012043D01*
X0009398Y0012170D01*
X0009368Y0012298D01*
X0009343Y0012427D01*
X0009321Y0012556D01*
X0009303Y0012686D01*
X0009289Y0012817D01*
X0009279Y0012948D01*
X0009273Y0013080D01*
X0009271Y0013211D01*
X0009271Y0099825D02*
X0009273Y0099956D01*
X0009279Y0100088D01*
X0009289Y0100219D01*
X0009303Y0100350D01*
X0009321Y0100480D01*
X0009343Y0100609D01*
X0009368Y0100738D01*
X0009398Y0100866D01*
X0009432Y0100993D01*
X0009469Y0101120D01*
X0009510Y0101244D01*
X0009555Y0101368D01*
X0009604Y0101490D01*
X0009656Y0101611D01*
X0009712Y0101729D01*
X0009772Y0101847D01*
X0009835Y0101962D01*
X0009902Y0102075D01*
X0009972Y0102187D01*
X0010045Y0102296D01*
X0010121Y0102402D01*
X0010201Y0102507D01*
X0010284Y0102609D01*
X0010370Y0102708D01*
X0010459Y0102805D01*
X0010551Y0102899D01*
X0010646Y0102990D01*
X0010743Y0103079D01*
X0010843Y0103164D01*
X0010946Y0103246D01*
X0011051Y0103325D01*
X0011158Y0103401D01*
X0011268Y0103473D01*
X0011380Y0103542D01*
X0011494Y0103608D01*
X0011609Y0103670D01*
X0011727Y0103729D01*
X0011846Y0103784D01*
X0011967Y0103836D01*
X0012090Y0103883D01*
X0012214Y0103927D01*
X0012339Y0103968D01*
X0012465Y0104004D01*
X0012593Y0104037D01*
X0012721Y0104065D01*
X0012850Y0104090D01*
X0012980Y0104111D01*
X0013110Y0104128D01*
X0013241Y0104141D01*
X0013372Y0104150D01*
X0013503Y0104155D01*
X0013635Y0104156D01*
X0013766Y0104153D01*
X0013898Y0104146D01*
X0014029Y0104135D01*
X0014159Y0104120D01*
X0014289Y0104101D01*
X0014419Y0104078D01*
X0014547Y0104052D01*
X0014675Y0104021D01*
X0014802Y0103986D01*
X0014928Y0103948D01*
X0015052Y0103906D01*
X0015176Y0103860D01*
X0015297Y0103810D01*
X0015417Y0103757D01*
X0015536Y0103700D01*
X0015653Y0103640D01*
X0015767Y0103576D01*
X0015880Y0103508D01*
X0015991Y0103437D01*
X0016100Y0103363D01*
X0016206Y0103286D01*
X0016310Y0103205D01*
X0016411Y0103122D01*
X0016510Y0103035D01*
X0016606Y0102945D01*
X0016699Y0102852D01*
X0016790Y0102757D01*
X0016877Y0102659D01*
X0016962Y0102558D01*
X0017043Y0102455D01*
X0017121Y0102349D01*
X0017196Y0102241D01*
X0017268Y0102131D01*
X0017336Y0102019D01*
X0017401Y0101905D01*
X0017462Y0101788D01*
X0017520Y0101670D01*
X0017574Y0101550D01*
X0017625Y0101429D01*
X0017672Y0101306D01*
X0017715Y0101182D01*
X0017754Y0101057D01*
X0017790Y0100930D01*
X0017821Y0100802D01*
X0017849Y0100674D01*
X0017873Y0100545D01*
X0017893Y0100415D01*
X0017909Y0100284D01*
X0017921Y0100153D01*
X0017929Y0100022D01*
X0017933Y0099891D01*
X0017933Y0099759D01*
X0017929Y0099628D01*
X0017921Y0099497D01*
X0017909Y0099366D01*
X0017893Y0099235D01*
X0017873Y0099105D01*
X0017849Y0098976D01*
X0017821Y0098848D01*
X0017790Y0098720D01*
X0017754Y0098593D01*
X0017715Y0098468D01*
X0017672Y0098344D01*
X0017625Y0098221D01*
X0017574Y0098100D01*
X0017520Y0097980D01*
X0017462Y0097862D01*
X0017401Y0097745D01*
X0017336Y0097631D01*
X0017268Y0097519D01*
X0017196Y0097409D01*
X0017121Y0097301D01*
X0017043Y0097195D01*
X0016962Y0097092D01*
X0016877Y0096991D01*
X0016790Y0096893D01*
X0016699Y0096798D01*
X0016606Y0096705D01*
X0016510Y0096615D01*
X0016411Y0096528D01*
X0016310Y0096445D01*
X0016206Y0096364D01*
X0016100Y0096287D01*
X0015991Y0096213D01*
X0015880Y0096142D01*
X0015768Y0096074D01*
X0015653Y0096010D01*
X0015536Y0095950D01*
X0015417Y0095893D01*
X0015297Y0095840D01*
X0015176Y0095790D01*
X0015052Y0095744D01*
X0014928Y0095702D01*
X0014802Y0095664D01*
X0014675Y0095629D01*
X0014547Y0095598D01*
X0014419Y0095572D01*
X0014289Y0095549D01*
X0014159Y0095530D01*
X0014029Y0095515D01*
X0013898Y0095504D01*
X0013766Y0095497D01*
X0013635Y0095494D01*
X0013503Y0095495D01*
X0013372Y0095500D01*
X0013241Y0095509D01*
X0013110Y0095522D01*
X0012980Y0095539D01*
X0012850Y0095560D01*
X0012721Y0095585D01*
X0012593Y0095613D01*
X0012465Y0095646D01*
X0012339Y0095682D01*
X0012214Y0095723D01*
X0012090Y0095767D01*
X0011967Y0095814D01*
X0011846Y0095866D01*
X0011727Y0095921D01*
X0011609Y0095980D01*
X0011494Y0096042D01*
X0011380Y0096108D01*
X0011268Y0096177D01*
X0011158Y0096249D01*
X0011051Y0096325D01*
X0010946Y0096404D01*
X0010843Y0096486D01*
X0010743Y0096571D01*
X0010646Y0096660D01*
X0010551Y0096751D01*
X0010459Y0096845D01*
X0010370Y0096942D01*
X0010284Y0097041D01*
X0010201Y0097143D01*
X0010121Y0097248D01*
X0010045Y0097354D01*
X0009972Y0097463D01*
X0009902Y0097575D01*
X0009835Y0097688D01*
X0009772Y0097803D01*
X0009712Y0097921D01*
X0009656Y0098039D01*
X0009604Y0098160D01*
X0009555Y0098282D01*
X0009510Y0098406D01*
X0009469Y0098530D01*
X0009432Y0098657D01*
X0009398Y0098784D01*
X0009368Y0098912D01*
X0009343Y0099041D01*
X0009321Y0099170D01*
X0009303Y0099300D01*
X0009289Y0099431D01*
X0009279Y0099562D01*
X0009273Y0099694D01*
X0009271Y0099825D01*
M02*
