G75*
%MOIN*%
%OFA0B0*%
%FSLAX25Y25*%
%IPPOS*%
%LPD*%
%AMOC8*
5,1,8,0,0,1.08239X$1,22.5*
%
%ADD10C,0.01000*%
%ADD11C,0.00800*%
%ADD12C,0.00000*%
%ADD13C,0.00500*%
%ADD14C,0.01600*%
%ADD15C,0.00400*%
%ADD16R,0.00100X0.00048*%
%ADD17R,0.00190X0.00048*%
%ADD18R,0.00330X0.00047*%
%ADD19R,0.00430X0.00048*%
%ADD20R,0.00570X0.00047*%
%ADD21R,0.00570X0.00048*%
%ADD22R,0.00720X0.00048*%
%ADD23R,0.00810X0.00047*%
%ADD24R,0.00950X0.00048*%
%ADD25R,0.01000X0.00048*%
%ADD26R,0.01150X0.00047*%
%ADD27R,0.01280X0.00048*%
%ADD28R,0.01380X0.00047*%
%ADD29R,0.01470X0.00048*%
%ADD30R,0.01620X0.00048*%
%ADD31R,0.01720X0.00047*%
%ADD32R,0.01760X0.00048*%
%ADD33R,0.01850X0.00047*%
%ADD34R,0.01900X0.00048*%
%ADD35R,0.01850X0.00048*%
%ADD36R,0.01860X0.00047*%
%ADD37R,0.01860X0.00048*%
%ADD38R,0.01810X0.00048*%
%ADD39R,0.01810X0.00047*%
%ADD40R,0.01850X0.00048*%
%ADD41R,0.01760X0.00048*%
%ADD42R,0.01770X0.00048*%
%ADD43R,0.01720X0.00047*%
%ADD44R,0.01760X0.00048*%
%ADD45R,0.01710X0.00047*%
%ADD46R,0.01710X0.00048*%
%ADD47R,0.01720X0.00047*%
%ADD48R,0.01720X0.00048*%
%ADD49R,0.01720X0.00048*%
%ADD50R,0.01670X0.00048*%
%ADD51R,0.01710X0.00047*%
%ADD52R,0.01660X0.00048*%
%ADD53R,0.01670X0.00048*%
%ADD54R,0.01670X0.00047*%
%ADD55R,0.01670X0.00048*%
%ADD56R,0.01620X0.00047*%
%ADD57R,0.01620X0.00048*%
%ADD58R,0.01610X0.00047*%
%ADD59R,0.01610X0.00048*%
%ADD60R,0.01570X0.00047*%
%ADD61R,0.01570X0.00048*%
%ADD62R,0.01570X0.00048*%
%ADD63R,0.01570X0.00047*%
%ADD64R,0.03950X0.00048*%
%ADD65R,0.00620X0.00048*%
%ADD66R,0.04040X0.00047*%
%ADD67R,0.00860X0.00047*%
%ADD68R,0.04140X0.00048*%
%ADD69R,0.04190X0.00048*%
%ADD70R,0.04230X0.00047*%
%ADD71R,0.01050X0.00047*%
%ADD72R,0.04280X0.00048*%
%ADD73R,0.01140X0.00048*%
%ADD74R,0.04330X0.00048*%
%ADD75R,0.01140X0.00048*%
%ADD76R,0.04380X0.00047*%
%ADD77R,0.01190X0.00047*%
%ADD78R,0.04380X0.00048*%
%ADD79R,0.01190X0.00048*%
%ADD80R,0.04380X0.00047*%
%ADD81R,0.01620X0.00047*%
%ADD82R,0.01240X0.00047*%
%ADD83R,0.04430X0.00048*%
%ADD84R,0.01240X0.00048*%
%ADD85R,0.01660X0.00048*%
%ADD86R,0.01280X0.00048*%
%ADD87R,0.04430X0.00047*%
%ADD88R,0.01280X0.00047*%
%ADD89R,0.04470X0.00048*%
%ADD90R,0.04470X0.00047*%
%ADD91R,0.01610X0.00047*%
%ADD92R,0.01280X0.00047*%
%ADD93R,0.04470X0.00048*%
%ADD94R,0.01330X0.00048*%
%ADD95R,0.01660X0.00047*%
%ADD96R,0.01330X0.00048*%
%ADD97R,0.01280X0.00048*%
%ADD98R,0.01710X0.00048*%
%ADD99R,0.04430X0.00048*%
%ADD100R,0.01710X0.00048*%
%ADD101R,0.01240X0.00048*%
%ADD102R,0.04430X0.00047*%
%ADD103R,0.01710X0.00047*%
%ADD104R,0.01140X0.00047*%
%ADD105R,0.04330X0.00048*%
%ADD106R,0.01090X0.00048*%
%ADD107R,0.01050X0.00048*%
%ADD108R,0.04280X0.00047*%
%ADD109R,0.01000X0.00047*%
%ADD110R,0.04190X0.00048*%
%ADD111R,0.01720X0.00048*%
%ADD112R,0.00770X0.00048*%
%ADD113R,0.04090X0.00047*%
%ADD114R,0.01720X0.00047*%
%ADD115R,0.00290X0.00047*%
%ADD116R,0.00290X0.00048*%
%ADD117R,0.00150X0.00048*%
%ADD118R,0.00050X0.00048*%
%ADD119R,0.00040X0.00048*%
%ADD120R,0.00230X0.00048*%
%ADD121R,0.00720X0.00048*%
%ADD122R,0.00190X0.00048*%
%ADD123R,0.00200X0.00048*%
%ADD124R,0.00290X0.00048*%
%ADD125R,0.00570X0.00048*%
%ADD126R,0.00090X0.00048*%
%ADD127R,0.01720X0.00048*%
%ADD128R,0.01760X0.00047*%
%ADD129R,0.00050X0.00048*%
%ADD130R,0.00090X0.00047*%
%ADD131R,0.01770X0.00047*%
%ADD132R,0.00140X0.00048*%
%ADD133R,0.01770X0.00048*%
%ADD134R,0.00290X0.00047*%
%ADD135R,0.01810X0.00047*%
%ADD136R,0.00380X0.00048*%
%ADD137R,0.00430X0.00047*%
%ADD138R,0.00480X0.00048*%
%ADD139R,0.01810X0.00048*%
%ADD140R,0.00620X0.00047*%
%ADD141R,0.00810X0.00048*%
%ADD142R,0.00860X0.00047*%
%ADD143R,0.02770X0.00048*%
%ADD144R,0.02770X0.00047*%
%ADD145R,0.02770X0.00048*%
%ADD146R,0.02720X0.00048*%
%ADD147R,0.02760X0.00047*%
%ADD148R,0.02710X0.00048*%
%ADD149R,0.02710X0.00048*%
%ADD150R,0.02660X0.00047*%
%ADD151R,0.02660X0.00048*%
%ADD152R,0.02620X0.00047*%
%ADD153R,0.02670X0.00048*%
%ADD154R,0.02620X0.00048*%
%ADD155R,0.02570X0.00047*%
%ADD156R,0.02570X0.00048*%
%ADD157R,0.02520X0.00048*%
%ADD158R,0.02530X0.00048*%
%ADD159R,0.02530X0.00048*%
%ADD160R,0.02480X0.00047*%
%ADD161R,0.02430X0.00048*%
%ADD162R,0.02570X0.00048*%
%ADD163R,0.02810X0.00048*%
%ADD164R,0.02860X0.00048*%
%ADD165R,0.02960X0.00047*%
%ADD166R,0.03000X0.00048*%
%ADD167R,0.03050X0.00047*%
%ADD168R,0.03190X0.00048*%
%ADD169R,0.03230X0.00048*%
%ADD170R,0.03280X0.00047*%
%ADD171R,0.03380X0.00048*%
%ADD172R,0.03470X0.00047*%
%ADD173R,0.03520X0.00048*%
%ADD174R,0.03240X0.00047*%
%ADD175R,0.03140X0.00048*%
%ADD176R,0.02900X0.00047*%
%ADD177R,0.02760X0.00048*%
%ADD178R,0.02620X0.00047*%
%ADD179R,0.02570X0.00048*%
%ADD180R,0.02430X0.00048*%
%ADD181R,0.02290X0.00047*%
%ADD182R,0.02140X0.00048*%
%ADD183R,0.02050X0.00048*%
%ADD184R,0.01910X0.00047*%
%ADD185R,0.01860X0.00048*%
%ADD186R,0.01480X0.00048*%
%ADD187R,0.01340X0.00047*%
%ADD188R,0.01240X0.00048*%
%ADD189R,0.01140X0.00047*%
%ADD190R,0.00850X0.00048*%
%ADD191R,0.00850X0.00047*%
%ADD192R,0.00710X0.00048*%
%ADD193R,0.00570X0.00048*%
%ADD194R,0.00470X0.00047*%
%ADD195R,0.00330X0.00048*%
%ADD196R,0.00240X0.00047*%
%ADD197R,0.00048X0.00040*%
%ADD198R,0.00047X0.00140*%
%ADD199R,0.00048X0.00280*%
%ADD200R,0.00048X0.00420*%
%ADD201R,0.00047X0.00520*%
%ADD202R,0.00048X0.00620*%
%ADD203R,0.00047X0.00720*%
%ADD204R,0.00048X0.00860*%
%ADD205R,0.00048X0.00960*%
%ADD206R,0.00047X0.01100*%
%ADD207R,0.00048X0.01190*%
%ADD208R,0.00047X0.01380*%
%ADD209R,0.00048X0.01430*%
%ADD210R,0.00048X0.01570*%
%ADD211R,0.00047X0.01670*%
%ADD212R,0.00048X0.01810*%
%ADD213R,0.00048X0.01950*%
%ADD214R,0.00047X0.02050*%
%ADD215R,0.00048X0.02140*%
%ADD216R,0.00047X0.02240*%
%ADD217R,0.00048X0.02380*%
%ADD218R,0.00048X0.02470*%
%ADD219R,0.00047X0.02620*%
%ADD220R,0.00048X0.02710*%
%ADD221R,0.00048X0.02810*%
%ADD222R,0.00047X0.02950*%
%ADD223R,0.00048X0.03040*%
%ADD224R,0.00047X0.03190*%
%ADD225R,0.00048X0.03330*%
%ADD226R,0.00048X0.03420*%
%ADD227R,0.00047X0.03380*%
%ADD228R,0.00048X0.03340*%
%ADD229R,0.00047X0.03290*%
%ADD230R,0.00048X0.03190*%
%ADD231R,0.00048X0.03150*%
%ADD232R,0.00047X0.03100*%
%ADD233R,0.00048X0.03000*%
%ADD234R,0.00048X0.02910*%
%ADD235R,0.00047X0.02860*%
%ADD236R,0.00048X0.02760*%
%ADD237R,0.00047X0.02720*%
%ADD238R,0.00048X0.02620*%
%ADD239R,0.00048X0.02570*%
%ADD240R,0.00047X0.02470*%
%ADD241R,0.00048X0.02430*%
%ADD242R,0.00048X0.02430*%
%ADD243R,0.00048X0.02520*%
%ADD244R,0.00047X0.02520*%
%ADD245R,0.00047X0.02570*%
%ADD246R,0.00048X0.02570*%
%ADD247R,0.00048X0.02620*%
%ADD248R,0.00048X0.02660*%
%ADD249R,0.00047X0.02620*%
%ADD250R,0.00048X0.02670*%
%ADD251R,0.00048X0.02670*%
%ADD252R,0.00047X0.02670*%
%ADD253R,0.00048X0.02720*%
%ADD254R,0.00048X0.02720*%
%ADD255R,0.00047X0.02760*%
%ADD256R,0.00048X0.00910*%
%ADD257R,0.00048X0.01810*%
%ADD258R,0.00048X0.00810*%
%ADD259R,0.00048X0.01810*%
%ADD260R,0.00047X0.00760*%
%ADD261R,0.00047X0.01760*%
%ADD262R,0.00048X0.00620*%
%ADD263R,0.00048X0.01760*%
%ADD264R,0.00047X0.00570*%
%ADD265R,0.00047X0.01760*%
%ADD266R,0.00048X0.00520*%
%ADD267R,0.00048X0.00430*%
%ADD268R,0.00047X0.00380*%
%ADD269R,0.00048X0.01770*%
%ADD270R,0.00047X0.00190*%
%ADD271R,0.00047X0.01770*%
%ADD272R,0.00048X0.00140*%
%ADD273R,0.00048X0.01720*%
%ADD274R,0.00048X0.00090*%
%ADD275R,0.00048X0.01760*%
%ADD276R,0.00047X0.01760*%
%ADD277R,0.00048X0.01710*%
%ADD278R,0.00048X0.01710*%
%ADD279R,0.00047X0.01710*%
%ADD280R,0.00048X0.01720*%
%ADD281R,0.00047X0.01720*%
%ADD282R,0.00048X0.01720*%
%ADD283R,0.00048X0.01670*%
%ADD284R,0.00048X0.01670*%
%ADD285R,0.00047X0.01720*%
%ADD286R,0.00048X0.03950*%
%ADD287R,0.00048X0.04050*%
%ADD288R,0.00048X0.00470*%
%ADD289R,0.00047X0.04090*%
%ADD290R,0.00047X0.01670*%
%ADD291R,0.00047X0.00670*%
%ADD292R,0.00048X0.04190*%
%ADD293R,0.00048X0.00900*%
%ADD294R,0.00047X0.04240*%
%ADD295R,0.00047X0.01000*%
%ADD296R,0.00048X0.04290*%
%ADD297R,0.00048X0.01620*%
%ADD298R,0.00048X0.01050*%
%ADD299R,0.00048X0.04290*%
%ADD300R,0.00048X0.01620*%
%ADD301R,0.00048X0.01090*%
%ADD302R,0.00047X0.04330*%
%ADD303R,0.00047X0.01660*%
%ADD304R,0.00047X0.01140*%
%ADD305R,0.00048X0.04330*%
%ADD306R,0.00048X0.01660*%
%ADD307R,0.00048X0.01190*%
%ADD308R,0.00048X0.04380*%
%ADD309R,0.00048X0.01660*%
%ADD310R,0.00048X0.01190*%
%ADD311R,0.00047X0.04380*%
%ADD312R,0.00047X0.01240*%
%ADD313R,0.00048X0.04380*%
%ADD314R,0.00048X0.01610*%
%ADD315R,0.00048X0.01240*%
%ADD316R,0.00047X0.04430*%
%ADD317R,0.00047X0.01610*%
%ADD318R,0.00048X0.04430*%
%ADD319R,0.00048X0.01610*%
%ADD320R,0.00048X0.01240*%
%ADD321R,0.00048X0.04430*%
%ADD322R,0.00048X0.01280*%
%ADD323R,0.00047X0.01280*%
%ADD324R,0.00048X0.01280*%
%ADD325R,0.00047X0.04430*%
%ADD326R,0.00047X0.01610*%
%ADD327R,0.00047X0.01280*%
%ADD328R,0.00047X0.04380*%
%ADD329R,0.00047X0.01530*%
%ADD330R,0.00047X0.01240*%
%ADD331R,0.00047X0.01530*%
%ADD332R,0.00048X0.01530*%
%ADD333R,0.00048X0.04330*%
%ADD334R,0.00047X0.04290*%
%ADD335R,0.00048X0.01570*%
%ADD336R,0.00048X0.01140*%
%ADD337R,0.00048X0.04240*%
%ADD338R,0.00047X0.04190*%
%ADD339R,0.00047X0.01570*%
%ADD340R,0.00047X0.01050*%
%ADD341R,0.00048X0.04140*%
%ADD342R,0.00048X0.01000*%
%ADD343R,0.00047X0.04090*%
%ADD344R,0.00047X0.00900*%
%ADD345R,0.00048X0.03900*%
%ADD346R,0.00048X0.01520*%
%ADD347R,0.00048X0.00710*%
%ADD348R,0.00047X0.01520*%
%ADD349R,0.00047X0.00040*%
%ADD350R,0.00047X0.01570*%
%ADD351R,0.00047X0.01580*%
%ADD352R,0.00048X0.01580*%
%ADD353R,0.00048X0.01620*%
%ADD354R,0.00047X0.01570*%
%ADD355R,0.00048X0.01620*%
%ADD356R,0.00047X0.01620*%
%ADD357R,0.00048X0.01670*%
%ADD358R,0.00047X0.01660*%
%ADD359R,0.00048X0.01660*%
%ADD360R,0.00047X0.01670*%
%ADD361R,0.00047X0.01720*%
%ADD362R,0.00048X0.01720*%
%ADD363R,0.00048X0.01770*%
%ADD364R,0.00048X0.01810*%
%ADD365R,0.00048X0.01760*%
%ADD366R,0.00047X0.01810*%
%ADD367R,0.00047X0.01800*%
%ADD368R,0.00048X0.01860*%
%ADD369R,0.00047X0.01860*%
%ADD370R,0.00048X0.01860*%
%ADD371R,0.00047X0.01900*%
%ADD372R,0.00048X0.01520*%
%ADD373R,0.00048X0.01150*%
%ADD374R,0.00048X0.00950*%
%ADD375R,0.00048X0.00860*%
%ADD376R,0.00047X0.00710*%
%ADD377R,0.00048X0.00620*%
%ADD378R,0.00047X0.00480*%
%ADD379R,0.00048X0.00380*%
%ADD380R,0.00048X0.00280*%
%ADD381R,0.00047X0.00150*%
%ADD382R,0.00048X0.00050*%
%ADD383R,0.00050X0.00047*%
%ADD384R,0.01380X0.00047*%
%ADD385R,0.00040X0.00048*%
%ADD386R,0.02000X0.00048*%
%ADD387R,0.03000X0.00047*%
%ADD388R,0.03330X0.00048*%
%ADD389R,0.03620X0.00048*%
%ADD390R,0.03910X0.00047*%
%ADD391R,0.04670X0.00048*%
%ADD392R,0.04910X0.00048*%
%ADD393R,0.05050X0.00047*%
%ADD394R,0.05290X0.00048*%
%ADD395R,0.05430X0.00047*%
%ADD396R,0.05620X0.00048*%
%ADD397R,0.05810X0.00048*%
%ADD398R,0.06000X0.00047*%
%ADD399R,0.06090X0.00048*%
%ADD400R,0.06290X0.00048*%
%ADD401R,0.06380X0.00047*%
%ADD402R,0.06570X0.00048*%
%ADD403R,0.06670X0.00047*%
%ADD404R,0.06810X0.00048*%
%ADD405R,0.06860X0.00048*%
%ADD406R,0.07050X0.00047*%
%ADD407R,0.07140X0.00048*%
%ADD408R,0.07240X0.00048*%
%ADD409R,0.07330X0.00047*%
%ADD410R,0.07430X0.00048*%
%ADD411R,0.07570X0.00047*%
%ADD412R,0.07660X0.00048*%
%ADD413R,0.00100X0.00048*%
%ADD414R,0.07760X0.00048*%
%ADD415R,0.00240X0.00048*%
%ADD416R,0.07860X0.00047*%
%ADD417R,0.07960X0.00048*%
%ADD418R,0.08040X0.00047*%
%ADD419R,0.00480X0.00047*%
%ADD420R,0.08140X0.00048*%
%ADD421R,0.08190X0.00048*%
%ADD422R,0.00620X0.00048*%
%ADD423R,0.08240X0.00047*%
%ADD424R,0.00760X0.00047*%
%ADD425R,0.08340X0.00048*%
%ADD426R,0.00860X0.00048*%
%ADD427R,0.08430X0.00048*%
%ADD428R,0.08470X0.00047*%
%ADD429R,0.01000X0.00047*%
%ADD430R,0.04240X0.00048*%
%ADD431R,0.00040X0.00048*%
%ADD432R,0.03810X0.00048*%
%ADD433R,0.01090X0.00048*%
%ADD434R,0.03810X0.00047*%
%ADD435R,0.03620X0.00047*%
%ADD436R,0.03570X0.00048*%
%ADD437R,0.03380X0.00048*%
%ADD438R,0.03390X0.00048*%
%ADD439R,0.03290X0.00048*%
%ADD440R,0.03280X0.00047*%
%ADD441R,0.04570X0.00047*%
%ADD442R,0.03140X0.00048*%
%ADD443R,0.03090X0.00048*%
%ADD444R,0.04280X0.00048*%
%ADD445R,0.04150X0.00047*%
%ADD446R,0.02910X0.00048*%
%ADD447R,0.04000X0.00048*%
%ADD448R,0.02860X0.00047*%
%ADD449R,0.03960X0.00047*%
%ADD450R,0.02810X0.00048*%
%ADD451R,0.03810X0.00048*%
%ADD452R,0.02710X0.00048*%
%ADD453R,0.03710X0.00048*%
%ADD454R,0.02710X0.00047*%
%ADD455R,0.03670X0.00047*%
%ADD456R,0.02670X0.00048*%
%ADD457R,0.03570X0.00048*%
%ADD458R,0.03480X0.00047*%
%ADD459R,0.02570X0.00048*%
%ADD460R,0.03430X0.00048*%
%ADD461R,0.02530X0.00048*%
%ADD462R,0.02520X0.00047*%
%ADD463R,0.03280X0.00047*%
%ADD464R,0.02470X0.00048*%
%ADD465R,0.03190X0.00048*%
%ADD466R,0.02470X0.00048*%
%ADD467R,0.03190X0.00048*%
%ADD468R,0.02480X0.00047*%
%ADD469R,0.03090X0.00047*%
%ADD470R,0.03040X0.00048*%
%ADD471R,0.02380X0.00047*%
%ADD472R,0.02380X0.00048*%
%ADD473R,0.02340X0.00048*%
%ADD474R,0.03190X0.00048*%
%ADD475R,0.02330X0.00047*%
%ADD476R,0.03290X0.00047*%
%ADD477R,0.02280X0.00048*%
%ADD478R,0.02330X0.00048*%
%ADD479R,0.03480X0.00048*%
%ADD480R,0.02280X0.00047*%
%ADD481R,0.03520X0.00047*%
%ADD482R,0.02290X0.00048*%
%ADD483R,0.03620X0.00048*%
%ADD484R,0.02240X0.00047*%
%ADD485R,0.03720X0.00047*%
%ADD486R,0.02240X0.00048*%
%ADD487R,0.03860X0.00048*%
%ADD488R,0.03900X0.00048*%
%ADD489R,0.02190X0.00047*%
%ADD490R,0.04000X0.00047*%
%ADD491R,0.04050X0.00048*%
%ADD492R,0.02200X0.00047*%
%ADD493R,0.04190X0.00047*%
%ADD494R,0.02200X0.00048*%
%ADD495R,0.04230X0.00048*%
%ADD496R,0.02190X0.00048*%
%ADD497R,0.04330X0.00048*%
%ADD498R,0.02140X0.00047*%
%ADD499R,0.04380X0.00047*%
%ADD500R,0.02140X0.00048*%
%ADD501R,0.04470X0.00048*%
%ADD502R,0.04340X0.00048*%
%ADD503R,0.04190X0.00047*%
%ADD504R,0.04100X0.00048*%
%ADD505R,0.04000X0.00047*%
%ADD506R,0.02140X0.00048*%
%ADD507R,0.03860X0.00048*%
%ADD508R,0.02100X0.00048*%
%ADD509R,0.03760X0.00048*%
%ADD510R,0.02100X0.00047*%
%ADD511R,0.02100X0.00048*%
%ADD512R,0.03530X0.00048*%
%ADD513R,0.03380X0.00048*%
%ADD514R,0.03240X0.00047*%
%ADD515R,0.02050X0.00048*%
%ADD516R,0.02090X0.00047*%
%ADD517R,0.02090X0.00048*%
%ADD518R,0.02950X0.00048*%
%ADD519R,0.02040X0.00048*%
%ADD520R,0.02040X0.00047*%
%ADD521R,0.02710X0.00047*%
%ADD522R,0.02050X0.00047*%
%ADD523R,0.02390X0.00048*%
%ADD524R,0.01670X0.00048*%
%ADD525R,0.02000X0.00047*%
%ADD526R,0.01620X0.00047*%
%ADD527R,0.01430X0.00048*%
%ADD528R,0.02000X0.00048*%
%ADD529R,0.00760X0.00048*%
%ADD530R,0.02000X0.00047*%
%ADD531R,0.00660X0.00047*%
%ADD532R,0.00480X0.00048*%
%ADD533R,0.00430X0.00048*%
%ADD534R,0.00240X0.00047*%
%ADD535R,0.01960X0.00048*%
%ADD536R,0.02040X0.00048*%
%ADD537R,0.01960X0.00048*%
%ADD538R,0.00040X0.00047*%
%ADD539R,0.00040X0.00047*%
%ADD540R,0.01960X0.00048*%
%ADD541R,0.02040X0.00047*%
%ADD542R,0.02050X0.00047*%
%ADD543R,0.02090X0.00047*%
%ADD544R,0.02040X0.00048*%
%ADD545R,0.02090X0.00048*%
%ADD546R,0.02090X0.00047*%
%ADD547R,0.02090X0.00048*%
%ADD548R,0.02090X0.00048*%
%ADD549R,0.02150X0.00048*%
%ADD550R,0.02100X0.00047*%
%ADD551R,0.02090X0.00047*%
%ADD552R,0.02140X0.00047*%
%ADD553R,0.02150X0.00047*%
%ADD554R,0.02190X0.00047*%
%ADD555R,0.02190X0.00048*%
%ADD556R,0.02240X0.00048*%
%ADD557R,0.02230X0.00048*%
%ADD558R,0.02290X0.00047*%
%ADD559R,0.02230X0.00047*%
%ADD560R,0.02290X0.00048*%
%ADD561R,0.02330X0.00048*%
%ADD562R,0.02380X0.00047*%
%ADD563R,0.02380X0.00048*%
%ADD564R,0.02430X0.00047*%
%ADD565R,0.02380X0.00047*%
%ADD566R,0.02430X0.00048*%
%ADD567R,0.02430X0.00048*%
%ADD568R,0.02480X0.00048*%
%ADD569R,0.02470X0.00047*%
%ADD570R,0.02480X0.00047*%
%ADD571R,0.02520X0.00048*%
%ADD572R,0.02480X0.00048*%
%ADD573R,0.02570X0.00047*%
%ADD574R,0.02530X0.00047*%
%ADD575R,0.02610X0.00048*%
%ADD576R,0.02520X0.00048*%
%ADD577R,0.02620X0.00048*%
%ADD578R,0.02720X0.00047*%
%ADD579R,0.02660X0.00048*%
%ADD580R,0.02860X0.00047*%
%ADD581R,0.02760X0.00047*%
%ADD582R,0.02900X0.00048*%
%ADD583R,0.02910X0.00048*%
%ADD584R,0.03040X0.00047*%
%ADD585R,0.02950X0.00047*%
%ADD586R,0.03150X0.00048*%
%ADD587R,0.03140X0.00048*%
%ADD588R,0.03380X0.00047*%
%ADD589R,0.03230X0.00047*%
%ADD590R,0.03520X0.00048*%
%ADD591R,0.03710X0.00048*%
%ADD592R,0.04050X0.00047*%
%ADD593R,0.00140X0.00047*%
%ADD594R,0.03950X0.00047*%
%ADD595R,0.08860X0.00048*%
%ADD596R,0.08760X0.00047*%
%ADD597R,0.08710X0.00048*%
%ADD598R,0.08620X0.00048*%
%ADD599R,0.08530X0.00047*%
%ADD600R,0.08380X0.00047*%
%ADD601R,0.08290X0.00048*%
%ADD602R,0.08090X0.00047*%
%ADD603R,0.08000X0.00048*%
%ADD604R,0.07910X0.00048*%
%ADD605R,0.07860X0.00047*%
%ADD606R,0.07670X0.00048*%
%ADD607R,0.07620X0.00047*%
%ADD608R,0.07470X0.00048*%
%ADD609R,0.07380X0.00048*%
%ADD610R,0.07240X0.00047*%
%ADD611R,0.07000X0.00048*%
%ADD612R,0.06910X0.00047*%
%ADD613R,0.06620X0.00047*%
%ADD614R,0.06480X0.00048*%
%ADD615R,0.06330X0.00048*%
%ADD616R,0.06190X0.00047*%
%ADD617R,0.06000X0.00048*%
%ADD618R,0.05860X0.00047*%
%ADD619R,0.05470X0.00048*%
%ADD620R,0.05240X0.00047*%
%ADD621R,0.05040X0.00048*%
%ADD622R,0.04860X0.00048*%
%ADD623R,0.04530X0.00047*%
%ADD624R,0.03720X0.00048*%
%ADD625R,0.03340X0.00048*%
%ADD626C,0.00394*%
%ADD627C,0.00600*%
%ADD628R,0.11000X0.01481*%
D10*
X0044266Y0035815D02*
X0046935Y0039818D01*
X0044266Y0039818D02*
X0046935Y0035815D01*
X0048677Y0037403D02*
X0049766Y0037403D01*
X0049766Y0036405D02*
X0049676Y0036405D01*
X0049766Y0036315D02*
X0048266Y0037815D01*
X0049766Y0039315D01*
X0049766Y0036315D01*
X0049766Y0038402D02*
X0048853Y0038402D01*
X0062877Y0039463D02*
X0065877Y0039463D01*
X0064377Y0037963D01*
X0062877Y0039463D01*
X0062939Y0039400D02*
X0065814Y0039400D01*
X0064816Y0038402D02*
X0063938Y0038402D01*
X0063077Y0036566D02*
X0063077Y0035899D01*
X0064411Y0034565D01*
X0064411Y0032563D01*
X0064411Y0034565D02*
X0065746Y0035899D01*
X0065746Y0036566D01*
D11*
X0013602Y0001400D02*
X0175019Y0001400D01*
X0175019Y0052581D01*
X0171082Y0052581D01*
X0170958Y0052583D01*
X0170835Y0052589D01*
X0170711Y0052598D01*
X0170589Y0052612D01*
X0170466Y0052629D01*
X0170344Y0052651D01*
X0170223Y0052676D01*
X0170103Y0052705D01*
X0169984Y0052737D01*
X0169865Y0052774D01*
X0169748Y0052814D01*
X0169633Y0052857D01*
X0169518Y0052905D01*
X0169406Y0052956D01*
X0169295Y0053010D01*
X0169185Y0053068D01*
X0169078Y0053129D01*
X0168972Y0053194D01*
X0168869Y0053262D01*
X0168768Y0053333D01*
X0168669Y0053407D01*
X0168572Y0053484D01*
X0168478Y0053565D01*
X0168387Y0053648D01*
X0168298Y0053734D01*
X0168212Y0053823D01*
X0168129Y0053914D01*
X0168048Y0054008D01*
X0167971Y0054105D01*
X0167897Y0054204D01*
X0167826Y0054305D01*
X0167758Y0054408D01*
X0167693Y0054514D01*
X0167632Y0054621D01*
X0167574Y0054731D01*
X0167520Y0054842D01*
X0167469Y0054954D01*
X0167421Y0055069D01*
X0167378Y0055184D01*
X0167338Y0055301D01*
X0167301Y0055420D01*
X0167269Y0055539D01*
X0167240Y0055659D01*
X0167215Y0055780D01*
X0167193Y0055902D01*
X0167176Y0056025D01*
X0167162Y0056147D01*
X0167153Y0056271D01*
X0167147Y0056394D01*
X0167145Y0056518D01*
X0167147Y0056642D01*
X0167153Y0056765D01*
X0167162Y0056889D01*
X0167176Y0057011D01*
X0167193Y0057134D01*
X0167215Y0057256D01*
X0167240Y0057377D01*
X0167269Y0057497D01*
X0167301Y0057616D01*
X0167338Y0057735D01*
X0167378Y0057852D01*
X0167421Y0057967D01*
X0167469Y0058082D01*
X0167520Y0058194D01*
X0167574Y0058305D01*
X0167632Y0058415D01*
X0167693Y0058522D01*
X0167758Y0058628D01*
X0167826Y0058731D01*
X0167897Y0058832D01*
X0167971Y0058931D01*
X0168048Y0059028D01*
X0168129Y0059122D01*
X0168212Y0059213D01*
X0168298Y0059302D01*
X0168387Y0059388D01*
X0168478Y0059471D01*
X0168572Y0059552D01*
X0168669Y0059629D01*
X0168768Y0059703D01*
X0168869Y0059774D01*
X0168972Y0059842D01*
X0169078Y0059907D01*
X0169185Y0059968D01*
X0169295Y0060026D01*
X0169406Y0060080D01*
X0169518Y0060131D01*
X0169633Y0060179D01*
X0169748Y0060222D01*
X0169865Y0060262D01*
X0169984Y0060299D01*
X0170103Y0060331D01*
X0170223Y0060360D01*
X0170344Y0060385D01*
X0170466Y0060407D01*
X0170589Y0060424D01*
X0170711Y0060438D01*
X0170835Y0060447D01*
X0170958Y0060453D01*
X0171082Y0060455D01*
X0175019Y0060455D01*
X0175019Y0111636D01*
X0013602Y0111636D01*
X0013317Y0111633D01*
X0013031Y0111622D01*
X0012746Y0111605D01*
X0012462Y0111581D01*
X0012178Y0111550D01*
X0011895Y0111512D01*
X0011614Y0111467D01*
X0011333Y0111416D01*
X0011053Y0111358D01*
X0010775Y0111293D01*
X0010499Y0111221D01*
X0010225Y0111143D01*
X0009952Y0111058D01*
X0009682Y0110966D01*
X0009414Y0110868D01*
X0009148Y0110764D01*
X0008885Y0110653D01*
X0008625Y0110536D01*
X0008367Y0110413D01*
X0008113Y0110283D01*
X0007862Y0110147D01*
X0007614Y0110006D01*
X0007370Y0109858D01*
X0007129Y0109705D01*
X0006893Y0109545D01*
X0006660Y0109380D01*
X0006431Y0109210D01*
X0006206Y0109034D01*
X0005986Y0108852D01*
X0005770Y0108666D01*
X0005559Y0108474D01*
X0005352Y0108277D01*
X0005150Y0108075D01*
X0004953Y0107868D01*
X0004761Y0107657D01*
X0004575Y0107441D01*
X0004393Y0107221D01*
X0004217Y0106996D01*
X0004047Y0106767D01*
X0003882Y0106534D01*
X0003722Y0106298D01*
X0003569Y0106057D01*
X0003421Y0105813D01*
X0003280Y0105565D01*
X0003144Y0105314D01*
X0003014Y0105060D01*
X0002891Y0104802D01*
X0002774Y0104542D01*
X0002663Y0104279D01*
X0002559Y0104013D01*
X0002461Y0103745D01*
X0002369Y0103475D01*
X0002284Y0103202D01*
X0002206Y0102928D01*
X0002134Y0102652D01*
X0002069Y0102374D01*
X0002011Y0102094D01*
X0001960Y0101813D01*
X0001915Y0101532D01*
X0001877Y0101249D01*
X0001846Y0100965D01*
X0001822Y0100681D01*
X0001805Y0100396D01*
X0001794Y0100110D01*
X0001791Y0099825D01*
X0001791Y0013211D01*
X0001794Y0012926D01*
X0001805Y0012640D01*
X0001822Y0012355D01*
X0001846Y0012071D01*
X0001877Y0011787D01*
X0001915Y0011504D01*
X0001960Y0011223D01*
X0002011Y0010942D01*
X0002069Y0010662D01*
X0002134Y0010384D01*
X0002206Y0010108D01*
X0002284Y0009834D01*
X0002369Y0009561D01*
X0002461Y0009291D01*
X0002559Y0009023D01*
X0002663Y0008757D01*
X0002774Y0008494D01*
X0002891Y0008234D01*
X0003014Y0007976D01*
X0003144Y0007722D01*
X0003280Y0007471D01*
X0003421Y0007223D01*
X0003569Y0006979D01*
X0003722Y0006738D01*
X0003882Y0006502D01*
X0004047Y0006269D01*
X0004217Y0006040D01*
X0004393Y0005815D01*
X0004575Y0005595D01*
X0004761Y0005379D01*
X0004953Y0005168D01*
X0005150Y0004961D01*
X0005352Y0004759D01*
X0005559Y0004562D01*
X0005770Y0004370D01*
X0005986Y0004184D01*
X0006206Y0004002D01*
X0006431Y0003826D01*
X0006660Y0003656D01*
X0006893Y0003491D01*
X0007129Y0003331D01*
X0007370Y0003178D01*
X0007614Y0003030D01*
X0007862Y0002889D01*
X0008113Y0002753D01*
X0008367Y0002623D01*
X0008625Y0002500D01*
X0008885Y0002383D01*
X0009148Y0002272D01*
X0009414Y0002168D01*
X0009682Y0002070D01*
X0009952Y0001978D01*
X0010225Y0001893D01*
X0010499Y0001815D01*
X0010775Y0001743D01*
X0011053Y0001678D01*
X0011333Y0001620D01*
X0011614Y0001569D01*
X0011895Y0001524D01*
X0012178Y0001486D01*
X0012462Y0001455D01*
X0012746Y0001431D01*
X0013031Y0001414D01*
X0013317Y0001403D01*
X0013602Y0001400D01*
X0013050Y0031463D02*
X0009050Y0031463D01*
X0009050Y0039463D01*
X0013050Y0039463D01*
X0013050Y0031463D01*
X0014350Y0031463D02*
X0014350Y0039463D01*
X0018350Y0039463D01*
X0018350Y0031463D01*
X0014350Y0031463D01*
X0024550Y0035363D02*
X0024550Y0040363D01*
X0035550Y0040363D01*
X0035550Y0035363D01*
X0024550Y0035363D01*
X0025276Y0042463D02*
X0025276Y0046463D01*
X0033276Y0046463D01*
X0033276Y0042463D01*
X0025276Y0042463D01*
X0035276Y0054963D02*
X0039276Y0054963D01*
X0039276Y0062963D01*
X0035276Y0062963D01*
X0035276Y0054963D01*
X0009750Y0060663D02*
X0005750Y0060663D01*
X0005750Y0068663D01*
X0009750Y0068663D01*
X0009750Y0060663D01*
X0013350Y0071463D02*
X0013350Y0075463D01*
X0021350Y0075463D01*
X0021350Y0071463D01*
X0013350Y0071463D01*
X0013250Y0076563D02*
X0013250Y0080563D01*
X0021250Y0080563D01*
X0021250Y0076563D01*
X0013250Y0076563D01*
X0053019Y0091865D02*
X0053019Y0099865D01*
X0057019Y0099865D01*
X0057019Y0091865D01*
X0053019Y0091865D01*
X0064150Y0091863D02*
X0068150Y0091863D01*
X0068150Y0083863D01*
X0064150Y0083863D01*
X0064150Y0091863D01*
X0069750Y0091863D02*
X0077750Y0091863D01*
X0077750Y0087863D01*
X0069750Y0087863D01*
X0069750Y0091863D01*
X0074626Y0096872D02*
X0074626Y0102778D01*
X0086437Y0102778D01*
X0086437Y0096872D01*
X0074626Y0096872D01*
X0083250Y0091863D02*
X0083250Y0087863D01*
X0091250Y0087863D01*
X0091250Y0091863D01*
X0083250Y0091863D01*
X0097350Y0089863D02*
X0097350Y0093863D01*
X0105350Y0093863D01*
X0105350Y0089863D01*
X0097350Y0089863D01*
X0097350Y0089063D02*
X0097350Y0085063D01*
X0105350Y0085063D01*
X0105350Y0089063D01*
X0097350Y0089063D01*
X0106950Y0089063D02*
X0106950Y0085063D01*
X0114950Y0085063D01*
X0114950Y0089063D01*
X0106950Y0089063D01*
X0106950Y0089863D02*
X0106950Y0093863D01*
X0114950Y0093863D01*
X0114950Y0089863D01*
X0106950Y0089863D01*
X0126150Y0093063D02*
X0126150Y0097063D01*
X0134150Y0097063D01*
X0134150Y0093063D01*
X0126150Y0093063D01*
X0126150Y0097863D02*
X0126150Y0101863D01*
X0134150Y0101863D01*
X0134150Y0097863D01*
X0126150Y0097863D01*
X0126150Y0102663D02*
X0126150Y0106663D01*
X0134150Y0106663D01*
X0134150Y0102663D01*
X0126150Y0102663D01*
X0140350Y0097063D02*
X0140350Y0093063D01*
X0148350Y0093063D01*
X0148350Y0097063D01*
X0140350Y0097063D01*
X0135350Y0085463D02*
X0131350Y0085463D01*
X0131350Y0077463D01*
X0135350Y0077463D01*
X0135350Y0085463D01*
X0142459Y0067847D02*
X0146459Y0067847D01*
X0146459Y0059847D01*
X0142459Y0059847D01*
X0142459Y0067847D01*
X0147337Y0067836D02*
X0151337Y0067836D01*
X0151337Y0059836D01*
X0147337Y0059836D01*
X0147337Y0067836D01*
X0165960Y0068436D02*
X0168096Y0068436D01*
X0168096Y0067902D01*
X0165960Y0065767D01*
X0165960Y0065233D01*
X0168096Y0065233D01*
X0162250Y0039563D02*
X0154250Y0039563D01*
X0154250Y0035563D01*
X0162250Y0035563D01*
X0162250Y0039563D01*
X0160950Y0032063D02*
X0160950Y0028063D01*
X0168950Y0028063D01*
X0168950Y0032063D01*
X0160950Y0032063D01*
X0149250Y0035463D02*
X0149250Y0039463D01*
X0141250Y0039463D01*
X0141250Y0035463D01*
X0149250Y0035463D01*
X0159650Y0023163D02*
X0159650Y0010163D01*
X0151950Y0009763D02*
X0151950Y0013763D01*
X0143950Y0013763D01*
X0143950Y0009763D01*
X0151950Y0009763D01*
X0138250Y0009263D02*
X0138250Y0022263D01*
X0127250Y0022263D02*
X0127250Y0009263D01*
X0125950Y0011763D02*
X0121950Y0011763D01*
X0121950Y0019763D01*
X0125950Y0019763D01*
X0125950Y0011763D01*
X0118550Y0012263D02*
X0118550Y0016263D01*
X0110550Y0016263D01*
X0110550Y0012263D01*
X0118550Y0012263D01*
X0109062Y0011704D02*
X0109062Y0016822D01*
X0098038Y0016822D01*
X0098038Y0011704D01*
X0109062Y0011704D01*
X0103950Y0018863D02*
X0103950Y0023863D01*
X0114950Y0023863D01*
X0114950Y0018863D01*
X0103950Y0018863D01*
X0106550Y0025063D02*
X0106550Y0029063D01*
X0114550Y0029063D01*
X0114550Y0025063D01*
X0106550Y0025063D01*
X0078950Y0044811D02*
X0078950Y0048811D01*
X0070950Y0048811D01*
X0070950Y0044811D01*
X0078950Y0044811D01*
X0078950Y0049611D02*
X0070950Y0049611D01*
X0070950Y0053611D01*
X0078950Y0053611D01*
X0078950Y0049611D01*
X0077750Y0064363D02*
X0073750Y0064363D01*
X0073750Y0072363D01*
X0077750Y0072363D01*
X0077750Y0064363D01*
X0072950Y0064363D02*
X0068950Y0064363D01*
X0068950Y0072363D01*
X0072950Y0072363D01*
X0072950Y0064363D01*
X0067950Y0073663D02*
X0067950Y0078663D01*
X0078950Y0078663D01*
X0078950Y0073663D01*
X0067950Y0073663D01*
X0091476Y0071951D02*
X0091478Y0072013D01*
X0091484Y0072076D01*
X0091494Y0072137D01*
X0091508Y0072198D01*
X0091525Y0072258D01*
X0091546Y0072317D01*
X0091572Y0072374D01*
X0091600Y0072429D01*
X0091632Y0072483D01*
X0091668Y0072534D01*
X0091706Y0072584D01*
X0091748Y0072630D01*
X0091792Y0072674D01*
X0091840Y0072715D01*
X0091889Y0072753D01*
X0091941Y0072787D01*
X0091995Y0072818D01*
X0092051Y0072846D01*
X0092109Y0072870D01*
X0092168Y0072891D01*
X0092228Y0072907D01*
X0092289Y0072920D01*
X0092351Y0072929D01*
X0092413Y0072934D01*
X0092476Y0072935D01*
X0092538Y0072932D01*
X0092600Y0072925D01*
X0092662Y0072914D01*
X0092722Y0072899D01*
X0092782Y0072881D01*
X0092840Y0072859D01*
X0092897Y0072833D01*
X0092952Y0072803D01*
X0093005Y0072770D01*
X0093056Y0072734D01*
X0093104Y0072695D01*
X0093150Y0072652D01*
X0093193Y0072607D01*
X0093233Y0072559D01*
X0093270Y0072509D01*
X0093304Y0072456D01*
X0093335Y0072402D01*
X0093361Y0072346D01*
X0093385Y0072288D01*
X0093404Y0072228D01*
X0093420Y0072168D01*
X0093432Y0072106D01*
X0093440Y0072045D01*
X0093444Y0071982D01*
X0093444Y0071920D01*
X0093440Y0071857D01*
X0093432Y0071796D01*
X0093420Y0071734D01*
X0093404Y0071674D01*
X0093385Y0071614D01*
X0093361Y0071556D01*
X0093335Y0071500D01*
X0093304Y0071446D01*
X0093270Y0071393D01*
X0093233Y0071343D01*
X0093193Y0071295D01*
X0093150Y0071250D01*
X0093104Y0071207D01*
X0093056Y0071168D01*
X0093005Y0071132D01*
X0092952Y0071099D01*
X0092897Y0071069D01*
X0092840Y0071043D01*
X0092782Y0071021D01*
X0092722Y0071003D01*
X0092662Y0070988D01*
X0092600Y0070977D01*
X0092538Y0070970D01*
X0092476Y0070967D01*
X0092413Y0070968D01*
X0092351Y0070973D01*
X0092289Y0070982D01*
X0092228Y0070995D01*
X0092168Y0071011D01*
X0092109Y0071032D01*
X0092051Y0071056D01*
X0091995Y0071084D01*
X0091941Y0071115D01*
X0091889Y0071149D01*
X0091840Y0071187D01*
X0091792Y0071228D01*
X0091748Y0071272D01*
X0091706Y0071318D01*
X0091668Y0071368D01*
X0091632Y0071419D01*
X0091600Y0071473D01*
X0091572Y0071528D01*
X0091546Y0071585D01*
X0091525Y0071644D01*
X0091508Y0071704D01*
X0091494Y0071765D01*
X0091484Y0071826D01*
X0091478Y0071889D01*
X0091476Y0071951D01*
X0170650Y0023163D02*
X0170650Y0010163D01*
D12*
X0009271Y0013211D02*
X0009273Y0013342D01*
X0009279Y0013474D01*
X0009289Y0013605D01*
X0009303Y0013736D01*
X0009321Y0013866D01*
X0009343Y0013995D01*
X0009368Y0014124D01*
X0009398Y0014252D01*
X0009432Y0014379D01*
X0009469Y0014506D01*
X0009510Y0014630D01*
X0009555Y0014754D01*
X0009604Y0014876D01*
X0009656Y0014997D01*
X0009712Y0015115D01*
X0009772Y0015233D01*
X0009835Y0015348D01*
X0009902Y0015461D01*
X0009972Y0015573D01*
X0010045Y0015682D01*
X0010121Y0015788D01*
X0010201Y0015893D01*
X0010284Y0015995D01*
X0010370Y0016094D01*
X0010459Y0016191D01*
X0010551Y0016285D01*
X0010646Y0016376D01*
X0010743Y0016465D01*
X0010843Y0016550D01*
X0010946Y0016632D01*
X0011051Y0016711D01*
X0011158Y0016787D01*
X0011268Y0016859D01*
X0011380Y0016928D01*
X0011494Y0016994D01*
X0011609Y0017056D01*
X0011727Y0017115D01*
X0011846Y0017170D01*
X0011967Y0017222D01*
X0012090Y0017269D01*
X0012214Y0017313D01*
X0012339Y0017354D01*
X0012465Y0017390D01*
X0012593Y0017423D01*
X0012721Y0017451D01*
X0012850Y0017476D01*
X0012980Y0017497D01*
X0013110Y0017514D01*
X0013241Y0017527D01*
X0013372Y0017536D01*
X0013503Y0017541D01*
X0013635Y0017542D01*
X0013766Y0017539D01*
X0013898Y0017532D01*
X0014029Y0017521D01*
X0014159Y0017506D01*
X0014289Y0017487D01*
X0014419Y0017464D01*
X0014547Y0017438D01*
X0014675Y0017407D01*
X0014802Y0017372D01*
X0014928Y0017334D01*
X0015052Y0017292D01*
X0015176Y0017246D01*
X0015297Y0017196D01*
X0015417Y0017143D01*
X0015536Y0017086D01*
X0015653Y0017026D01*
X0015767Y0016962D01*
X0015880Y0016894D01*
X0015991Y0016823D01*
X0016100Y0016749D01*
X0016206Y0016672D01*
X0016310Y0016591D01*
X0016411Y0016508D01*
X0016510Y0016421D01*
X0016606Y0016331D01*
X0016699Y0016238D01*
X0016790Y0016143D01*
X0016877Y0016045D01*
X0016962Y0015944D01*
X0017043Y0015841D01*
X0017121Y0015735D01*
X0017196Y0015627D01*
X0017268Y0015517D01*
X0017336Y0015405D01*
X0017401Y0015291D01*
X0017462Y0015174D01*
X0017520Y0015056D01*
X0017574Y0014936D01*
X0017625Y0014815D01*
X0017672Y0014692D01*
X0017715Y0014568D01*
X0017754Y0014443D01*
X0017790Y0014316D01*
X0017821Y0014188D01*
X0017849Y0014060D01*
X0017873Y0013931D01*
X0017893Y0013801D01*
X0017909Y0013670D01*
X0017921Y0013539D01*
X0017929Y0013408D01*
X0017933Y0013277D01*
X0017933Y0013145D01*
X0017929Y0013014D01*
X0017921Y0012883D01*
X0017909Y0012752D01*
X0017893Y0012621D01*
X0017873Y0012491D01*
X0017849Y0012362D01*
X0017821Y0012234D01*
X0017790Y0012106D01*
X0017754Y0011979D01*
X0017715Y0011854D01*
X0017672Y0011730D01*
X0017625Y0011607D01*
X0017574Y0011486D01*
X0017520Y0011366D01*
X0017462Y0011248D01*
X0017401Y0011131D01*
X0017336Y0011017D01*
X0017268Y0010905D01*
X0017196Y0010795D01*
X0017121Y0010687D01*
X0017043Y0010581D01*
X0016962Y0010478D01*
X0016877Y0010377D01*
X0016790Y0010279D01*
X0016699Y0010184D01*
X0016606Y0010091D01*
X0016510Y0010001D01*
X0016411Y0009914D01*
X0016310Y0009831D01*
X0016206Y0009750D01*
X0016100Y0009673D01*
X0015991Y0009599D01*
X0015880Y0009528D01*
X0015768Y0009460D01*
X0015653Y0009396D01*
X0015536Y0009336D01*
X0015417Y0009279D01*
X0015297Y0009226D01*
X0015176Y0009176D01*
X0015052Y0009130D01*
X0014928Y0009088D01*
X0014802Y0009050D01*
X0014675Y0009015D01*
X0014547Y0008984D01*
X0014419Y0008958D01*
X0014289Y0008935D01*
X0014159Y0008916D01*
X0014029Y0008901D01*
X0013898Y0008890D01*
X0013766Y0008883D01*
X0013635Y0008880D01*
X0013503Y0008881D01*
X0013372Y0008886D01*
X0013241Y0008895D01*
X0013110Y0008908D01*
X0012980Y0008925D01*
X0012850Y0008946D01*
X0012721Y0008971D01*
X0012593Y0008999D01*
X0012465Y0009032D01*
X0012339Y0009068D01*
X0012214Y0009109D01*
X0012090Y0009153D01*
X0011967Y0009200D01*
X0011846Y0009252D01*
X0011727Y0009307D01*
X0011609Y0009366D01*
X0011494Y0009428D01*
X0011380Y0009494D01*
X0011268Y0009563D01*
X0011158Y0009635D01*
X0011051Y0009711D01*
X0010946Y0009790D01*
X0010843Y0009872D01*
X0010743Y0009957D01*
X0010646Y0010046D01*
X0010551Y0010137D01*
X0010459Y0010231D01*
X0010370Y0010328D01*
X0010284Y0010427D01*
X0010201Y0010529D01*
X0010121Y0010634D01*
X0010045Y0010740D01*
X0009972Y0010849D01*
X0009902Y0010961D01*
X0009835Y0011074D01*
X0009772Y0011189D01*
X0009712Y0011307D01*
X0009656Y0011425D01*
X0009604Y0011546D01*
X0009555Y0011668D01*
X0009510Y0011792D01*
X0009469Y0011916D01*
X0009432Y0012043D01*
X0009398Y0012170D01*
X0009368Y0012298D01*
X0009343Y0012427D01*
X0009321Y0012556D01*
X0009303Y0012686D01*
X0009289Y0012817D01*
X0009279Y0012948D01*
X0009273Y0013080D01*
X0009271Y0013211D01*
X0009271Y0099825D02*
X0009273Y0099956D01*
X0009279Y0100088D01*
X0009289Y0100219D01*
X0009303Y0100350D01*
X0009321Y0100480D01*
X0009343Y0100609D01*
X0009368Y0100738D01*
X0009398Y0100866D01*
X0009432Y0100993D01*
X0009469Y0101120D01*
X0009510Y0101244D01*
X0009555Y0101368D01*
X0009604Y0101490D01*
X0009656Y0101611D01*
X0009712Y0101729D01*
X0009772Y0101847D01*
X0009835Y0101962D01*
X0009902Y0102075D01*
X0009972Y0102187D01*
X0010045Y0102296D01*
X0010121Y0102402D01*
X0010201Y0102507D01*
X0010284Y0102609D01*
X0010370Y0102708D01*
X0010459Y0102805D01*
X0010551Y0102899D01*
X0010646Y0102990D01*
X0010743Y0103079D01*
X0010843Y0103164D01*
X0010946Y0103246D01*
X0011051Y0103325D01*
X0011158Y0103401D01*
X0011268Y0103473D01*
X0011380Y0103542D01*
X0011494Y0103608D01*
X0011609Y0103670D01*
X0011727Y0103729D01*
X0011846Y0103784D01*
X0011967Y0103836D01*
X0012090Y0103883D01*
X0012214Y0103927D01*
X0012339Y0103968D01*
X0012465Y0104004D01*
X0012593Y0104037D01*
X0012721Y0104065D01*
X0012850Y0104090D01*
X0012980Y0104111D01*
X0013110Y0104128D01*
X0013241Y0104141D01*
X0013372Y0104150D01*
X0013503Y0104155D01*
X0013635Y0104156D01*
X0013766Y0104153D01*
X0013898Y0104146D01*
X0014029Y0104135D01*
X0014159Y0104120D01*
X0014289Y0104101D01*
X0014419Y0104078D01*
X0014547Y0104052D01*
X0014675Y0104021D01*
X0014802Y0103986D01*
X0014928Y0103948D01*
X0015052Y0103906D01*
X0015176Y0103860D01*
X0015297Y0103810D01*
X0015417Y0103757D01*
X0015536Y0103700D01*
X0015653Y0103640D01*
X0015767Y0103576D01*
X0015880Y0103508D01*
X0015991Y0103437D01*
X0016100Y0103363D01*
X0016206Y0103286D01*
X0016310Y0103205D01*
X0016411Y0103122D01*
X0016510Y0103035D01*
X0016606Y0102945D01*
X0016699Y0102852D01*
X0016790Y0102757D01*
X0016877Y0102659D01*
X0016962Y0102558D01*
X0017043Y0102455D01*
X0017121Y0102349D01*
X0017196Y0102241D01*
X0017268Y0102131D01*
X0017336Y0102019D01*
X0017401Y0101905D01*
X0017462Y0101788D01*
X0017520Y0101670D01*
X0017574Y0101550D01*
X0017625Y0101429D01*
X0017672Y0101306D01*
X0017715Y0101182D01*
X0017754Y0101057D01*
X0017790Y0100930D01*
X0017821Y0100802D01*
X0017849Y0100674D01*
X0017873Y0100545D01*
X0017893Y0100415D01*
X0017909Y0100284D01*
X0017921Y0100153D01*
X0017929Y0100022D01*
X0017933Y0099891D01*
X0017933Y0099759D01*
X0017929Y0099628D01*
X0017921Y0099497D01*
X0017909Y0099366D01*
X0017893Y0099235D01*
X0017873Y0099105D01*
X0017849Y0098976D01*
X0017821Y0098848D01*
X0017790Y0098720D01*
X0017754Y0098593D01*
X0017715Y0098468D01*
X0017672Y0098344D01*
X0017625Y0098221D01*
X0017574Y0098100D01*
X0017520Y0097980D01*
X0017462Y0097862D01*
X0017401Y0097745D01*
X0017336Y0097631D01*
X0017268Y0097519D01*
X0017196Y0097409D01*
X0017121Y0097301D01*
X0017043Y0097195D01*
X0016962Y0097092D01*
X0016877Y0096991D01*
X0016790Y0096893D01*
X0016699Y0096798D01*
X0016606Y0096705D01*
X0016510Y0096615D01*
X0016411Y0096528D01*
X0016310Y0096445D01*
X0016206Y0096364D01*
X0016100Y0096287D01*
X0015991Y0096213D01*
X0015880Y0096142D01*
X0015768Y0096074D01*
X0015653Y0096010D01*
X0015536Y0095950D01*
X0015417Y0095893D01*
X0015297Y0095840D01*
X0015176Y0095790D01*
X0015052Y0095744D01*
X0014928Y0095702D01*
X0014802Y0095664D01*
X0014675Y0095629D01*
X0014547Y0095598D01*
X0014419Y0095572D01*
X0014289Y0095549D01*
X0014159Y0095530D01*
X0014029Y0095515D01*
X0013898Y0095504D01*
X0013766Y0095497D01*
X0013635Y0095494D01*
X0013503Y0095495D01*
X0013372Y0095500D01*
X0013241Y0095509D01*
X0013110Y0095522D01*
X0012980Y0095539D01*
X0012850Y0095560D01*
X0012721Y0095585D01*
X0012593Y0095613D01*
X0012465Y0095646D01*
X0012339Y0095682D01*
X0012214Y0095723D01*
X0012090Y0095767D01*
X0011967Y0095814D01*
X0011846Y0095866D01*
X0011727Y0095921D01*
X0011609Y0095980D01*
X0011494Y0096042D01*
X0011380Y0096108D01*
X0011268Y0096177D01*
X0011158Y0096249D01*
X0011051Y0096325D01*
X0010946Y0096404D01*
X0010843Y0096486D01*
X0010743Y0096571D01*
X0010646Y0096660D01*
X0010551Y0096751D01*
X0010459Y0096845D01*
X0010370Y0096942D01*
X0010284Y0097041D01*
X0010201Y0097143D01*
X0010121Y0097248D01*
X0010045Y0097354D01*
X0009972Y0097463D01*
X0009902Y0097575D01*
X0009835Y0097688D01*
X0009772Y0097803D01*
X0009712Y0097921D01*
X0009656Y0098039D01*
X0009604Y0098160D01*
X0009555Y0098282D01*
X0009510Y0098406D01*
X0009469Y0098530D01*
X0009432Y0098657D01*
X0009398Y0098784D01*
X0009368Y0098912D01*
X0009343Y0099041D01*
X0009321Y0099170D01*
X0009303Y0099300D01*
X0009289Y0099431D01*
X0009279Y0099562D01*
X0009273Y0099694D01*
X0009271Y0099825D01*
D13*
X0051024Y0106888D02*
X0054024Y0105888D01*
X0054024Y0107888D01*
X0051024Y0106888D01*
X0051766Y0107135D02*
X0054024Y0107135D01*
X0054024Y0106637D02*
X0051778Y0106637D01*
X0053273Y0106138D02*
X0054024Y0106138D01*
X0054024Y0107634D02*
X0053261Y0107634D01*
X0068720Y0105731D02*
X0068720Y0104156D01*
X0068720Y0105731D02*
X0068722Y0105793D01*
X0068728Y0105854D01*
X0068737Y0105915D01*
X0068751Y0105976D01*
X0068768Y0106035D01*
X0068789Y0106093D01*
X0068814Y0106150D01*
X0068842Y0106205D01*
X0068873Y0106258D01*
X0068908Y0106309D01*
X0068946Y0106358D01*
X0068987Y0106405D01*
X0069030Y0106448D01*
X0069077Y0106489D01*
X0069126Y0106527D01*
X0069177Y0106562D01*
X0069230Y0106593D01*
X0069285Y0106621D01*
X0069342Y0106646D01*
X0069400Y0106667D01*
X0069459Y0106684D01*
X0069520Y0106698D01*
X0069581Y0106707D01*
X0069642Y0106713D01*
X0069704Y0106715D01*
X0091358Y0106715D01*
X0091420Y0106713D01*
X0091481Y0106707D01*
X0091542Y0106698D01*
X0091603Y0106684D01*
X0091662Y0106667D01*
X0091720Y0106646D01*
X0091777Y0106621D01*
X0091832Y0106593D01*
X0091885Y0106562D01*
X0091936Y0106527D01*
X0091985Y0106489D01*
X0092032Y0106448D01*
X0092075Y0106405D01*
X0092116Y0106358D01*
X0092154Y0106309D01*
X0092189Y0106258D01*
X0092220Y0106205D01*
X0092248Y0106150D01*
X0092273Y0106093D01*
X0092294Y0106035D01*
X0092311Y0105976D01*
X0092325Y0105915D01*
X0092334Y0105854D01*
X0092340Y0105793D01*
X0092342Y0105731D01*
X0092342Y0104156D01*
X0092342Y0095494D02*
X0092342Y0093920D01*
X0092340Y0093858D01*
X0092334Y0093797D01*
X0092325Y0093736D01*
X0092311Y0093675D01*
X0092294Y0093616D01*
X0092273Y0093558D01*
X0092248Y0093501D01*
X0092220Y0093446D01*
X0092189Y0093393D01*
X0092154Y0093342D01*
X0092116Y0093293D01*
X0092075Y0093246D01*
X0092032Y0093203D01*
X0091985Y0093162D01*
X0091936Y0093124D01*
X0091885Y0093089D01*
X0091832Y0093058D01*
X0091777Y0093030D01*
X0091720Y0093005D01*
X0091662Y0092984D01*
X0091603Y0092967D01*
X0091542Y0092953D01*
X0091481Y0092944D01*
X0091420Y0092938D01*
X0091358Y0092936D01*
X0091358Y0092935D02*
X0069704Y0092935D01*
X0069704Y0092936D02*
X0069642Y0092938D01*
X0069581Y0092944D01*
X0069520Y0092953D01*
X0069459Y0092967D01*
X0069400Y0092984D01*
X0069342Y0093005D01*
X0069285Y0093030D01*
X0069230Y0093058D01*
X0069177Y0093089D01*
X0069126Y0093124D01*
X0069077Y0093162D01*
X0069030Y0093203D01*
X0068987Y0093246D01*
X0068946Y0093293D01*
X0068908Y0093342D01*
X0068873Y0093393D01*
X0068842Y0093446D01*
X0068814Y0093501D01*
X0068789Y0093558D01*
X0068768Y0093616D01*
X0068751Y0093675D01*
X0068737Y0093736D01*
X0068728Y0093797D01*
X0068722Y0093858D01*
X0068720Y0093920D01*
X0068720Y0095494D01*
X0059271Y0064786D02*
X0056515Y0064786D01*
X0059271Y0064786D02*
X0059271Y0063998D01*
X0045492Y0064786D02*
X0042736Y0064786D01*
X0042736Y0063998D01*
X0027775Y0062817D02*
X0027775Y0062030D01*
X0027775Y0062817D02*
X0025019Y0062817D01*
X0017933Y0062817D02*
X0015177Y0062817D01*
X0015177Y0062030D01*
X0015177Y0051006D02*
X0015177Y0050219D01*
X0017933Y0050219D01*
X0025019Y0050219D02*
X0027775Y0050219D01*
X0027775Y0051006D01*
X0042736Y0049038D02*
X0042736Y0048250D01*
X0045492Y0048250D01*
X0056515Y0048250D02*
X0059271Y0048250D01*
X0059271Y0049038D01*
D14*
X0061240Y0049431D02*
X0061242Y0049487D01*
X0061248Y0049542D01*
X0061258Y0049596D01*
X0061271Y0049650D01*
X0061289Y0049703D01*
X0061310Y0049754D01*
X0061334Y0049804D01*
X0061362Y0049852D01*
X0061394Y0049898D01*
X0061428Y0049942D01*
X0061466Y0049983D01*
X0061506Y0050021D01*
X0061549Y0050056D01*
X0061594Y0050088D01*
X0061642Y0050117D01*
X0061691Y0050143D01*
X0061742Y0050165D01*
X0061794Y0050183D01*
X0061848Y0050197D01*
X0061903Y0050208D01*
X0061958Y0050215D01*
X0062013Y0050218D01*
X0062069Y0050217D01*
X0062124Y0050212D01*
X0062179Y0050203D01*
X0062233Y0050191D01*
X0062286Y0050174D01*
X0062338Y0050154D01*
X0062388Y0050130D01*
X0062436Y0050103D01*
X0062483Y0050073D01*
X0062527Y0050039D01*
X0062569Y0050002D01*
X0062607Y0049962D01*
X0062644Y0049920D01*
X0062677Y0049875D01*
X0062706Y0049829D01*
X0062733Y0049780D01*
X0062755Y0049729D01*
X0062775Y0049677D01*
X0062790Y0049623D01*
X0062802Y0049569D01*
X0062810Y0049514D01*
X0062814Y0049459D01*
X0062814Y0049403D01*
X0062810Y0049348D01*
X0062802Y0049293D01*
X0062790Y0049239D01*
X0062775Y0049185D01*
X0062755Y0049133D01*
X0062733Y0049082D01*
X0062706Y0049033D01*
X0062677Y0048987D01*
X0062644Y0048942D01*
X0062607Y0048900D01*
X0062569Y0048860D01*
X0062527Y0048823D01*
X0062483Y0048789D01*
X0062436Y0048759D01*
X0062388Y0048732D01*
X0062338Y0048708D01*
X0062286Y0048688D01*
X0062233Y0048671D01*
X0062179Y0048659D01*
X0062124Y0048650D01*
X0062069Y0048645D01*
X0062013Y0048644D01*
X0061958Y0048647D01*
X0061903Y0048654D01*
X0061848Y0048665D01*
X0061794Y0048679D01*
X0061742Y0048697D01*
X0061691Y0048719D01*
X0061642Y0048745D01*
X0061594Y0048774D01*
X0061549Y0048806D01*
X0061506Y0048841D01*
X0061466Y0048879D01*
X0061428Y0048920D01*
X0061394Y0048964D01*
X0061362Y0049010D01*
X0061334Y0049058D01*
X0061310Y0049108D01*
X0061289Y0049159D01*
X0061271Y0049212D01*
X0061258Y0049266D01*
X0061248Y0049320D01*
X0061242Y0049375D01*
X0061240Y0049431D01*
X0012028Y0063211D02*
X0012030Y0063267D01*
X0012036Y0063322D01*
X0012046Y0063376D01*
X0012059Y0063430D01*
X0012077Y0063483D01*
X0012098Y0063534D01*
X0012122Y0063584D01*
X0012150Y0063632D01*
X0012182Y0063678D01*
X0012216Y0063722D01*
X0012254Y0063763D01*
X0012294Y0063801D01*
X0012337Y0063836D01*
X0012382Y0063868D01*
X0012430Y0063897D01*
X0012479Y0063923D01*
X0012530Y0063945D01*
X0012582Y0063963D01*
X0012636Y0063977D01*
X0012691Y0063988D01*
X0012746Y0063995D01*
X0012801Y0063998D01*
X0012857Y0063997D01*
X0012912Y0063992D01*
X0012967Y0063983D01*
X0013021Y0063971D01*
X0013074Y0063954D01*
X0013126Y0063934D01*
X0013176Y0063910D01*
X0013224Y0063883D01*
X0013271Y0063853D01*
X0013315Y0063819D01*
X0013357Y0063782D01*
X0013395Y0063742D01*
X0013432Y0063700D01*
X0013465Y0063655D01*
X0013494Y0063609D01*
X0013521Y0063560D01*
X0013543Y0063509D01*
X0013563Y0063457D01*
X0013578Y0063403D01*
X0013590Y0063349D01*
X0013598Y0063294D01*
X0013602Y0063239D01*
X0013602Y0063183D01*
X0013598Y0063128D01*
X0013590Y0063073D01*
X0013578Y0063019D01*
X0013563Y0062965D01*
X0013543Y0062913D01*
X0013521Y0062862D01*
X0013494Y0062813D01*
X0013465Y0062767D01*
X0013432Y0062722D01*
X0013395Y0062680D01*
X0013357Y0062640D01*
X0013315Y0062603D01*
X0013271Y0062569D01*
X0013224Y0062539D01*
X0013176Y0062512D01*
X0013126Y0062488D01*
X0013074Y0062468D01*
X0013021Y0062451D01*
X0012967Y0062439D01*
X0012912Y0062430D01*
X0012857Y0062425D01*
X0012801Y0062424D01*
X0012746Y0062427D01*
X0012691Y0062434D01*
X0012636Y0062445D01*
X0012582Y0062459D01*
X0012530Y0062477D01*
X0012479Y0062499D01*
X0012430Y0062525D01*
X0012382Y0062554D01*
X0012337Y0062586D01*
X0012294Y0062621D01*
X0012254Y0062659D01*
X0012216Y0062700D01*
X0012182Y0062744D01*
X0012150Y0062790D01*
X0012122Y0062838D01*
X0012098Y0062888D01*
X0012077Y0062939D01*
X0012059Y0062992D01*
X0012046Y0063046D01*
X0012036Y0063100D01*
X0012030Y0063155D01*
X0012028Y0063211D01*
X0158202Y0066733D02*
X0158204Y0066782D01*
X0158210Y0066830D01*
X0158220Y0066878D01*
X0158234Y0066925D01*
X0158251Y0066971D01*
X0158272Y0067015D01*
X0158297Y0067057D01*
X0158325Y0067097D01*
X0158357Y0067135D01*
X0158391Y0067170D01*
X0158428Y0067202D01*
X0158467Y0067231D01*
X0158509Y0067257D01*
X0158553Y0067279D01*
X0158598Y0067297D01*
X0158645Y0067312D01*
X0158692Y0067323D01*
X0158741Y0067330D01*
X0158790Y0067333D01*
X0158839Y0067332D01*
X0158887Y0067327D01*
X0158936Y0067318D01*
X0158983Y0067305D01*
X0159029Y0067288D01*
X0159073Y0067268D01*
X0159116Y0067244D01*
X0159157Y0067217D01*
X0159195Y0067186D01*
X0159231Y0067153D01*
X0159263Y0067117D01*
X0159293Y0067078D01*
X0159320Y0067037D01*
X0159343Y0066993D01*
X0159362Y0066948D01*
X0159378Y0066902D01*
X0159390Y0066855D01*
X0159398Y0066806D01*
X0159402Y0066757D01*
X0159402Y0066709D01*
X0159398Y0066660D01*
X0159390Y0066611D01*
X0159378Y0066564D01*
X0159362Y0066518D01*
X0159343Y0066473D01*
X0159320Y0066429D01*
X0159293Y0066388D01*
X0159263Y0066349D01*
X0159231Y0066313D01*
X0159195Y0066280D01*
X0159157Y0066249D01*
X0159116Y0066222D01*
X0159073Y0066198D01*
X0159029Y0066178D01*
X0158983Y0066161D01*
X0158936Y0066148D01*
X0158887Y0066139D01*
X0158839Y0066134D01*
X0158790Y0066133D01*
X0158741Y0066136D01*
X0158692Y0066143D01*
X0158645Y0066154D01*
X0158598Y0066169D01*
X0158553Y0066187D01*
X0158509Y0066209D01*
X0158467Y0066235D01*
X0158428Y0066264D01*
X0158391Y0066296D01*
X0158357Y0066331D01*
X0158325Y0066369D01*
X0158297Y0066409D01*
X0158272Y0066451D01*
X0158251Y0066495D01*
X0158234Y0066541D01*
X0158220Y0066588D01*
X0158210Y0066636D01*
X0158204Y0066684D01*
X0158202Y0066733D01*
D15*
X0154090Y0065398D02*
X0154090Y0064063D01*
X0154090Y0064730D02*
X0152088Y0064730D01*
X0152756Y0064063D01*
X0154090Y0063188D02*
X0154090Y0061853D01*
X0154090Y0062520D02*
X0152088Y0062520D01*
X0152756Y0061853D01*
X0152422Y0060978D02*
X0152088Y0060644D01*
X0152088Y0059977D01*
X0152422Y0059643D01*
X0153757Y0059643D01*
X0154090Y0059977D01*
X0154090Y0060644D01*
X0153757Y0060978D01*
X0141750Y0060664D02*
X0141416Y0060997D01*
X0141750Y0060664D02*
X0141750Y0059997D01*
X0141416Y0059663D01*
X0140082Y0059663D01*
X0139748Y0059997D01*
X0139748Y0060664D01*
X0140082Y0060997D01*
X0139748Y0061873D02*
X0139748Y0063207D01*
X0140082Y0063207D01*
X0141416Y0061873D01*
X0141750Y0061873D01*
X0130650Y0077263D02*
X0128648Y0077263D01*
X0128648Y0078264D01*
X0128982Y0078597D01*
X0129649Y0078597D01*
X0129983Y0078264D01*
X0129983Y0077263D01*
X0129983Y0077930D02*
X0130650Y0078597D01*
X0130650Y0079473D02*
X0129316Y0080807D01*
X0128982Y0080807D01*
X0128648Y0080474D01*
X0128648Y0079806D01*
X0128982Y0079473D01*
X0130650Y0079473D02*
X0130650Y0080807D01*
X0141121Y0080660D02*
X0141121Y0079326D01*
X0143122Y0079326D01*
X0142122Y0079326D02*
X0142122Y0079993D01*
X0141788Y0081536D02*
X0141121Y0082203D01*
X0143122Y0082203D01*
X0143122Y0081536D02*
X0143122Y0082870D01*
X0138061Y0092863D02*
X0137393Y0092863D01*
X0137060Y0093197D01*
X0137060Y0093530D01*
X0137393Y0093864D01*
X0138061Y0093864D01*
X0138394Y0093530D01*
X0138394Y0093197D01*
X0138061Y0092863D01*
X0138061Y0093864D02*
X0138394Y0094197D01*
X0138394Y0094531D01*
X0138061Y0094865D01*
X0137393Y0094865D01*
X0137060Y0094531D01*
X0137060Y0094197D01*
X0137393Y0093864D01*
X0136184Y0093864D02*
X0135851Y0093530D01*
X0134850Y0093530D01*
X0134850Y0092863D02*
X0134850Y0094865D01*
X0135851Y0094865D01*
X0136184Y0094531D01*
X0136184Y0093864D01*
X0135517Y0093530D02*
X0136184Y0092863D01*
X0136284Y0097763D02*
X0135617Y0098430D01*
X0135951Y0098430D02*
X0134950Y0098430D01*
X0134950Y0097763D02*
X0134950Y0099765D01*
X0135951Y0099765D01*
X0136284Y0099431D01*
X0136284Y0098764D01*
X0135951Y0098430D01*
X0137160Y0098764D02*
X0137160Y0098097D01*
X0137493Y0097763D01*
X0138161Y0097763D01*
X0138494Y0098097D01*
X0138494Y0098430D01*
X0138161Y0098764D01*
X0137160Y0098764D01*
X0137827Y0099431D01*
X0138494Y0099765D01*
X0137060Y0102463D02*
X0137060Y0102797D01*
X0138394Y0104131D01*
X0138394Y0104465D01*
X0137060Y0104465D01*
X0136184Y0104131D02*
X0136184Y0103464D01*
X0135851Y0103130D01*
X0134850Y0103130D01*
X0134850Y0102463D02*
X0134850Y0104465D01*
X0135851Y0104465D01*
X0136184Y0104131D01*
X0135517Y0103130D02*
X0136184Y0102463D01*
X0144950Y0099765D02*
X0144950Y0097763D01*
X0144950Y0098430D02*
X0145951Y0098430D01*
X0146284Y0098764D01*
X0146284Y0099431D01*
X0145951Y0099765D01*
X0144950Y0099765D01*
X0145617Y0098430D02*
X0146284Y0097763D01*
X0147160Y0097763D02*
X0148494Y0097763D01*
X0147827Y0097763D02*
X0147827Y0099765D01*
X0147160Y0099097D01*
X0117650Y0088454D02*
X0117650Y0087787D01*
X0117316Y0087453D01*
X0116983Y0087453D01*
X0116649Y0087787D01*
X0116649Y0088454D01*
X0116983Y0088788D01*
X0117316Y0088788D01*
X0117650Y0088454D01*
X0116649Y0088454D02*
X0116316Y0088788D01*
X0115982Y0088788D01*
X0115648Y0088454D01*
X0115648Y0087787D01*
X0115982Y0087453D01*
X0116316Y0087453D01*
X0116649Y0087787D01*
X0115982Y0086578D02*
X0115648Y0086244D01*
X0115648Y0085577D01*
X0115982Y0085243D01*
X0117316Y0085243D01*
X0117650Y0085577D01*
X0117650Y0086244D01*
X0117316Y0086578D01*
X0115004Y0094563D02*
X0113670Y0094563D01*
X0115004Y0095897D01*
X0115004Y0096231D01*
X0114671Y0096565D01*
X0114003Y0096565D01*
X0113670Y0096231D01*
X0112127Y0096565D02*
X0112127Y0094563D01*
X0111460Y0094563D02*
X0112794Y0094563D01*
X0111460Y0095897D02*
X0112127Y0096565D01*
X0110584Y0096231D02*
X0110251Y0096565D01*
X0109584Y0096565D01*
X0109250Y0096231D01*
X0109250Y0094897D01*
X0109584Y0094563D01*
X0110251Y0094563D01*
X0110584Y0094897D01*
X0105604Y0094897D02*
X0105271Y0094563D01*
X0104603Y0094563D01*
X0104270Y0094897D01*
X0104270Y0095564D02*
X0104937Y0095897D01*
X0105271Y0095897D01*
X0105604Y0095564D01*
X0105604Y0094897D01*
X0104270Y0095564D02*
X0104270Y0096565D01*
X0105604Y0096565D01*
X0102727Y0096565D02*
X0102727Y0094563D01*
X0102060Y0094563D02*
X0103394Y0094563D01*
X0102060Y0095897D02*
X0102727Y0096565D01*
X0101184Y0096231D02*
X0100851Y0096565D01*
X0100184Y0096565D01*
X0099850Y0096231D01*
X0099850Y0094897D01*
X0100184Y0094563D01*
X0100851Y0094563D01*
X0101184Y0094897D01*
X0096316Y0089088D02*
X0096650Y0088754D01*
X0096650Y0088087D01*
X0096316Y0087753D01*
X0096650Y0086878D02*
X0096650Y0085543D01*
X0096650Y0086210D02*
X0094648Y0086210D01*
X0095316Y0085543D01*
X0094982Y0084668D02*
X0094648Y0084334D01*
X0094648Y0083667D01*
X0094982Y0083333D01*
X0096316Y0083333D01*
X0096650Y0083667D01*
X0096650Y0084334D01*
X0096316Y0084668D01*
X0094982Y0087753D02*
X0094648Y0088087D01*
X0094648Y0088754D01*
X0094982Y0089088D01*
X0095316Y0089088D01*
X0095649Y0088754D01*
X0095983Y0089088D01*
X0096316Y0089088D01*
X0095649Y0088754D02*
X0095649Y0088420D01*
X0086594Y0086164D02*
X0085260Y0086164D01*
X0086261Y0087165D01*
X0086261Y0085163D01*
X0084384Y0085163D02*
X0083717Y0085830D01*
X0084051Y0085830D02*
X0083050Y0085830D01*
X0083050Y0085163D02*
X0083050Y0087165D01*
X0084051Y0087165D01*
X0084384Y0086831D01*
X0084384Y0086164D01*
X0084051Y0085830D01*
X0072994Y0085830D02*
X0072661Y0086164D01*
X0071660Y0086164D01*
X0071660Y0085497D01*
X0071993Y0085163D01*
X0072661Y0085163D01*
X0072994Y0085497D01*
X0072994Y0085830D01*
X0072327Y0086831D02*
X0071660Y0086164D01*
X0072327Y0086831D02*
X0072994Y0087165D01*
X0070784Y0086831D02*
X0070451Y0087165D01*
X0069784Y0087165D01*
X0069450Y0086831D01*
X0069450Y0085497D01*
X0069784Y0085163D01*
X0070451Y0085163D01*
X0070784Y0085497D01*
X0070961Y0081365D02*
X0070293Y0081365D01*
X0069960Y0081031D01*
X0069084Y0081031D02*
X0068751Y0081365D01*
X0068084Y0081365D01*
X0067750Y0081031D01*
X0067750Y0079697D01*
X0068084Y0079363D01*
X0068751Y0079363D01*
X0069084Y0079697D01*
X0069960Y0079697D02*
X0070293Y0079363D01*
X0070961Y0079363D01*
X0071294Y0079697D01*
X0071294Y0080030D01*
X0070961Y0080364D01*
X0070627Y0080364D01*
X0070961Y0080364D02*
X0071294Y0080697D01*
X0071294Y0081031D01*
X0070961Y0081365D01*
X0063450Y0083663D02*
X0061448Y0083663D01*
X0061448Y0084664D01*
X0061782Y0084997D01*
X0062449Y0084997D01*
X0062783Y0084664D01*
X0062783Y0083663D01*
X0062783Y0084330D02*
X0063450Y0084997D01*
X0063116Y0085873D02*
X0063450Y0086206D01*
X0063450Y0086874D01*
X0063116Y0087207D01*
X0062783Y0087207D01*
X0062449Y0086874D01*
X0062449Y0086540D01*
X0062449Y0086874D02*
X0062116Y0087207D01*
X0061782Y0087207D01*
X0061448Y0086874D01*
X0061448Y0086206D01*
X0061782Y0085873D01*
X0059719Y0091645D02*
X0057718Y0091645D01*
X0057718Y0092646D01*
X0058051Y0092979D01*
X0058718Y0092979D01*
X0059052Y0092646D01*
X0059052Y0091645D01*
X0059052Y0092312D02*
X0059719Y0092979D01*
X0059386Y0093855D02*
X0059719Y0094188D01*
X0059719Y0094856D01*
X0059386Y0095189D01*
X0058718Y0095189D01*
X0058385Y0094856D01*
X0058385Y0094522D01*
X0058718Y0093855D01*
X0057718Y0093855D01*
X0057718Y0095189D01*
X0027704Y0078365D02*
X0026370Y0078365D01*
X0026370Y0077364D01*
X0027037Y0077697D01*
X0027371Y0077697D01*
X0027704Y0077364D01*
X0027704Y0076697D01*
X0027371Y0076363D01*
X0026703Y0076363D01*
X0026370Y0076697D01*
X0025494Y0076697D02*
X0025161Y0076363D01*
X0024493Y0076363D01*
X0024160Y0076697D01*
X0023284Y0076697D02*
X0022951Y0076363D01*
X0022284Y0076363D01*
X0021950Y0076697D01*
X0021950Y0078031D01*
X0022284Y0078365D01*
X0022951Y0078365D01*
X0023284Y0078031D01*
X0024160Y0078031D02*
X0024493Y0078365D01*
X0025161Y0078365D01*
X0025494Y0078031D01*
X0025494Y0077697D01*
X0025161Y0077364D01*
X0025494Y0077030D01*
X0025494Y0076697D01*
X0025161Y0077364D02*
X0024827Y0077364D01*
X0024593Y0073265D02*
X0025261Y0073265D01*
X0025594Y0072931D01*
X0025594Y0072597D01*
X0025261Y0072264D01*
X0025594Y0071930D01*
X0025594Y0071597D01*
X0025261Y0071263D01*
X0024593Y0071263D01*
X0024260Y0071597D01*
X0023384Y0071597D02*
X0023051Y0071263D01*
X0022384Y0071263D01*
X0022050Y0071597D01*
X0022050Y0072931D01*
X0022384Y0073265D01*
X0023051Y0073265D01*
X0023384Y0072931D01*
X0024260Y0072931D02*
X0024593Y0073265D01*
X0024927Y0072264D02*
X0025261Y0072264D01*
X0026470Y0072931D02*
X0026803Y0073265D01*
X0027471Y0073265D01*
X0027804Y0072931D01*
X0027804Y0072597D01*
X0026470Y0071263D01*
X0027804Y0071263D01*
X0037374Y0069084D02*
X0037374Y0068416D01*
X0037708Y0068083D01*
X0039042Y0068083D01*
X0037708Y0069417D01*
X0039042Y0069417D01*
X0039376Y0069084D01*
X0039376Y0068416D01*
X0039042Y0068083D01*
X0039042Y0067207D02*
X0039376Y0066874D01*
X0039376Y0066206D01*
X0039042Y0065873D01*
X0039042Y0064997D02*
X0039376Y0064664D01*
X0039376Y0063997D01*
X0039042Y0063663D01*
X0037708Y0063663D01*
X0037374Y0063997D01*
X0037374Y0064664D01*
X0037708Y0064997D01*
X0037708Y0065873D02*
X0037374Y0066206D01*
X0037374Y0066874D01*
X0037708Y0067207D01*
X0038042Y0067207D01*
X0038375Y0066874D01*
X0038709Y0067207D01*
X0039042Y0067207D01*
X0038375Y0066874D02*
X0038375Y0066540D01*
X0037374Y0069084D02*
X0037708Y0069417D01*
X0017620Y0068486D02*
X0017287Y0068820D01*
X0016619Y0068820D01*
X0016286Y0068486D01*
X0015410Y0068820D02*
X0015410Y0067152D01*
X0015077Y0066818D01*
X0014410Y0066818D01*
X0014076Y0067152D01*
X0014076Y0068820D01*
X0016286Y0066818D02*
X0017620Y0068153D01*
X0017620Y0068486D01*
X0017620Y0066818D02*
X0016286Y0066818D01*
X0010871Y0059965D02*
X0010203Y0059965D01*
X0009870Y0059631D01*
X0008994Y0059631D02*
X0008661Y0059965D01*
X0007993Y0059965D01*
X0007660Y0059631D01*
X0006784Y0059631D02*
X0006451Y0059965D01*
X0005784Y0059965D01*
X0005450Y0059631D01*
X0005450Y0058297D01*
X0005784Y0057963D01*
X0006451Y0057963D01*
X0006784Y0058297D01*
X0007660Y0058297D02*
X0007993Y0057963D01*
X0008661Y0057963D01*
X0008994Y0058297D01*
X0008994Y0058630D01*
X0008661Y0058964D01*
X0008327Y0058964D01*
X0008661Y0058964D02*
X0008994Y0059297D01*
X0008994Y0059631D01*
X0009870Y0058297D02*
X0010203Y0057963D01*
X0010871Y0057963D01*
X0011204Y0058297D01*
X0011204Y0058630D01*
X0010871Y0058964D01*
X0010537Y0058964D01*
X0010871Y0058964D02*
X0011204Y0059297D01*
X0011204Y0059631D01*
X0010871Y0059965D01*
X0033950Y0046331D02*
X0034284Y0046665D01*
X0034951Y0046665D01*
X0035284Y0046331D01*
X0036160Y0046331D02*
X0036493Y0046665D01*
X0037161Y0046665D01*
X0037494Y0046331D01*
X0037494Y0045997D01*
X0037161Y0045664D01*
X0037494Y0045330D01*
X0037494Y0044997D01*
X0037161Y0044663D01*
X0036493Y0044663D01*
X0036160Y0044997D01*
X0035284Y0044997D02*
X0034951Y0044663D01*
X0034284Y0044663D01*
X0033950Y0044997D01*
X0033950Y0046331D01*
X0036827Y0045664D02*
X0037161Y0045664D01*
X0038370Y0045664D02*
X0039371Y0046665D01*
X0039371Y0044663D01*
X0039704Y0045664D02*
X0038370Y0045664D01*
X0048955Y0044577D02*
X0048955Y0042909D01*
X0049288Y0042576D01*
X0049955Y0042576D01*
X0050289Y0042909D01*
X0050289Y0044577D01*
X0051165Y0044244D02*
X0051498Y0044577D01*
X0052165Y0044577D01*
X0052499Y0044244D01*
X0052499Y0043910D01*
X0052165Y0043576D01*
X0052499Y0043243D01*
X0052499Y0042909D01*
X0052165Y0042576D01*
X0051498Y0042576D01*
X0051165Y0042909D01*
X0051832Y0043576D02*
X0052165Y0043576D01*
X0068469Y0036906D02*
X0068469Y0035572D01*
X0068803Y0035238D01*
X0069470Y0035238D01*
X0069803Y0035572D01*
X0069803Y0036239D01*
X0069136Y0036239D01*
X0068469Y0036906D02*
X0068803Y0037240D01*
X0069470Y0037240D01*
X0069803Y0036906D01*
X0070679Y0037240D02*
X0071346Y0037240D01*
X0071012Y0037240D02*
X0071012Y0035238D01*
X0070679Y0035238D02*
X0071346Y0035238D01*
X0072152Y0035238D02*
X0073487Y0036573D01*
X0073487Y0036906D01*
X0073153Y0037240D01*
X0072486Y0037240D01*
X0072152Y0036906D01*
X0072152Y0035238D02*
X0073487Y0035238D01*
X0073293Y0042115D02*
X0073961Y0042115D01*
X0074294Y0042449D01*
X0074294Y0043783D01*
X0073961Y0044117D01*
X0073293Y0044117D01*
X0072960Y0043783D01*
X0072960Y0043449D01*
X0073293Y0043116D01*
X0074294Y0043116D01*
X0073293Y0042115D02*
X0072960Y0042449D01*
X0072084Y0042449D02*
X0071751Y0042115D01*
X0071084Y0042115D01*
X0070750Y0042449D01*
X0070750Y0043783D01*
X0071084Y0044117D01*
X0071751Y0044117D01*
X0072084Y0043783D01*
X0071751Y0054315D02*
X0072084Y0054649D01*
X0071751Y0054315D02*
X0071084Y0054315D01*
X0070750Y0054649D01*
X0070750Y0055983D01*
X0071084Y0056317D01*
X0071751Y0056317D01*
X0072084Y0055983D01*
X0072960Y0055649D02*
X0073627Y0056317D01*
X0073627Y0054315D01*
X0072960Y0054315D02*
X0074294Y0054315D01*
X0075170Y0054649D02*
X0076504Y0055983D01*
X0076504Y0054649D01*
X0076171Y0054315D01*
X0075503Y0054315D01*
X0075170Y0054649D01*
X0075170Y0055983D01*
X0075503Y0056317D01*
X0076171Y0056317D01*
X0076504Y0055983D01*
X0078782Y0064263D02*
X0080116Y0064263D01*
X0080450Y0064597D01*
X0080450Y0065264D01*
X0080116Y0065597D01*
X0080450Y0066473D02*
X0080450Y0067807D01*
X0080450Y0067140D02*
X0078448Y0067140D01*
X0079116Y0066473D01*
X0078782Y0065597D02*
X0078448Y0065264D01*
X0078448Y0064597D01*
X0078782Y0064263D01*
X0068250Y0064597D02*
X0067916Y0064263D01*
X0066582Y0064263D01*
X0066248Y0064597D01*
X0066248Y0065264D01*
X0066582Y0065597D01*
X0066582Y0066473D02*
X0066248Y0066806D01*
X0066248Y0067474D01*
X0066582Y0067807D01*
X0066916Y0067807D01*
X0068250Y0066473D01*
X0068250Y0067807D01*
X0067916Y0065597D02*
X0068250Y0065264D01*
X0068250Y0064597D01*
X0061575Y0071782D02*
X0060240Y0071782D01*
X0059573Y0072449D01*
X0060240Y0073116D01*
X0061575Y0073116D01*
X0061575Y0073992D02*
X0061575Y0074659D01*
X0061575Y0074325D02*
X0059573Y0074325D01*
X0059573Y0073992D02*
X0059573Y0074659D01*
X0059907Y0075465D02*
X0059573Y0075799D01*
X0059573Y0076466D01*
X0059907Y0076799D01*
X0060240Y0076799D01*
X0061575Y0075465D01*
X0061575Y0076799D01*
X0060574Y0073116D02*
X0060574Y0071782D01*
X0023602Y0082941D02*
X0023602Y0083275D01*
X0023268Y0083608D01*
X0021600Y0083608D01*
X0021600Y0083275D02*
X0021600Y0083942D01*
X0021600Y0084817D02*
X0021600Y0086152D01*
X0021600Y0085485D02*
X0023602Y0085485D01*
X0023602Y0087027D02*
X0022267Y0087027D01*
X0021600Y0087695D01*
X0022267Y0088362D01*
X0023602Y0088362D01*
X0023268Y0089237D02*
X0023602Y0089571D01*
X0023602Y0090238D01*
X0023268Y0090572D01*
X0022601Y0090572D01*
X0022601Y0089904D01*
X0021933Y0089237D02*
X0023268Y0089237D01*
X0022601Y0088362D02*
X0022601Y0087027D01*
X0021933Y0089237D02*
X0021600Y0089571D01*
X0021600Y0090238D01*
X0021933Y0090572D01*
X0023602Y0082941D02*
X0023268Y0082608D01*
X0094244Y0104501D02*
X0094244Y0106502D01*
X0095245Y0106502D01*
X0095579Y0106169D01*
X0095579Y0105502D01*
X0095245Y0105168D01*
X0094244Y0105168D01*
X0094911Y0105168D02*
X0095579Y0104501D01*
X0096454Y0104501D02*
X0097789Y0104501D01*
X0098664Y0104834D02*
X0098998Y0104501D01*
X0099665Y0104501D01*
X0099998Y0104834D01*
X0099998Y0105168D01*
X0099665Y0105502D01*
X0098998Y0105502D01*
X0098664Y0105835D01*
X0098664Y0106169D01*
X0098998Y0106502D01*
X0099665Y0106502D01*
X0099998Y0106169D01*
X0100874Y0106502D02*
X0100874Y0104501D01*
X0102208Y0104501D01*
X0101541Y0105502D02*
X0100874Y0105502D01*
X0100874Y0106502D02*
X0102208Y0106502D01*
X0103084Y0106502D02*
X0104418Y0106502D01*
X0103751Y0106502D02*
X0103751Y0104501D01*
X0097789Y0106502D02*
X0096454Y0106502D01*
X0096454Y0104501D01*
X0096454Y0105502D02*
X0097121Y0105502D01*
X0021050Y0037017D02*
X0021050Y0035683D01*
X0021050Y0036350D02*
X0019048Y0036350D01*
X0019716Y0035683D01*
X0021050Y0034807D02*
X0021050Y0033473D01*
X0021050Y0034140D02*
X0019048Y0034140D01*
X0019716Y0033473D01*
X0019382Y0032597D02*
X0020049Y0032597D01*
X0020383Y0032264D01*
X0020383Y0031263D01*
X0021050Y0031263D02*
X0019048Y0031263D01*
X0019048Y0032264D01*
X0019382Y0032597D01*
X0020383Y0031930D02*
X0021050Y0032597D01*
X0024250Y0032997D02*
X0024250Y0034331D01*
X0024584Y0034665D01*
X0025251Y0034665D01*
X0025584Y0034331D01*
X0026460Y0034331D02*
X0026793Y0034665D01*
X0027461Y0034665D01*
X0027794Y0034331D01*
X0027794Y0033997D01*
X0027461Y0033664D01*
X0027794Y0033330D01*
X0027794Y0032997D01*
X0027461Y0032663D01*
X0026793Y0032663D01*
X0026460Y0032997D01*
X0025584Y0032997D02*
X0025251Y0032663D01*
X0024584Y0032663D01*
X0024250Y0032997D01*
X0027127Y0033664D02*
X0027461Y0033664D01*
X0028670Y0033997D02*
X0029337Y0034665D01*
X0029337Y0032663D01*
X0028670Y0032663D02*
X0030004Y0032663D01*
X0008350Y0032597D02*
X0007683Y0031930D01*
X0007683Y0032264D02*
X0007683Y0031263D01*
X0008350Y0031263D02*
X0006348Y0031263D01*
X0006348Y0032264D01*
X0006682Y0032597D01*
X0007349Y0032597D01*
X0007683Y0032264D01*
X0008350Y0033473D02*
X0008350Y0034807D01*
X0008350Y0034140D02*
X0006348Y0034140D01*
X0007016Y0033473D01*
X0006682Y0035683D02*
X0006348Y0036016D01*
X0006348Y0036684D01*
X0006682Y0037017D01*
X0008016Y0035683D01*
X0008350Y0036016D01*
X0008350Y0036684D01*
X0008016Y0037017D01*
X0006682Y0037017D01*
X0006682Y0035683D02*
X0008016Y0035683D01*
X0097450Y0020331D02*
X0097450Y0018997D01*
X0097784Y0018663D01*
X0098451Y0018663D01*
X0098784Y0018997D01*
X0099660Y0018663D02*
X0100994Y0018663D01*
X0100327Y0018663D02*
X0100327Y0020665D01*
X0099660Y0019997D01*
X0098784Y0020331D02*
X0098451Y0020665D01*
X0097784Y0020665D01*
X0097450Y0020331D01*
X0101870Y0019664D02*
X0101870Y0018997D01*
X0102203Y0018663D01*
X0102871Y0018663D01*
X0103204Y0018997D01*
X0103204Y0019330D01*
X0102871Y0019664D01*
X0101870Y0019664D01*
X0102537Y0020331D01*
X0103204Y0020665D01*
X0102927Y0024863D02*
X0102927Y0026865D01*
X0102260Y0026197D01*
X0101384Y0026531D02*
X0101051Y0026865D01*
X0100384Y0026865D01*
X0100050Y0026531D01*
X0100050Y0025197D01*
X0100384Y0024863D01*
X0101051Y0024863D01*
X0101384Y0025197D01*
X0102260Y0024863D02*
X0103594Y0024863D01*
X0104470Y0025864D02*
X0105804Y0025864D01*
X0105471Y0024863D02*
X0105471Y0026865D01*
X0104470Y0025864D01*
X0114730Y0011565D02*
X0115731Y0011565D01*
X0116065Y0011231D01*
X0116065Y0010564D01*
X0115731Y0010230D01*
X0114730Y0010230D01*
X0114730Y0009563D02*
X0114730Y0011565D01*
X0115397Y0010230D02*
X0116065Y0009563D01*
X0116940Y0009897D02*
X0117274Y0009563D01*
X0117941Y0009563D01*
X0118275Y0009897D01*
X0118275Y0011231D01*
X0117941Y0011565D01*
X0117274Y0011565D01*
X0116940Y0011231D01*
X0116940Y0010897D01*
X0117274Y0010564D01*
X0118275Y0010564D01*
X0120750Y0010631D02*
X0120750Y0009297D01*
X0121084Y0008963D01*
X0121751Y0008963D01*
X0122084Y0009297D01*
X0122960Y0008963D02*
X0124294Y0010297D01*
X0124294Y0010631D01*
X0123961Y0010965D01*
X0123293Y0010965D01*
X0122960Y0010631D01*
X0122084Y0010631D02*
X0121751Y0010965D01*
X0121084Y0010965D01*
X0120750Y0010631D01*
X0122960Y0008963D02*
X0124294Y0008963D01*
X0125170Y0008963D02*
X0126504Y0008963D01*
X0125837Y0008963D02*
X0125837Y0010965D01*
X0125170Y0010297D01*
X0145150Y0008731D02*
X0145150Y0007397D01*
X0145484Y0007063D01*
X0146151Y0007063D01*
X0146484Y0007397D01*
X0147360Y0007063D02*
X0148694Y0008397D01*
X0148694Y0008731D01*
X0148361Y0009065D01*
X0147693Y0009065D01*
X0147360Y0008731D01*
X0146484Y0008731D02*
X0146151Y0009065D01*
X0145484Y0009065D01*
X0145150Y0008731D01*
X0147360Y0007063D02*
X0148694Y0007063D01*
X0149570Y0007063D02*
X0150904Y0008397D01*
X0150904Y0008731D01*
X0150571Y0009065D01*
X0149903Y0009065D01*
X0149570Y0008731D01*
X0149570Y0007063D02*
X0150904Y0007063D01*
X0156848Y0011597D02*
X0157182Y0011263D01*
X0158516Y0011263D01*
X0158850Y0011597D01*
X0158850Y0012264D01*
X0158516Y0012597D01*
X0158850Y0013473D02*
X0157516Y0014807D01*
X0157182Y0014807D01*
X0156848Y0014474D01*
X0156848Y0013806D01*
X0157182Y0013473D01*
X0157182Y0012597D02*
X0156848Y0012264D01*
X0156848Y0011597D01*
X0158850Y0013473D02*
X0158850Y0014807D01*
X0157849Y0015683D02*
X0157849Y0017017D01*
X0156848Y0016684D02*
X0157849Y0015683D01*
X0158850Y0016684D02*
X0156848Y0016684D01*
X0150194Y0026863D02*
X0148860Y0026863D01*
X0149527Y0026863D02*
X0149527Y0028865D01*
X0148860Y0028197D01*
X0147984Y0028865D02*
X0147984Y0027197D01*
X0147651Y0026863D01*
X0146984Y0026863D01*
X0146650Y0027197D01*
X0146650Y0028865D01*
X0144161Y0032763D02*
X0144161Y0034765D01*
X0143160Y0033764D01*
X0144494Y0033764D01*
X0142284Y0034431D02*
X0141951Y0034765D01*
X0141284Y0034765D01*
X0140950Y0034431D01*
X0140950Y0033097D01*
X0141284Y0032763D01*
X0141951Y0032763D01*
X0142284Y0033097D01*
X0135304Y0028131D02*
X0134971Y0028465D01*
X0134303Y0028465D01*
X0133970Y0028131D01*
X0133970Y0026797D01*
X0135304Y0028131D01*
X0135304Y0026797D01*
X0134971Y0026463D01*
X0134303Y0026463D01*
X0133970Y0026797D01*
X0133094Y0026463D02*
X0131760Y0026463D01*
X0133094Y0027797D01*
X0133094Y0028131D01*
X0132761Y0028465D01*
X0132093Y0028465D01*
X0131760Y0028131D01*
X0130884Y0028131D02*
X0130551Y0028465D01*
X0129884Y0028465D01*
X0129550Y0028131D01*
X0129550Y0026797D01*
X0129884Y0026463D01*
X0130551Y0026463D01*
X0130884Y0026797D01*
X0154050Y0033197D02*
X0154384Y0032863D01*
X0155051Y0032863D01*
X0155384Y0033197D01*
X0156260Y0033197D02*
X0156593Y0032863D01*
X0157261Y0032863D01*
X0157594Y0033197D01*
X0157594Y0033864D01*
X0157261Y0034197D01*
X0156927Y0034197D01*
X0156260Y0033864D01*
X0156260Y0034865D01*
X0157594Y0034865D01*
X0160750Y0034431D02*
X0160750Y0033097D01*
X0161084Y0032763D01*
X0161751Y0032763D01*
X0162084Y0033097D01*
X0162960Y0032763D02*
X0164294Y0034097D01*
X0164294Y0034431D01*
X0163961Y0034765D01*
X0163293Y0034765D01*
X0162960Y0034431D01*
X0162084Y0034431D02*
X0161751Y0034765D01*
X0161084Y0034765D01*
X0160750Y0034431D01*
X0162960Y0032763D02*
X0164294Y0032763D01*
X0165170Y0033097D02*
X0165503Y0032763D01*
X0166171Y0032763D01*
X0166504Y0033097D01*
X0166504Y0033430D01*
X0166171Y0033764D01*
X0165837Y0033764D01*
X0166171Y0033764D02*
X0166504Y0034097D01*
X0166504Y0034431D01*
X0166171Y0034765D01*
X0165503Y0034765D01*
X0165170Y0034431D01*
X0155384Y0034531D02*
X0155051Y0034865D01*
X0154384Y0034865D01*
X0154050Y0034531D01*
X0154050Y0033197D01*
X0103604Y0010631D02*
X0103604Y0009297D01*
X0103271Y0008963D01*
X0102270Y0008963D01*
X0102270Y0010965D01*
X0103271Y0010965D01*
X0103604Y0010631D01*
X0101394Y0010965D02*
X0100060Y0010965D01*
X0100060Y0008963D01*
X0101394Y0008963D01*
X0100727Y0009964D02*
X0100060Y0009964D01*
X0099184Y0008963D02*
X0097850Y0008963D01*
X0097850Y0010965D01*
D16*
X0054456Y0033672D03*
X0051076Y0038529D03*
X0158752Y0060933D03*
X0158892Y0060933D03*
X0159132Y0060933D03*
X0158132Y0070219D03*
D17*
X0054461Y0033720D03*
X0053171Y0039339D03*
D18*
X0054431Y0033767D03*
D19*
X0054431Y0033815D03*
D20*
X0054411Y0033862D03*
D21*
X0054411Y0033910D03*
X0053311Y0039577D03*
D22*
X0053386Y0039672D03*
X0054386Y0033958D03*
D23*
X0054381Y0034005D03*
D24*
X0054361Y0034053D03*
X0057361Y0036910D03*
X0164227Y0062838D03*
D25*
X0163342Y0066219D03*
X0057386Y0036958D03*
X0054336Y0034101D03*
X0053056Y0042529D03*
D26*
X0054361Y0034148D03*
D27*
X0054336Y0034196D03*
D28*
X0054286Y0034243D03*
D29*
X0054291Y0034291D03*
D30*
X0054266Y0034339D03*
X0055126Y0036196D03*
X0055266Y0036720D03*
X0055316Y0036910D03*
X0055316Y0037053D03*
D31*
X0055266Y0038386D03*
X0054266Y0034386D03*
X0053456Y0042243D03*
D32*
X0055006Y0039434D03*
X0054626Y0035053D03*
X0054246Y0034434D03*
D33*
X0054241Y0034481D03*
X0054861Y0039767D03*
D34*
X0054266Y0034529D03*
D35*
X0054291Y0034577D03*
D36*
X0054336Y0034624D03*
D37*
X0054386Y0034672D03*
D38*
X0054411Y0034720D03*
X0054551Y0034910D03*
X0055071Y0039196D03*
X0055031Y0039339D03*
X0054931Y0039577D03*
X0054881Y0039720D03*
D39*
X0054931Y0039624D03*
X0054981Y0039481D03*
X0054601Y0035005D03*
X0054501Y0034862D03*
X0054461Y0034767D03*
X0163037Y0065886D03*
D40*
X0054481Y0034815D03*
D41*
X0054576Y0034958D03*
X0055146Y0038958D03*
X0055096Y0039101D03*
D42*
X0054671Y0035101D03*
D43*
X0054696Y0035148D03*
X0054886Y0035481D03*
D44*
X0054766Y0035291D03*
X0054716Y0035196D03*
D45*
X0054741Y0035243D03*
D46*
X0054791Y0035339D03*
D47*
X0054836Y0035386D03*
D48*
X0054836Y0035434D03*
D49*
X0054886Y0035529D03*
D50*
X0054911Y0035577D03*
D51*
X0054931Y0035624D03*
X0055311Y0038148D03*
X0055171Y0038862D03*
D52*
X0055336Y0037958D03*
X0055336Y0037815D03*
X0055336Y0037672D03*
X0055336Y0037529D03*
X0054956Y0035672D03*
D53*
X0055001Y0035720D03*
X0055051Y0035910D03*
X0055101Y0036053D03*
X0055291Y0038339D03*
D54*
X0055001Y0035767D03*
D55*
X0055001Y0035815D03*
X0158917Y0072219D03*
D56*
X0055316Y0037148D03*
X0055316Y0037005D03*
X0055316Y0036862D03*
X0055216Y0036481D03*
X0055126Y0036148D03*
X0055076Y0036005D03*
X0055026Y0035862D03*
D57*
X0055076Y0035958D03*
X0055126Y0036101D03*
X0055316Y0036958D03*
D58*
X0055361Y0037386D03*
X0055171Y0036243D03*
D59*
X0055171Y0036291D03*
X0055171Y0036339D03*
X0055361Y0037291D03*
X0055361Y0037434D03*
D60*
X0055191Y0036386D03*
D61*
X0055191Y0036434D03*
X0055241Y0036577D03*
X0055341Y0037196D03*
X0053381Y0042291D03*
D62*
X0055341Y0037101D03*
X0055291Y0036815D03*
X0055241Y0036672D03*
X0055241Y0036529D03*
D63*
X0055241Y0036624D03*
X0055291Y0036767D03*
D64*
X0051621Y0036815D03*
D65*
X0057286Y0036815D03*
D66*
X0051576Y0036862D03*
D67*
X0057316Y0036862D03*
D68*
X0051526Y0036910D03*
D69*
X0051501Y0036958D03*
D70*
X0051481Y0037005D03*
D71*
X0057411Y0037005D03*
D72*
X0051456Y0037053D03*
X0051456Y0038339D03*
D73*
X0057456Y0038196D03*
X0057456Y0037053D03*
X0163322Y0066171D03*
D74*
X0051431Y0037101D03*
D75*
X0057456Y0037101D03*
D76*
X0051406Y0037148D03*
D77*
X0057481Y0037148D03*
X0057481Y0038148D03*
X0163247Y0066124D03*
X0164057Y0062981D03*
D78*
X0162412Y0063171D03*
X0051406Y0038196D03*
X0051406Y0037196D03*
D79*
X0057481Y0037196D03*
D80*
X0051406Y0037243D03*
X0051406Y0038243D03*
D81*
X0055316Y0037243D03*
D82*
X0057506Y0037243D03*
D83*
X0051381Y0037291D03*
X0051381Y0037339D03*
X0051381Y0038053D03*
D84*
X0057506Y0038053D03*
X0057506Y0037291D03*
D85*
X0055336Y0037339D03*
X0055336Y0037577D03*
X0055336Y0037720D03*
X0055336Y0037910D03*
D86*
X0057526Y0037910D03*
X0057526Y0037577D03*
X0057526Y0037434D03*
X0057526Y0037339D03*
X0164012Y0063028D03*
D87*
X0158867Y0061362D03*
X0051381Y0037386D03*
D88*
X0057526Y0037386D03*
D89*
X0051361Y0037434D03*
X0051361Y0037577D03*
X0051361Y0037720D03*
X0051361Y0037910D03*
D90*
X0051361Y0037862D03*
X0051361Y0037767D03*
X0051361Y0037624D03*
X0051361Y0037481D03*
X0051361Y0038005D03*
D91*
X0055361Y0037481D03*
D92*
X0057526Y0037481D03*
X0057526Y0037624D03*
X0057526Y0037767D03*
X0057526Y0037862D03*
X0057526Y0038005D03*
D93*
X0051361Y0037958D03*
X0051361Y0037815D03*
X0051361Y0037672D03*
X0051361Y0037529D03*
D94*
X0057551Y0037529D03*
X0057551Y0037672D03*
X0057551Y0037815D03*
X0163937Y0063076D03*
X0163227Y0066076D03*
D95*
X0055336Y0038005D03*
X0055336Y0037862D03*
X0055336Y0037767D03*
X0055336Y0037624D03*
D96*
X0057551Y0037720D03*
D97*
X0057526Y0037958D03*
D98*
X0055311Y0038053D03*
X0055311Y0038196D03*
X0055311Y0038291D03*
X0055221Y0038720D03*
X0055171Y0038910D03*
X0055121Y0039053D03*
D99*
X0051381Y0038101D03*
D100*
X0055171Y0038815D03*
X0055221Y0038672D03*
X0055311Y0038101D03*
D101*
X0057506Y0038101D03*
D102*
X0051381Y0038148D03*
D103*
X0055311Y0038243D03*
D104*
X0057456Y0038243D03*
D105*
X0051431Y0038291D03*
D106*
X0057431Y0038291D03*
D107*
X0057411Y0038339D03*
D108*
X0051456Y0038386D03*
D109*
X0057386Y0038386D03*
D110*
X0051501Y0038434D03*
X0158847Y0061314D03*
D111*
X0055266Y0038577D03*
X0055266Y0038434D03*
D112*
X0057361Y0038434D03*
D113*
X0051551Y0038481D03*
D114*
X0055266Y0038481D03*
D115*
X0057411Y0038481D03*
D116*
X0049791Y0038529D03*
D117*
X0050051Y0038529D03*
D118*
X0050191Y0038529D03*
X0050291Y0038529D03*
X0050481Y0038529D03*
X0050861Y0038529D03*
X0053531Y0038529D03*
X0158487Y0060933D03*
X0159247Y0060933D03*
X0159107Y0062933D03*
X0158967Y0062933D03*
X0158867Y0062933D03*
X0157487Y0070076D03*
D119*
X0158012Y0072219D03*
X0159822Y0072219D03*
X0159012Y0060933D03*
X0050956Y0038529D03*
X0050386Y0038529D03*
D120*
X0050671Y0038529D03*
D121*
X0051526Y0038529D03*
D122*
X0052031Y0038529D03*
D123*
X0052266Y0038529D03*
D124*
X0052551Y0038529D03*
D125*
X0053031Y0038529D03*
X0164467Y0062647D03*
D126*
X0053411Y0038529D03*
D127*
X0055266Y0038529D03*
D128*
X0055246Y0038624D03*
X0055196Y0038767D03*
X0055146Y0039005D03*
X0055096Y0039148D03*
D129*
X0053101Y0039196D03*
X0157677Y0072171D03*
D130*
X0053121Y0039243D03*
D131*
X0055051Y0039243D03*
D132*
X0053146Y0039291D03*
X0052576Y0042910D03*
D133*
X0055051Y0039291D03*
D134*
X0053221Y0039386D03*
X0164607Y0062505D03*
D135*
X0055031Y0039386D03*
D136*
X0053216Y0039434D03*
X0164562Y0062552D03*
D137*
X0053241Y0039481D03*
D138*
X0053266Y0039529D03*
D139*
X0054881Y0039672D03*
X0054981Y0039529D03*
D140*
X0053336Y0039624D03*
D141*
X0053381Y0039720D03*
D142*
X0053406Y0039767D03*
D143*
X0054361Y0039815D03*
D144*
X0054361Y0039862D03*
X0054171Y0041005D03*
D145*
X0054361Y0039910D03*
D146*
X0054336Y0039958D03*
X0054146Y0040958D03*
D147*
X0054316Y0040005D03*
D148*
X0054291Y0040053D03*
D149*
X0054291Y0040101D03*
D150*
X0054266Y0040148D03*
D151*
X0054266Y0040196D03*
D152*
X0054246Y0040243D03*
X0054196Y0040386D03*
D153*
X0054221Y0040291D03*
D154*
X0054196Y0040339D03*
X0054196Y0040434D03*
X0162722Y0065552D03*
D155*
X0054171Y0040481D03*
X0054121Y0040624D03*
D156*
X0054171Y0040529D03*
D157*
X0054146Y0040577D03*
D158*
X0054101Y0040672D03*
X0158867Y0061076D03*
D159*
X0054101Y0040720D03*
D160*
X0054076Y0040767D03*
X0054076Y0040862D03*
X0162752Y0065600D03*
D161*
X0054051Y0040815D03*
D162*
X0054121Y0040910D03*
D163*
X0054191Y0041053D03*
X0162627Y0065457D03*
D164*
X0054216Y0041101D03*
D165*
X0054266Y0041148D03*
D166*
X0054286Y0041196D03*
X0054196Y0041720D03*
X0161962Y0070028D03*
D167*
X0162557Y0065362D03*
X0054311Y0041243D03*
D168*
X0054341Y0041291D03*
D169*
X0054361Y0041339D03*
D170*
X0054386Y0041386D03*
D171*
X0054436Y0041434D03*
X0054386Y0041577D03*
X0161682Y0070171D03*
D172*
X0054481Y0041481D03*
D173*
X0054456Y0041529D03*
D174*
X0054316Y0041624D03*
D175*
X0054266Y0041672D03*
D176*
X0054146Y0041767D03*
D177*
X0054076Y0041815D03*
X0155462Y0069790D03*
D178*
X0162342Y0069743D03*
X0155392Y0063600D03*
X0054006Y0041862D03*
D179*
X0053931Y0041910D03*
D180*
X0053861Y0041958D03*
X0155107Y0063933D03*
D181*
X0053791Y0042005D03*
D182*
X0053716Y0042053D03*
D183*
X0053671Y0042101D03*
X0154297Y0065790D03*
X0154297Y0065933D03*
X0154347Y0065647D03*
X0154247Y0066219D03*
X0154297Y0067647D03*
X0154347Y0067790D03*
X0162967Y0065790D03*
X0163347Y0067647D03*
X0163297Y0067933D03*
X0163247Y0068076D03*
D184*
X0053601Y0042148D03*
D185*
X0053526Y0042196D03*
X0163012Y0065838D03*
D186*
X0053336Y0042339D03*
D187*
X0053266Y0042386D03*
D188*
X0053216Y0042434D03*
D189*
X0053126Y0042481D03*
D190*
X0052981Y0042577D03*
D191*
X0052981Y0042624D03*
X0163417Y0066267D03*
D192*
X0052911Y0042672D03*
D193*
X0052841Y0042720D03*
D194*
X0052791Y0042767D03*
D195*
X0052721Y0042815D03*
D196*
X0052626Y0042862D03*
D197*
X0059220Y0044943D03*
D198*
X0059267Y0044893D03*
D199*
X0059315Y0044823D03*
X0062696Y0044303D03*
D200*
X0059363Y0044753D03*
D201*
X0059410Y0044703D03*
D202*
X0059458Y0044613D03*
D203*
X0059505Y0044563D03*
D204*
X0059553Y0044493D03*
X0065172Y0040203D03*
D205*
X0059601Y0044443D03*
D206*
X0059648Y0044373D03*
D207*
X0059696Y0044328D03*
D208*
X0059743Y0044233D03*
X0067743Y0043183D03*
D209*
X0059791Y0044158D03*
D210*
X0059839Y0044088D03*
X0064839Y0042178D03*
X0064982Y0042178D03*
X0065172Y0042178D03*
X0065315Y0042228D03*
X0065458Y0042228D03*
X0065553Y0042278D03*
X0065601Y0042278D03*
X0065696Y0042328D03*
D211*
X0063743Y0042228D03*
X0063410Y0042278D03*
X0059886Y0044038D03*
D212*
X0059934Y0043968D03*
X0067220Y0043018D03*
D213*
X0059982Y0043898D03*
D214*
X0060029Y0043848D03*
D215*
X0060077Y0043753D03*
D216*
X0060124Y0043703D03*
D217*
X0060172Y0043633D03*
D218*
X0060220Y0043588D03*
D219*
X0060267Y0043513D03*
X0061743Y0043273D03*
D220*
X0060315Y0043418D03*
D221*
X0060363Y0043368D03*
D222*
X0060410Y0043298D03*
D223*
X0060458Y0043253D03*
D224*
X0060505Y0043178D03*
D225*
X0060553Y0043108D03*
D226*
X0060601Y0043063D03*
D227*
X0060648Y0043043D03*
D228*
X0060696Y0043063D03*
D229*
X0060743Y0043088D03*
D230*
X0060791Y0043138D03*
D231*
X0060839Y0043158D03*
D232*
X0060886Y0043183D03*
D233*
X0060934Y0043233D03*
D234*
X0060982Y0043228D03*
D235*
X0061029Y0043253D03*
D236*
X0061077Y0043303D03*
D237*
X0061124Y0043323D03*
D238*
X0061172Y0043373D03*
D239*
X0061220Y0043398D03*
D240*
X0061267Y0043398D03*
X0061410Y0043398D03*
D241*
X0061315Y0043418D03*
D242*
X0061363Y0043418D03*
D243*
X0061458Y0043373D03*
X0061553Y0043323D03*
X0061601Y0043323D03*
D244*
X0061505Y0043373D03*
D245*
X0061648Y0043298D03*
D246*
X0061696Y0043298D03*
D247*
X0061791Y0043273D03*
D248*
X0061839Y0043253D03*
D249*
X0061886Y0043233D03*
D250*
X0061934Y0043208D03*
D251*
X0061982Y0043208D03*
D252*
X0062029Y0043208D03*
X0062124Y0043158D03*
D253*
X0062077Y0043183D03*
X0062220Y0043133D03*
D254*
X0062172Y0043133D03*
D255*
X0062267Y0043113D03*
D256*
X0062315Y0044038D03*
D257*
X0062315Y0042638D03*
X0062553Y0042538D03*
D258*
X0062363Y0044088D03*
D259*
X0062363Y0042638D03*
D260*
X0062410Y0044113D03*
D261*
X0062410Y0042613D03*
D262*
X0062458Y0044133D03*
D263*
X0062458Y0042563D03*
X0062601Y0042513D03*
D264*
X0062505Y0044158D03*
D265*
X0062505Y0042563D03*
X0062648Y0042513D03*
D266*
X0062553Y0044183D03*
D267*
X0062601Y0044228D03*
D268*
X0062648Y0044253D03*
D269*
X0062696Y0042468D03*
D270*
X0062743Y0044298D03*
D271*
X0062743Y0042468D03*
D272*
X0062791Y0044323D03*
D273*
X0062791Y0042443D03*
D274*
X0062839Y0044348D03*
D275*
X0062839Y0042423D03*
X0066839Y0042803D03*
D276*
X0066886Y0042803D03*
X0067029Y0042893D03*
X0062886Y0042423D03*
D277*
X0062934Y0042398D03*
X0063077Y0042348D03*
X0066791Y0042728D03*
D278*
X0063172Y0042348D03*
X0062982Y0042398D03*
D279*
X0063029Y0042348D03*
X0063124Y0042348D03*
X0066743Y0042728D03*
D280*
X0063220Y0042303D03*
D281*
X0063267Y0042303D03*
D282*
X0063315Y0042303D03*
X0067601Y0043253D03*
D283*
X0063363Y0042278D03*
D284*
X0063458Y0042278D03*
X0063553Y0042228D03*
X0063601Y0042228D03*
X0063696Y0042228D03*
D285*
X0063505Y0042253D03*
D286*
X0063553Y0045848D03*
D287*
X0063601Y0045898D03*
X0065172Y0045898D03*
D288*
X0063601Y0040158D03*
D289*
X0063648Y0045918D03*
D290*
X0063648Y0042228D03*
D291*
X0063648Y0040158D03*
D292*
X0063696Y0045968D03*
D293*
X0063696Y0040183D03*
D294*
X0063743Y0045993D03*
D295*
X0063743Y0040133D03*
D296*
X0063791Y0046018D03*
X0064934Y0046018D03*
D297*
X0063791Y0042203D03*
D298*
X0063791Y0040108D03*
D299*
X0063839Y0046018D03*
D300*
X0063839Y0042203D03*
X0065839Y0042353D03*
D301*
X0064982Y0040088D03*
X0063839Y0040088D03*
D302*
X0063886Y0046038D03*
D303*
X0063886Y0042183D03*
X0064029Y0042183D03*
D304*
X0063886Y0040063D03*
X0064886Y0040063D03*
D305*
X0064791Y0046038D03*
X0063934Y0046038D03*
D306*
X0063934Y0042183D03*
D307*
X0063934Y0040038D03*
X0064791Y0040038D03*
D308*
X0064696Y0046063D03*
X0063982Y0046063D03*
D309*
X0063982Y0042183D03*
D310*
X0063982Y0040038D03*
X0064839Y0040038D03*
D311*
X0064743Y0046063D03*
X0064029Y0046063D03*
D312*
X0064029Y0040013D03*
X0064124Y0040013D03*
X0064743Y0040013D03*
D313*
X0064077Y0046063D03*
D314*
X0064077Y0042158D03*
X0064220Y0042158D03*
X0064363Y0042158D03*
D315*
X0064077Y0040013D03*
D316*
X0064124Y0046088D03*
X0064267Y0046088D03*
X0064410Y0046088D03*
D317*
X0064410Y0042158D03*
X0064267Y0042158D03*
X0064124Y0042158D03*
D318*
X0064172Y0046088D03*
X0064315Y0046088D03*
X0064458Y0046088D03*
X0064553Y0046088D03*
X0064601Y0046088D03*
D319*
X0064601Y0042158D03*
X0064553Y0042158D03*
X0064458Y0042158D03*
X0064315Y0042158D03*
X0064172Y0042158D03*
X0064696Y0042158D03*
D320*
X0064696Y0040013D03*
X0064172Y0040013D03*
D321*
X0064220Y0046088D03*
X0064363Y0046088D03*
D322*
X0067791Y0043183D03*
X0064363Y0039993D03*
X0064220Y0039993D03*
D323*
X0064267Y0039993D03*
X0064410Y0039993D03*
D324*
X0064458Y0039993D03*
X0064553Y0039993D03*
X0064601Y0039993D03*
X0064315Y0039993D03*
D325*
X0064505Y0046088D03*
D326*
X0064505Y0042158D03*
D327*
X0064505Y0039993D03*
D328*
X0064648Y0046063D03*
D329*
X0064648Y0042158D03*
D330*
X0064648Y0040013D03*
D331*
X0064743Y0042158D03*
X0064886Y0042158D03*
D332*
X0064791Y0042158D03*
D333*
X0064839Y0046038D03*
D334*
X0064886Y0046018D03*
D335*
X0065791Y0042328D03*
X0065363Y0042228D03*
X0065077Y0042178D03*
X0064934Y0042178D03*
D336*
X0064934Y0040063D03*
D337*
X0064982Y0045993D03*
D338*
X0065029Y0045968D03*
D339*
X0065743Y0042328D03*
X0065410Y0042228D03*
X0065124Y0042178D03*
X0065029Y0042178D03*
D340*
X0065029Y0040108D03*
X0067886Y0043158D03*
D341*
X0065077Y0045943D03*
D342*
X0065077Y0040133D03*
D343*
X0065124Y0045918D03*
D344*
X0065124Y0040183D03*
D345*
X0065220Y0045823D03*
D346*
X0065220Y0042203D03*
D347*
X0065220Y0040278D03*
D348*
X0065267Y0042203D03*
D349*
X0065267Y0040183D03*
D350*
X0065505Y0042278D03*
X0065648Y0042278D03*
X0067648Y0043228D03*
D351*
X0065886Y0042373D03*
D352*
X0065934Y0042373D03*
D353*
X0065982Y0042393D03*
X0066172Y0042443D03*
D354*
X0066029Y0042418D03*
D355*
X0066077Y0042443D03*
X0066220Y0042493D03*
X0066363Y0042543D03*
D356*
X0066267Y0042493D03*
X0066124Y0042443D03*
D357*
X0066315Y0042518D03*
X0066553Y0042608D03*
X0066601Y0042658D03*
D358*
X0066410Y0042563D03*
D359*
X0066458Y0042563D03*
D360*
X0066505Y0042608D03*
D361*
X0066648Y0042683D03*
D362*
X0066696Y0042683D03*
D363*
X0066934Y0042848D03*
D364*
X0066982Y0042868D03*
X0067172Y0043018D03*
X0067315Y0043108D03*
X0067553Y0043258D03*
D365*
X0067077Y0042943D03*
D366*
X0067124Y0042968D03*
D367*
X0067267Y0043063D03*
D368*
X0067363Y0043133D03*
D369*
X0067410Y0043183D03*
D370*
X0067458Y0043233D03*
D371*
X0067505Y0043253D03*
D372*
X0067696Y0043203D03*
D373*
X0067839Y0043158D03*
D374*
X0067934Y0043108D03*
D375*
X0067982Y0043113D03*
D376*
X0068029Y0043088D03*
D377*
X0068077Y0043083D03*
D378*
X0068124Y0043063D03*
D379*
X0068172Y0043063D03*
D380*
X0068220Y0043063D03*
D381*
X0068267Y0043038D03*
D382*
X0068315Y0043038D03*
D383*
X0158157Y0060981D03*
X0159677Y0060981D03*
X0163727Y0066600D03*
X0163727Y0066981D03*
X0163627Y0066981D03*
X0163537Y0066981D03*
X0163437Y0066981D03*
X0163347Y0066981D03*
X0163247Y0066981D03*
X0163107Y0066981D03*
X0162917Y0066981D03*
X0162727Y0066981D03*
X0162627Y0066981D03*
X0162537Y0066981D03*
X0162437Y0066981D03*
X0163917Y0066981D03*
X0164107Y0066981D03*
X0164347Y0066981D03*
X0159297Y0070267D03*
X0158967Y0070267D03*
X0158967Y0072267D03*
X0159057Y0072267D03*
X0159157Y0072267D03*
X0159247Y0072267D03*
X0158867Y0072267D03*
X0158777Y0072267D03*
X0158677Y0072267D03*
D384*
X0158912Y0060981D03*
D385*
X0157822Y0061028D03*
D386*
X0158892Y0061028D03*
X0154272Y0066028D03*
X0154222Y0066314D03*
X0154222Y0066409D03*
X0154222Y0066457D03*
X0154222Y0066838D03*
X0154222Y0067028D03*
X0154272Y0067314D03*
X0154272Y0067409D03*
X0154272Y0067457D03*
X0154372Y0067838D03*
X0163372Y0067552D03*
X0163372Y0067457D03*
X0163372Y0067409D03*
X0163412Y0067171D03*
D387*
X0162872Y0063981D03*
X0158872Y0061124D03*
X0155772Y0063267D03*
D388*
X0158847Y0061171D03*
X0162657Y0064171D03*
X0162797Y0063695D03*
D389*
X0158842Y0061219D03*
X0161562Y0070219D03*
D390*
X0158847Y0061267D03*
D391*
X0158847Y0061409D03*
D392*
X0158867Y0061457D03*
D393*
X0158847Y0061505D03*
D394*
X0158867Y0061552D03*
D395*
X0158847Y0061600D03*
D396*
X0158842Y0061647D03*
X0158892Y0071647D03*
D397*
X0158847Y0061695D03*
D398*
X0158842Y0061743D03*
D399*
X0158847Y0061790D03*
D400*
X0158847Y0061838D03*
D401*
X0158842Y0061886D03*
D402*
X0158847Y0061933D03*
D403*
X0158847Y0061981D03*
D404*
X0158867Y0062028D03*
X0158867Y0071314D03*
D405*
X0158842Y0062076D03*
D406*
X0158847Y0062124D03*
D407*
X0158842Y0062171D03*
X0158842Y0071171D03*
D408*
X0158842Y0062219D03*
D409*
X0158847Y0062267D03*
D410*
X0158847Y0062314D03*
D411*
X0158817Y0062362D03*
D412*
X0158822Y0062409D03*
D413*
X0164752Y0062409D03*
X0160132Y0072171D03*
D414*
X0158822Y0062457D03*
D415*
X0163682Y0066552D03*
X0164682Y0062457D03*
D416*
X0158822Y0062505D03*
D417*
X0158822Y0062552D03*
D418*
X0158822Y0062600D03*
D419*
X0164512Y0062600D03*
D420*
X0158822Y0062647D03*
D421*
X0158797Y0062695D03*
X0158897Y0070695D03*
D422*
X0164392Y0062695D03*
D423*
X0158822Y0062743D03*
D424*
X0164322Y0062743D03*
D425*
X0158822Y0062790D03*
D426*
X0164272Y0062790D03*
D427*
X0158817Y0062838D03*
X0158867Y0070552D03*
D428*
X0158797Y0062886D03*
D429*
X0164152Y0062886D03*
D430*
X0156632Y0062933D03*
D431*
X0159202Y0062933D03*
D432*
X0161177Y0062933D03*
D433*
X0164107Y0062933D03*
D434*
X0156367Y0062981D03*
D435*
X0161322Y0062981D03*
X0162322Y0065124D03*
D436*
X0156247Y0063028D03*
D437*
X0161442Y0063028D03*
D438*
X0156107Y0063076D03*
D439*
X0161537Y0063076D03*
D440*
X0156012Y0063124D03*
D441*
X0162317Y0063124D03*
D442*
X0162842Y0064028D03*
X0155942Y0063171D03*
D443*
X0155867Y0063219D03*
D444*
X0162462Y0063219D03*
X0158892Y0071933D03*
D445*
X0162487Y0063267D03*
D446*
X0155727Y0063314D03*
D447*
X0162562Y0063314D03*
D448*
X0155652Y0063362D03*
D449*
X0162582Y0063362D03*
D450*
X0155587Y0063409D03*
X0155487Y0069838D03*
D451*
X0162657Y0063409D03*
D452*
X0155537Y0063457D03*
X0162247Y0069838D03*
D453*
X0162657Y0063457D03*
D454*
X0155487Y0063505D03*
D455*
X0162677Y0063505D03*
D456*
X0155417Y0063552D03*
D457*
X0162727Y0063552D03*
D458*
X0162772Y0063600D03*
D459*
X0155317Y0063647D03*
D460*
X0162747Y0063647D03*
D461*
X0155297Y0063695D03*
D462*
X0155252Y0063743D03*
D463*
X0162822Y0063743D03*
D464*
X0155227Y0063790D03*
D465*
X0162817Y0063790D03*
D466*
X0155177Y0063838D03*
D467*
X0162487Y0065314D03*
X0162867Y0063838D03*
D468*
X0155132Y0063886D03*
D469*
X0162867Y0063886D03*
D470*
X0162892Y0063933D03*
D471*
X0155082Y0063981D03*
D472*
X0155032Y0064028D03*
D473*
X0155012Y0064076D03*
X0162772Y0069219D03*
D474*
X0162777Y0064076D03*
D475*
X0162727Y0069267D03*
X0154967Y0064124D03*
D476*
X0162727Y0064124D03*
D477*
X0154942Y0064171D03*
X0158892Y0072171D03*
D478*
X0154967Y0069219D03*
X0154917Y0064219D03*
D479*
X0162632Y0064219D03*
D480*
X0154892Y0064267D03*
X0154892Y0069124D03*
D481*
X0162562Y0064267D03*
D482*
X0154847Y0064314D03*
X0162797Y0069171D03*
D483*
X0162512Y0064314D03*
D484*
X0154822Y0064362D03*
D485*
X0162462Y0064362D03*
D486*
X0162872Y0065695D03*
X0162872Y0069028D03*
X0154822Y0069028D03*
X0154722Y0068838D03*
X0154722Y0064552D03*
X0154772Y0064457D03*
X0154822Y0064409D03*
D487*
X0162392Y0064409D03*
D488*
X0162322Y0064457D03*
D489*
X0154747Y0064505D03*
D490*
X0162272Y0064505D03*
D491*
X0162247Y0064552D03*
D492*
X0154702Y0064600D03*
D493*
X0162177Y0064600D03*
D494*
X0154702Y0064647D03*
X0154702Y0068790D03*
D495*
X0162107Y0064647D03*
D496*
X0163037Y0068695D03*
X0162987Y0068838D03*
X0154657Y0068695D03*
X0154607Y0064838D03*
X0154657Y0064695D03*
D497*
X0162057Y0064695D03*
D498*
X0163062Y0068600D03*
X0163012Y0068743D03*
X0154632Y0068600D03*
X0154532Y0064981D03*
X0154582Y0064886D03*
X0154632Y0064743D03*
D499*
X0162032Y0064743D03*
D500*
X0163062Y0068647D03*
X0154632Y0068647D03*
X0154582Y0064933D03*
X0154632Y0064790D03*
D501*
X0161987Y0064790D03*
D502*
X0162012Y0064838D03*
D503*
X0162087Y0064886D03*
D504*
X0162132Y0064933D03*
D505*
X0162182Y0064981D03*
D506*
X0154532Y0065028D03*
X0154532Y0068457D03*
X0154582Y0068552D03*
D507*
X0162202Y0065028D03*
D508*
X0154512Y0065076D03*
X0154462Y0065219D03*
X0154462Y0068219D03*
D509*
X0162252Y0065076D03*
D510*
X0162892Y0065743D03*
X0163272Y0067981D03*
X0154512Y0065124D03*
X0154462Y0065267D03*
D511*
X0154462Y0065171D03*
X0154462Y0068171D03*
X0163132Y0068409D03*
X0163132Y0068457D03*
D512*
X0162367Y0065171D03*
D513*
X0162392Y0065219D03*
D514*
X0162462Y0065267D03*
D515*
X0163347Y0067695D03*
X0163297Y0067838D03*
X0163247Y0068028D03*
X0154347Y0067695D03*
X0154297Y0067552D03*
X0154247Y0067171D03*
X0154247Y0066171D03*
X0154297Y0065838D03*
X0154347Y0065695D03*
X0154437Y0065314D03*
D516*
X0154417Y0065362D03*
D517*
X0154417Y0065409D03*
X0154367Y0065552D03*
X0154417Y0068028D03*
X0154557Y0068409D03*
D518*
X0162557Y0065409D03*
D519*
X0154392Y0065457D03*
D520*
X0154392Y0065505D03*
X0163392Y0067362D03*
D521*
X0162677Y0065505D03*
D522*
X0163347Y0067600D03*
X0163297Y0067886D03*
X0154487Y0068267D03*
X0154437Y0068124D03*
X0154347Y0067743D03*
X0154247Y0067267D03*
X0154297Y0065886D03*
X0154347Y0065743D03*
X0154347Y0065600D03*
D523*
X0162797Y0065647D03*
D524*
X0163107Y0065933D03*
D525*
X0163412Y0067124D03*
X0163322Y0067743D03*
X0154322Y0067600D03*
X0154222Y0067124D03*
X0154222Y0066981D03*
X0154222Y0066886D03*
X0154222Y0066743D03*
X0154222Y0066600D03*
X0154222Y0066267D03*
X0154272Y0066124D03*
X0154272Y0065981D03*
D526*
X0163132Y0065981D03*
D527*
X0163177Y0066028D03*
D528*
X0163412Y0067076D03*
X0163412Y0067219D03*
X0163322Y0067790D03*
X0154222Y0067219D03*
X0154222Y0067076D03*
X0154222Y0066933D03*
X0154272Y0066076D03*
D529*
X0163462Y0066314D03*
D530*
X0163372Y0067505D03*
X0154272Y0067362D03*
X0154222Y0066505D03*
X0154222Y0066362D03*
D531*
X0163512Y0066362D03*
D532*
X0163562Y0066409D03*
D533*
X0163587Y0066457D03*
D534*
X0163632Y0066505D03*
D535*
X0154202Y0066552D03*
X0154202Y0066695D03*
D536*
X0154202Y0066647D03*
D537*
X0154202Y0066790D03*
D538*
X0158822Y0070267D03*
X0158582Y0072267D03*
X0156582Y0071886D03*
X0162822Y0066981D03*
X0163012Y0066981D03*
X0163822Y0066981D03*
X0164012Y0066981D03*
D539*
X0164202Y0066981D03*
D540*
X0163392Y0067028D03*
X0163392Y0067314D03*
D541*
X0163392Y0067267D03*
X0154392Y0067981D03*
D542*
X0154297Y0067505D03*
D543*
X0154367Y0067886D03*
D544*
X0154392Y0067933D03*
D545*
X0154417Y0068076D03*
D546*
X0163177Y0068267D03*
X0163227Y0068124D03*
D547*
X0163227Y0068171D03*
X0163177Y0068314D03*
D548*
X0163227Y0068219D03*
D549*
X0163107Y0068552D03*
X0154487Y0068314D03*
D550*
X0154512Y0068362D03*
D551*
X0163177Y0068362D03*
D552*
X0154582Y0068505D03*
D553*
X0163107Y0068505D03*
D554*
X0162937Y0068886D03*
X0154747Y0068886D03*
X0154657Y0068743D03*
D555*
X0162987Y0068790D03*
D556*
X0154772Y0068933D03*
D557*
X0162917Y0068933D03*
D558*
X0162797Y0069124D03*
X0154797Y0068981D03*
D559*
X0162917Y0068981D03*
D560*
X0162847Y0069076D03*
X0154847Y0069076D03*
D561*
X0154917Y0069171D03*
D562*
X0154992Y0069267D03*
D563*
X0154992Y0069314D03*
X0162702Y0069314D03*
D564*
X0155057Y0069362D03*
D565*
X0162652Y0069362D03*
D566*
X0155057Y0069409D03*
D567*
X0162587Y0069457D03*
X0162627Y0069409D03*
D568*
X0155132Y0069457D03*
D569*
X0155177Y0069505D03*
D570*
X0162562Y0069505D03*
D571*
X0155202Y0069552D03*
D572*
X0162512Y0069552D03*
D573*
X0155227Y0069600D03*
D574*
X0162487Y0069600D03*
D575*
X0155297Y0069647D03*
D576*
X0162442Y0069647D03*
D577*
X0162392Y0069695D03*
X0155342Y0069695D03*
D578*
X0155392Y0069743D03*
D579*
X0162272Y0069790D03*
D580*
X0155562Y0069886D03*
D581*
X0162182Y0069886D03*
D582*
X0155632Y0069933D03*
D583*
X0162107Y0069933D03*
D584*
X0155702Y0069981D03*
D585*
X0158937Y0072124D03*
X0162037Y0069981D03*
D586*
X0155797Y0070028D03*
D587*
X0155842Y0070076D03*
X0161892Y0070076D03*
D588*
X0155962Y0070124D03*
D589*
X0161797Y0070124D03*
D590*
X0156082Y0070171D03*
D591*
X0156177Y0070219D03*
D592*
X0156437Y0070267D03*
X0158917Y0071981D03*
D593*
X0158582Y0070267D03*
D594*
X0161347Y0070267D03*
D595*
X0158842Y0070314D03*
D596*
X0158842Y0070362D03*
D597*
X0158867Y0070409D03*
D598*
X0158872Y0070457D03*
D599*
X0158867Y0070505D03*
D600*
X0158842Y0070600D03*
D601*
X0158847Y0070647D03*
D602*
X0158847Y0070743D03*
D603*
X0158892Y0070790D03*
D604*
X0158847Y0070838D03*
D605*
X0158872Y0070886D03*
D606*
X0158867Y0070933D03*
D607*
X0158842Y0070981D03*
D608*
X0158867Y0071028D03*
D609*
X0158872Y0071076D03*
D610*
X0158892Y0071124D03*
D611*
X0158872Y0071219D03*
D612*
X0158867Y0071267D03*
D613*
X0158872Y0071362D03*
D614*
X0158892Y0071409D03*
D615*
X0158867Y0071457D03*
D616*
X0158897Y0071505D03*
D617*
X0158892Y0071552D03*
D618*
X0158872Y0071600D03*
D619*
X0158867Y0071695D03*
D620*
X0158892Y0071743D03*
D621*
X0158892Y0071790D03*
D622*
X0158892Y0071838D03*
D623*
X0158917Y0071886D03*
D624*
X0158892Y0072028D03*
D625*
X0158892Y0072076D03*
D626*
X0161593Y0054753D02*
X0141907Y0054753D01*
X0141907Y0040973D02*
X0161593Y0040973D01*
D627*
X0151139Y0026161D02*
X0144761Y0026161D01*
X0144761Y0014965D02*
X0151139Y0014965D01*
X0080750Y0007563D02*
X0080750Y0022563D01*
X0078250Y0025063D01*
X0073250Y0025063D01*
X0070750Y0022563D01*
X0070750Y0007563D01*
X0073250Y0005063D01*
X0078250Y0005063D01*
X0080750Y0007563D01*
X0070750Y0007563D02*
X0068250Y0005063D01*
X0063250Y0005063D01*
X0060750Y0007563D01*
X0060750Y0022563D01*
X0063250Y0025063D01*
X0068250Y0025063D01*
X0070750Y0022563D01*
X0060750Y0022563D02*
X0058250Y0025063D01*
X0053250Y0025063D01*
X0050750Y0022563D01*
X0050750Y0007563D01*
X0053250Y0005063D01*
X0058250Y0005063D01*
X0060750Y0007563D01*
X0050750Y0007563D02*
X0048250Y0005063D01*
X0043250Y0005063D01*
X0040750Y0007563D01*
X0040750Y0022563D01*
X0043250Y0025063D01*
X0048250Y0025063D01*
X0050750Y0022563D01*
X0040750Y0022563D02*
X0038250Y0025063D01*
X0033250Y0025063D01*
X0030750Y0022563D01*
X0030750Y0007563D01*
X0033250Y0005063D01*
X0038250Y0005063D01*
X0040750Y0007563D01*
X0144391Y0079009D02*
X0144391Y0082317D01*
X0149509Y0082317D02*
X0149509Y0079009D01*
X0050524Y0094188D02*
X0050524Y0097588D01*
X0025524Y0097588D02*
X0025524Y0094188D01*
D628*
X0132750Y0016897D03*
X0165150Y0017797D03*
M02*
