%
M48
M72
T01C0.0118
T02C0.0197
T03C0.0236
T04C0.0335
T05C0.1260
%
T01
X2896Y1715
X1715Y2896
X927Y3290
X1715Y4077
X2702Y4227
X3700Y3547
X4690Y2747
X7460Y3717
X8530Y4777
X7840Y4857
X7280Y5057
X7210Y5653
X6600Y5327
X6130Y5473
X6560Y6037
X7255Y6510
X7030Y6827
X8395Y6800
X9530Y6047
X9583Y6682
X10300Y6697
X10610Y7128
X10330Y7427
X10960Y7457
X10475Y7972
X10920Y8067
X10770Y8447
X10090Y8437
X9560Y8457
X9560Y7837
X10860Y6697
X11640Y6227
X12650Y6538
X12650Y5750
X11900Y5257
X10860Y5257
X9740Y5257
X12050Y7128
X12700Y7817
X12440Y8557
X11640Y8007
X13590Y8927
X12720Y9627
X12395Y9887
X12049Y9627
X13260Y10287
X14313Y9983
X16010Y9567
X16250Y9327
X16570Y9167
X16550Y8157
X16250Y7607
X15940Y7207
X16650Y7037
X17110Y6477
X17110Y5467
X18644Y6439
X19628Y4766
X18644Y2896
X17463Y1715
X15700Y2411
X16250Y3247
X15610Y3807
X16650Y4207
X15540Y4924
X14170Y5074
X13640Y4927
X14000Y5967
X14010Y6441
X15530Y5967
X13820Y3847
X13000Y3347
X12810Y3927
X12480Y3927
X12530Y2817
X11680Y2487
X11770Y1767
X12758Y997
X13800Y2837
X14238Y2907
X15558Y997
X10497Y3045
X9130Y2237
X8380Y2217
X8230Y1087
X9130Y1007
X6600Y4877
X5050Y5657
X4690Y5237
X4100Y4847
X3966Y5432
X4397Y5852
X3365Y6010
X3450Y6367
X3450Y6933
X2305Y7737
X3070Y7797
X3080Y8467
X3340Y8947
X2896Y9195
X1715Y9589
X927Y9983
X1715Y10770
X2896Y9983
X3995Y10160
X4005Y9340
X5260Y8217
X5635Y8230
X6010Y8527
X6510Y8527
X6925Y8930
X7545Y9720
X8775Y9610
X9690Y10127
X9795Y10550
X8775Y10540
X8785Y11350
X7125Y11080
X6570Y11327
X6250Y11487
X6250Y12127
X6490Y12367
X7465Y12990
X5150Y12847
X4650Y12847
X4150Y12847
X3650Y12847
X2876Y11931
X1470Y8777
X1540Y8167
X1540Y7437
X1740Y5937
X1460Y5647
X1730Y5377
X2070Y5307
X2602Y5227
X5455Y6833
X4970Y7967
X3967Y8192
X6515Y7990
X9795Y9700
X11650Y10964
X12065Y11300
X12055Y10650
X14010Y11407
X13370Y12077
X12738Y12345
X13920Y12738
X15888Y12738
X17463Y11951
X18644Y10770
X16675Y10770
X15610Y8147
X15120Y8147
X6439Y10376
T02
X18830Y5500
X18830Y5007
X18830Y4515
X18830Y4023
T03
X5046Y1965
X5546Y1965
X6046Y1965
X6546Y1965
X7046Y1965
X7046Y1465
X6546Y1465
X6046Y1465
X5546Y1465
X5046Y1465
T04
X18587Y9396
X18587Y7427
T05
X1715Y1715
X1715Y11951
X18644Y11951
X18644Y1715
M30
