G75*
%MOIN*%
%OFA0B0*%
%FSLAX25Y25*%
%IPPOS*%
%LPD*%
%AMOC8*
5,1,8,0,0,1.08239X$1,22.5*
%
%ADD10C,0.01000*%
%ADD11C,0.00800*%
%ADD12C,0.00000*%
%ADD13C,0.00500*%
%ADD14C,0.01600*%
%ADD15R,0.00100X0.00048*%
%ADD16R,0.00190X0.00048*%
%ADD17R,0.00330X0.00047*%
%ADD18R,0.00430X0.00048*%
%ADD19R,0.00570X0.00047*%
%ADD20R,0.00570X0.00048*%
%ADD21R,0.00720X0.00048*%
%ADD22R,0.00810X0.00047*%
%ADD23R,0.00950X0.00048*%
%ADD24R,0.01000X0.00048*%
%ADD25R,0.01150X0.00047*%
%ADD26R,0.01280X0.00048*%
%ADD27R,0.01380X0.00047*%
%ADD28R,0.01470X0.00048*%
%ADD29R,0.01620X0.00048*%
%ADD30R,0.01720X0.00047*%
%ADD31R,0.01760X0.00048*%
%ADD32R,0.01850X0.00047*%
%ADD33R,0.01900X0.00048*%
%ADD34R,0.01850X0.00048*%
%ADD35R,0.01860X0.00047*%
%ADD36R,0.01860X0.00048*%
%ADD37R,0.01810X0.00048*%
%ADD38R,0.01810X0.00047*%
%ADD39R,0.01850X0.00048*%
%ADD40R,0.01760X0.00048*%
%ADD41R,0.01770X0.00048*%
%ADD42R,0.01720X0.00047*%
%ADD43R,0.01760X0.00048*%
%ADD44R,0.01710X0.00047*%
%ADD45R,0.01710X0.00048*%
%ADD46R,0.01720X0.00047*%
%ADD47R,0.01720X0.00048*%
%ADD48R,0.01720X0.00048*%
%ADD49R,0.01670X0.00048*%
%ADD50R,0.01710X0.00047*%
%ADD51R,0.01660X0.00048*%
%ADD52R,0.01670X0.00048*%
%ADD53R,0.01670X0.00047*%
%ADD54R,0.01670X0.00048*%
%ADD55R,0.01620X0.00047*%
%ADD56R,0.01620X0.00048*%
%ADD57R,0.01610X0.00047*%
%ADD58R,0.01610X0.00048*%
%ADD59R,0.01570X0.00047*%
%ADD60R,0.01570X0.00048*%
%ADD61R,0.01570X0.00048*%
%ADD62R,0.01570X0.00047*%
%ADD63R,0.03950X0.00048*%
%ADD64R,0.00620X0.00048*%
%ADD65R,0.04040X0.00047*%
%ADD66R,0.00860X0.00047*%
%ADD67R,0.04140X0.00048*%
%ADD68R,0.04190X0.00048*%
%ADD69R,0.04230X0.00047*%
%ADD70R,0.01050X0.00047*%
%ADD71R,0.04280X0.00048*%
%ADD72R,0.01140X0.00048*%
%ADD73R,0.04330X0.00048*%
%ADD74R,0.01140X0.00048*%
%ADD75R,0.04380X0.00047*%
%ADD76R,0.01190X0.00047*%
%ADD77R,0.04380X0.00048*%
%ADD78R,0.01190X0.00048*%
%ADD79R,0.04380X0.00047*%
%ADD80R,0.01620X0.00047*%
%ADD81R,0.01240X0.00047*%
%ADD82R,0.04430X0.00048*%
%ADD83R,0.01240X0.00048*%
%ADD84R,0.01660X0.00048*%
%ADD85R,0.01280X0.00048*%
%ADD86R,0.04430X0.00047*%
%ADD87R,0.01280X0.00047*%
%ADD88R,0.04470X0.00048*%
%ADD89R,0.04470X0.00047*%
%ADD90R,0.01610X0.00047*%
%ADD91R,0.01280X0.00047*%
%ADD92R,0.04470X0.00048*%
%ADD93R,0.01330X0.00048*%
%ADD94R,0.01660X0.00047*%
%ADD95R,0.01330X0.00048*%
%ADD96R,0.01280X0.00048*%
%ADD97R,0.01710X0.00048*%
%ADD98R,0.04430X0.00048*%
%ADD99R,0.01710X0.00048*%
%ADD100R,0.01240X0.00048*%
%ADD101R,0.04430X0.00047*%
%ADD102R,0.01710X0.00047*%
%ADD103R,0.01140X0.00047*%
%ADD104R,0.04330X0.00048*%
%ADD105R,0.01090X0.00048*%
%ADD106R,0.01050X0.00048*%
%ADD107R,0.04280X0.00047*%
%ADD108R,0.01000X0.00047*%
%ADD109R,0.04190X0.00048*%
%ADD110R,0.01720X0.00048*%
%ADD111R,0.00770X0.00048*%
%ADD112R,0.04090X0.00047*%
%ADD113R,0.01720X0.00047*%
%ADD114R,0.00290X0.00047*%
%ADD115R,0.00290X0.00048*%
%ADD116R,0.00150X0.00048*%
%ADD117R,0.00050X0.00048*%
%ADD118R,0.00040X0.00048*%
%ADD119R,0.00230X0.00048*%
%ADD120R,0.00720X0.00048*%
%ADD121R,0.00190X0.00048*%
%ADD122R,0.00200X0.00048*%
%ADD123R,0.00290X0.00048*%
%ADD124R,0.00570X0.00048*%
%ADD125R,0.00090X0.00048*%
%ADD126R,0.01720X0.00048*%
%ADD127R,0.01760X0.00047*%
%ADD128R,0.00050X0.00048*%
%ADD129R,0.00090X0.00047*%
%ADD130R,0.01770X0.00047*%
%ADD131R,0.00140X0.00048*%
%ADD132R,0.01770X0.00048*%
%ADD133R,0.00290X0.00047*%
%ADD134R,0.01810X0.00047*%
%ADD135R,0.00380X0.00048*%
%ADD136R,0.00430X0.00047*%
%ADD137R,0.00480X0.00048*%
%ADD138R,0.01810X0.00048*%
%ADD139R,0.00620X0.00047*%
%ADD140R,0.00810X0.00048*%
%ADD141R,0.00860X0.00047*%
%ADD142R,0.02770X0.00048*%
%ADD143R,0.02770X0.00047*%
%ADD144R,0.02770X0.00048*%
%ADD145R,0.02720X0.00048*%
%ADD146R,0.02760X0.00047*%
%ADD147R,0.02710X0.00048*%
%ADD148R,0.02710X0.00048*%
%ADD149R,0.02660X0.00047*%
%ADD150R,0.02660X0.00048*%
%ADD151R,0.02620X0.00047*%
%ADD152R,0.02670X0.00048*%
%ADD153R,0.02620X0.00048*%
%ADD154R,0.02570X0.00047*%
%ADD155R,0.02570X0.00048*%
%ADD156R,0.02520X0.00048*%
%ADD157R,0.02530X0.00048*%
%ADD158R,0.02530X0.00048*%
%ADD159R,0.02480X0.00047*%
%ADD160R,0.02430X0.00048*%
%ADD161R,0.02570X0.00048*%
%ADD162R,0.02810X0.00048*%
%ADD163R,0.02860X0.00048*%
%ADD164R,0.02960X0.00047*%
%ADD165R,0.03000X0.00048*%
%ADD166R,0.03050X0.00047*%
%ADD167R,0.03190X0.00048*%
%ADD168R,0.03230X0.00048*%
%ADD169R,0.03280X0.00047*%
%ADD170R,0.03380X0.00048*%
%ADD171R,0.03470X0.00047*%
%ADD172R,0.03520X0.00048*%
%ADD173R,0.03240X0.00047*%
%ADD174R,0.03140X0.00048*%
%ADD175R,0.02900X0.00047*%
%ADD176R,0.02760X0.00048*%
%ADD177R,0.02620X0.00047*%
%ADD178R,0.02570X0.00048*%
%ADD179R,0.02430X0.00048*%
%ADD180R,0.02290X0.00047*%
%ADD181R,0.02140X0.00048*%
%ADD182R,0.02050X0.00048*%
%ADD183R,0.01910X0.00047*%
%ADD184R,0.01860X0.00048*%
%ADD185R,0.01480X0.00048*%
%ADD186R,0.01340X0.00047*%
%ADD187R,0.01240X0.00048*%
%ADD188R,0.01140X0.00047*%
%ADD189R,0.00850X0.00048*%
%ADD190R,0.00850X0.00047*%
%ADD191R,0.00710X0.00048*%
%ADD192R,0.00570X0.00048*%
%ADD193R,0.00470X0.00047*%
%ADD194R,0.00330X0.00048*%
%ADD195R,0.00240X0.00047*%
%ADD196R,0.00048X0.00040*%
%ADD197R,0.00047X0.00140*%
%ADD198R,0.00048X0.00280*%
%ADD199R,0.00048X0.00420*%
%ADD200R,0.00047X0.00520*%
%ADD201R,0.00048X0.00620*%
%ADD202R,0.00047X0.00720*%
%ADD203R,0.00048X0.00860*%
%ADD204R,0.00048X0.00960*%
%ADD205R,0.00047X0.01100*%
%ADD206R,0.00048X0.01190*%
%ADD207R,0.00047X0.01380*%
%ADD208R,0.00048X0.01430*%
%ADD209R,0.00048X0.01570*%
%ADD210R,0.00047X0.01670*%
%ADD211R,0.00048X0.01810*%
%ADD212R,0.00048X0.01950*%
%ADD213R,0.00047X0.02050*%
%ADD214R,0.00048X0.02140*%
%ADD215R,0.00047X0.02240*%
%ADD216R,0.00048X0.02380*%
%ADD217R,0.00048X0.02470*%
%ADD218R,0.00047X0.02620*%
%ADD219R,0.00048X0.02710*%
%ADD220R,0.00048X0.02810*%
%ADD221R,0.00047X0.02950*%
%ADD222R,0.00048X0.03040*%
%ADD223R,0.00047X0.03190*%
%ADD224R,0.00048X0.03330*%
%ADD225R,0.00048X0.03420*%
%ADD226R,0.00047X0.03380*%
%ADD227R,0.00048X0.03340*%
%ADD228R,0.00047X0.03290*%
%ADD229R,0.00048X0.03190*%
%ADD230R,0.00048X0.03150*%
%ADD231R,0.00047X0.03100*%
%ADD232R,0.00048X0.03000*%
%ADD233R,0.00048X0.02910*%
%ADD234R,0.00047X0.02860*%
%ADD235R,0.00048X0.02760*%
%ADD236R,0.00047X0.02720*%
%ADD237R,0.00048X0.02620*%
%ADD238R,0.00048X0.02570*%
%ADD239R,0.00047X0.02470*%
%ADD240R,0.00048X0.02430*%
%ADD241R,0.00048X0.02430*%
%ADD242R,0.00048X0.02520*%
%ADD243R,0.00047X0.02520*%
%ADD244R,0.00047X0.02570*%
%ADD245R,0.00048X0.02570*%
%ADD246R,0.00048X0.02620*%
%ADD247R,0.00048X0.02660*%
%ADD248R,0.00047X0.02620*%
%ADD249R,0.00048X0.02670*%
%ADD250R,0.00048X0.02670*%
%ADD251R,0.00047X0.02670*%
%ADD252R,0.00048X0.02720*%
%ADD253R,0.00048X0.02720*%
%ADD254R,0.00047X0.02760*%
%ADD255R,0.00048X0.00910*%
%ADD256R,0.00048X0.01810*%
%ADD257R,0.00048X0.00810*%
%ADD258R,0.00048X0.01810*%
%ADD259R,0.00047X0.00760*%
%ADD260R,0.00047X0.01760*%
%ADD261R,0.00048X0.00620*%
%ADD262R,0.00048X0.01760*%
%ADD263R,0.00047X0.00570*%
%ADD264R,0.00047X0.01760*%
%ADD265R,0.00048X0.00520*%
%ADD266R,0.00048X0.00430*%
%ADD267R,0.00047X0.00380*%
%ADD268R,0.00048X0.01770*%
%ADD269R,0.00047X0.00190*%
%ADD270R,0.00047X0.01770*%
%ADD271R,0.00048X0.00140*%
%ADD272R,0.00048X0.01720*%
%ADD273R,0.00048X0.00090*%
%ADD274R,0.00048X0.01760*%
%ADD275R,0.00047X0.01760*%
%ADD276R,0.00048X0.01710*%
%ADD277R,0.00048X0.01710*%
%ADD278R,0.00047X0.01710*%
%ADD279R,0.00048X0.01720*%
%ADD280R,0.00047X0.01720*%
%ADD281R,0.00048X0.01720*%
%ADD282R,0.00048X0.01670*%
%ADD283R,0.00048X0.01670*%
%ADD284R,0.00047X0.01720*%
%ADD285R,0.00048X0.03950*%
%ADD286R,0.00048X0.04050*%
%ADD287R,0.00048X0.00470*%
%ADD288R,0.00047X0.04090*%
%ADD289R,0.00047X0.01670*%
%ADD290R,0.00047X0.00670*%
%ADD291R,0.00048X0.04190*%
%ADD292R,0.00048X0.00900*%
%ADD293R,0.00047X0.04240*%
%ADD294R,0.00047X0.01000*%
%ADD295R,0.00048X0.04290*%
%ADD296R,0.00048X0.01620*%
%ADD297R,0.00048X0.01050*%
%ADD298R,0.00048X0.04290*%
%ADD299R,0.00048X0.01620*%
%ADD300R,0.00048X0.01090*%
%ADD301R,0.00047X0.04330*%
%ADD302R,0.00047X0.01660*%
%ADD303R,0.00047X0.01140*%
%ADD304R,0.00048X0.04330*%
%ADD305R,0.00048X0.01660*%
%ADD306R,0.00048X0.01190*%
%ADD307R,0.00048X0.04380*%
%ADD308R,0.00048X0.01660*%
%ADD309R,0.00048X0.01190*%
%ADD310R,0.00047X0.04380*%
%ADD311R,0.00047X0.01240*%
%ADD312R,0.00048X0.04380*%
%ADD313R,0.00048X0.01610*%
%ADD314R,0.00048X0.01240*%
%ADD315R,0.00047X0.04430*%
%ADD316R,0.00047X0.01610*%
%ADD317R,0.00048X0.04430*%
%ADD318R,0.00048X0.01610*%
%ADD319R,0.00048X0.01240*%
%ADD320R,0.00048X0.04430*%
%ADD321R,0.00048X0.01280*%
%ADD322R,0.00047X0.01280*%
%ADD323R,0.00048X0.01280*%
%ADD324R,0.00047X0.04430*%
%ADD325R,0.00047X0.01610*%
%ADD326R,0.00047X0.01280*%
%ADD327R,0.00047X0.04380*%
%ADD328R,0.00047X0.01530*%
%ADD329R,0.00047X0.01240*%
%ADD330R,0.00047X0.01530*%
%ADD331R,0.00048X0.01530*%
%ADD332R,0.00048X0.04330*%
%ADD333R,0.00047X0.04290*%
%ADD334R,0.00048X0.01570*%
%ADD335R,0.00048X0.01140*%
%ADD336R,0.00048X0.04240*%
%ADD337R,0.00047X0.04190*%
%ADD338R,0.00047X0.01570*%
%ADD339R,0.00047X0.01050*%
%ADD340R,0.00048X0.04140*%
%ADD341R,0.00048X0.01000*%
%ADD342R,0.00047X0.04090*%
%ADD343R,0.00047X0.00900*%
%ADD344R,0.00048X0.03900*%
%ADD345R,0.00048X0.01520*%
%ADD346R,0.00048X0.00710*%
%ADD347R,0.00047X0.01520*%
%ADD348R,0.00047X0.00040*%
%ADD349R,0.00047X0.01570*%
%ADD350R,0.00047X0.01580*%
%ADD351R,0.00048X0.01580*%
%ADD352R,0.00048X0.01620*%
%ADD353R,0.00047X0.01570*%
%ADD354R,0.00048X0.01620*%
%ADD355R,0.00047X0.01620*%
%ADD356R,0.00048X0.01670*%
%ADD357R,0.00047X0.01660*%
%ADD358R,0.00048X0.01660*%
%ADD359R,0.00047X0.01670*%
%ADD360R,0.00047X0.01720*%
%ADD361R,0.00048X0.01720*%
%ADD362R,0.00048X0.01770*%
%ADD363R,0.00048X0.01810*%
%ADD364R,0.00048X0.01760*%
%ADD365R,0.00047X0.01810*%
%ADD366R,0.00047X0.01800*%
%ADD367R,0.00048X0.01860*%
%ADD368R,0.00047X0.01860*%
%ADD369R,0.00048X0.01860*%
%ADD370R,0.00047X0.01900*%
%ADD371R,0.00048X0.01520*%
%ADD372R,0.00048X0.01150*%
%ADD373R,0.00048X0.00950*%
%ADD374R,0.00048X0.00860*%
%ADD375R,0.00047X0.00710*%
%ADD376R,0.00048X0.00620*%
%ADD377R,0.00047X0.00480*%
%ADD378R,0.00048X0.00380*%
%ADD379R,0.00048X0.00280*%
%ADD380R,0.00047X0.00150*%
%ADD381R,0.00048X0.00050*%
%ADD382R,0.00050X0.00047*%
%ADD383R,0.01380X0.00047*%
%ADD384R,0.00040X0.00048*%
%ADD385R,0.02000X0.00048*%
%ADD386R,0.03000X0.00047*%
%ADD387R,0.03330X0.00048*%
%ADD388R,0.03620X0.00048*%
%ADD389R,0.03910X0.00047*%
%ADD390R,0.04670X0.00048*%
%ADD391R,0.04910X0.00048*%
%ADD392R,0.05050X0.00047*%
%ADD393R,0.05290X0.00048*%
%ADD394R,0.05430X0.00047*%
%ADD395R,0.05620X0.00048*%
%ADD396R,0.05810X0.00048*%
%ADD397R,0.06000X0.00047*%
%ADD398R,0.06090X0.00048*%
%ADD399R,0.06290X0.00048*%
%ADD400R,0.06380X0.00047*%
%ADD401R,0.06570X0.00048*%
%ADD402R,0.06670X0.00047*%
%ADD403R,0.06810X0.00048*%
%ADD404R,0.06860X0.00048*%
%ADD405R,0.07050X0.00047*%
%ADD406R,0.07140X0.00048*%
%ADD407R,0.07240X0.00048*%
%ADD408R,0.07330X0.00047*%
%ADD409R,0.07430X0.00048*%
%ADD410R,0.07570X0.00047*%
%ADD411R,0.07660X0.00048*%
%ADD412R,0.00100X0.00048*%
%ADD413R,0.07760X0.00048*%
%ADD414R,0.00240X0.00048*%
%ADD415R,0.07860X0.00047*%
%ADD416R,0.07960X0.00048*%
%ADD417R,0.08040X0.00047*%
%ADD418R,0.00480X0.00047*%
%ADD419R,0.08140X0.00048*%
%ADD420R,0.08190X0.00048*%
%ADD421R,0.00620X0.00048*%
%ADD422R,0.08240X0.00047*%
%ADD423R,0.00760X0.00047*%
%ADD424R,0.08340X0.00048*%
%ADD425R,0.00860X0.00048*%
%ADD426R,0.08430X0.00048*%
%ADD427R,0.08470X0.00047*%
%ADD428R,0.01000X0.00047*%
%ADD429R,0.04240X0.00048*%
%ADD430R,0.00040X0.00048*%
%ADD431R,0.03810X0.00048*%
%ADD432R,0.01090X0.00048*%
%ADD433R,0.03810X0.00047*%
%ADD434R,0.03620X0.00047*%
%ADD435R,0.03570X0.00048*%
%ADD436R,0.03380X0.00048*%
%ADD437R,0.03390X0.00048*%
%ADD438R,0.03290X0.00048*%
%ADD439R,0.03280X0.00047*%
%ADD440R,0.04570X0.00047*%
%ADD441R,0.03140X0.00048*%
%ADD442R,0.03090X0.00048*%
%ADD443R,0.04280X0.00048*%
%ADD444R,0.04150X0.00047*%
%ADD445R,0.02910X0.00048*%
%ADD446R,0.04000X0.00048*%
%ADD447R,0.02860X0.00047*%
%ADD448R,0.03960X0.00047*%
%ADD449R,0.02810X0.00048*%
%ADD450R,0.03810X0.00048*%
%ADD451R,0.02710X0.00048*%
%ADD452R,0.03710X0.00048*%
%ADD453R,0.02710X0.00047*%
%ADD454R,0.03670X0.00047*%
%ADD455R,0.02670X0.00048*%
%ADD456R,0.03570X0.00048*%
%ADD457R,0.03480X0.00047*%
%ADD458R,0.02570X0.00048*%
%ADD459R,0.03430X0.00048*%
%ADD460R,0.02530X0.00048*%
%ADD461R,0.02520X0.00047*%
%ADD462R,0.03280X0.00047*%
%ADD463R,0.02470X0.00048*%
%ADD464R,0.03190X0.00048*%
%ADD465R,0.02470X0.00048*%
%ADD466R,0.03190X0.00048*%
%ADD467R,0.02480X0.00047*%
%ADD468R,0.03090X0.00047*%
%ADD469R,0.03040X0.00048*%
%ADD470R,0.02380X0.00047*%
%ADD471R,0.02380X0.00048*%
%ADD472R,0.02340X0.00048*%
%ADD473R,0.03190X0.00048*%
%ADD474R,0.02330X0.00047*%
%ADD475R,0.03290X0.00047*%
%ADD476R,0.02280X0.00048*%
%ADD477R,0.02330X0.00048*%
%ADD478R,0.03480X0.00048*%
%ADD479R,0.02280X0.00047*%
%ADD480R,0.03520X0.00047*%
%ADD481R,0.02290X0.00048*%
%ADD482R,0.03620X0.00048*%
%ADD483R,0.02240X0.00047*%
%ADD484R,0.03720X0.00047*%
%ADD485R,0.02240X0.00048*%
%ADD486R,0.03860X0.00048*%
%ADD487R,0.03900X0.00048*%
%ADD488R,0.02190X0.00047*%
%ADD489R,0.04000X0.00047*%
%ADD490R,0.04050X0.00048*%
%ADD491R,0.02200X0.00047*%
%ADD492R,0.04190X0.00047*%
%ADD493R,0.02200X0.00048*%
%ADD494R,0.04230X0.00048*%
%ADD495R,0.02190X0.00048*%
%ADD496R,0.04330X0.00048*%
%ADD497R,0.02140X0.00047*%
%ADD498R,0.04380X0.00047*%
%ADD499R,0.02140X0.00048*%
%ADD500R,0.04470X0.00048*%
%ADD501R,0.04340X0.00048*%
%ADD502R,0.04190X0.00047*%
%ADD503R,0.04100X0.00048*%
%ADD504R,0.04000X0.00047*%
%ADD505R,0.02140X0.00048*%
%ADD506R,0.03860X0.00048*%
%ADD507R,0.02100X0.00048*%
%ADD508R,0.03760X0.00048*%
%ADD509R,0.02100X0.00047*%
%ADD510R,0.02100X0.00048*%
%ADD511R,0.03530X0.00048*%
%ADD512R,0.03380X0.00048*%
%ADD513R,0.03240X0.00047*%
%ADD514R,0.02050X0.00048*%
%ADD515R,0.02090X0.00047*%
%ADD516R,0.02090X0.00048*%
%ADD517R,0.02950X0.00048*%
%ADD518R,0.02040X0.00048*%
%ADD519R,0.02040X0.00047*%
%ADD520R,0.02710X0.00047*%
%ADD521R,0.02050X0.00047*%
%ADD522R,0.02390X0.00048*%
%ADD523R,0.01670X0.00048*%
%ADD524R,0.02000X0.00047*%
%ADD525R,0.01620X0.00047*%
%ADD526R,0.01430X0.00048*%
%ADD527R,0.02000X0.00048*%
%ADD528R,0.00760X0.00048*%
%ADD529R,0.02000X0.00047*%
%ADD530R,0.00660X0.00047*%
%ADD531R,0.00480X0.00048*%
%ADD532R,0.00430X0.00048*%
%ADD533R,0.00240X0.00047*%
%ADD534R,0.01960X0.00048*%
%ADD535R,0.02040X0.00048*%
%ADD536R,0.01960X0.00048*%
%ADD537R,0.00040X0.00047*%
%ADD538R,0.00040X0.00047*%
%ADD539R,0.01960X0.00048*%
%ADD540R,0.02040X0.00047*%
%ADD541R,0.02050X0.00047*%
%ADD542R,0.02090X0.00047*%
%ADD543R,0.02040X0.00048*%
%ADD544R,0.02090X0.00048*%
%ADD545R,0.02090X0.00047*%
%ADD546R,0.02090X0.00048*%
%ADD547R,0.02090X0.00048*%
%ADD548R,0.02150X0.00048*%
%ADD549R,0.02100X0.00047*%
%ADD550R,0.02090X0.00047*%
%ADD551R,0.02140X0.00047*%
%ADD552R,0.02150X0.00047*%
%ADD553R,0.02190X0.00047*%
%ADD554R,0.02190X0.00048*%
%ADD555R,0.02240X0.00048*%
%ADD556R,0.02230X0.00048*%
%ADD557R,0.02290X0.00047*%
%ADD558R,0.02230X0.00047*%
%ADD559R,0.02290X0.00048*%
%ADD560R,0.02330X0.00048*%
%ADD561R,0.02380X0.00047*%
%ADD562R,0.02380X0.00048*%
%ADD563R,0.02430X0.00047*%
%ADD564R,0.02380X0.00047*%
%ADD565R,0.02430X0.00048*%
%ADD566R,0.02430X0.00048*%
%ADD567R,0.02480X0.00048*%
%ADD568R,0.02470X0.00047*%
%ADD569R,0.02480X0.00047*%
%ADD570R,0.02520X0.00048*%
%ADD571R,0.02480X0.00048*%
%ADD572R,0.02570X0.00047*%
%ADD573R,0.02530X0.00047*%
%ADD574R,0.02610X0.00048*%
%ADD575R,0.02520X0.00048*%
%ADD576R,0.02620X0.00048*%
%ADD577R,0.02720X0.00047*%
%ADD578R,0.02660X0.00048*%
%ADD579R,0.02860X0.00047*%
%ADD580R,0.02760X0.00047*%
%ADD581R,0.02900X0.00048*%
%ADD582R,0.02910X0.00048*%
%ADD583R,0.03040X0.00047*%
%ADD584R,0.02950X0.00047*%
%ADD585R,0.03150X0.00048*%
%ADD586R,0.03140X0.00048*%
%ADD587R,0.03380X0.00047*%
%ADD588R,0.03230X0.00047*%
%ADD589R,0.03520X0.00048*%
%ADD590R,0.03710X0.00048*%
%ADD591R,0.04050X0.00047*%
%ADD592R,0.00140X0.00047*%
%ADD593R,0.03950X0.00047*%
%ADD594R,0.08860X0.00048*%
%ADD595R,0.08760X0.00047*%
%ADD596R,0.08710X0.00048*%
%ADD597R,0.08620X0.00048*%
%ADD598R,0.08530X0.00047*%
%ADD599R,0.08380X0.00047*%
%ADD600R,0.08290X0.00048*%
%ADD601R,0.08090X0.00047*%
%ADD602R,0.08000X0.00048*%
%ADD603R,0.07910X0.00048*%
%ADD604R,0.07860X0.00047*%
%ADD605R,0.07670X0.00048*%
%ADD606R,0.07620X0.00047*%
%ADD607R,0.07470X0.00048*%
%ADD608R,0.07380X0.00048*%
%ADD609R,0.07240X0.00047*%
%ADD610R,0.07000X0.00048*%
%ADD611R,0.06910X0.00047*%
%ADD612R,0.06620X0.00047*%
%ADD613R,0.06480X0.00048*%
%ADD614R,0.06330X0.00048*%
%ADD615R,0.06190X0.00047*%
%ADD616R,0.06000X0.00048*%
%ADD617R,0.05860X0.00047*%
%ADD618R,0.05470X0.00048*%
%ADD619R,0.05240X0.00047*%
%ADD620R,0.05040X0.00048*%
%ADD621R,0.04860X0.00048*%
%ADD622R,0.04530X0.00047*%
%ADD623R,0.03720X0.00048*%
%ADD624R,0.03340X0.00048*%
%ADD625C,0.00394*%
%ADD626C,0.00600*%
%ADD627C,0.01200*%
%ADD628C,0.00400*%
%ADD629C,0.00300*%
D10*
X0157860Y0103161D02*
X0157860Y0105163D01*
X0159194Y0106498D01*
X0159194Y0107165D01*
X0157825Y0108561D02*
X0159325Y0110061D01*
X0156325Y0110061D01*
X0157825Y0108561D01*
X0157261Y0109125D02*
X0158389Y0109125D01*
X0156525Y0107165D02*
X0156525Y0106498D01*
X0157860Y0105163D01*
X0146963Y0122646D02*
X0144294Y0126650D01*
X0146963Y0126650D02*
X0144294Y0122646D01*
X0148294Y0124646D02*
X0149794Y0123146D01*
X0149794Y0126146D01*
X0148294Y0124646D01*
X0148749Y0125101D02*
X0149794Y0125101D01*
X0149794Y0124103D02*
X0148837Y0124103D01*
X0149747Y0126100D02*
X0149794Y0126100D01*
D11*
X0190376Y0001400D02*
X0013211Y0001400D01*
X0012926Y0001403D01*
X0012640Y0001414D01*
X0012355Y0001431D01*
X0012071Y0001455D01*
X0011787Y0001486D01*
X0011504Y0001524D01*
X0011223Y0001569D01*
X0010942Y0001620D01*
X0010662Y0001678D01*
X0010384Y0001743D01*
X0010108Y0001815D01*
X0009834Y0001893D01*
X0009561Y0001978D01*
X0009291Y0002070D01*
X0009023Y0002168D01*
X0008757Y0002272D01*
X0008494Y0002383D01*
X0008234Y0002500D01*
X0007976Y0002623D01*
X0007722Y0002753D01*
X0007471Y0002889D01*
X0007223Y0003030D01*
X0006979Y0003178D01*
X0006738Y0003331D01*
X0006502Y0003491D01*
X0006269Y0003656D01*
X0006040Y0003826D01*
X0005815Y0004002D01*
X0005595Y0004184D01*
X0005379Y0004370D01*
X0005168Y0004562D01*
X0004961Y0004759D01*
X0004759Y0004961D01*
X0004562Y0005168D01*
X0004370Y0005379D01*
X0004184Y0005595D01*
X0004002Y0005815D01*
X0003826Y0006040D01*
X0003656Y0006269D01*
X0003491Y0006502D01*
X0003331Y0006738D01*
X0003178Y0006979D01*
X0003030Y0007223D01*
X0002889Y0007471D01*
X0002753Y0007722D01*
X0002623Y0007976D01*
X0002500Y0008234D01*
X0002383Y0008494D01*
X0002272Y0008757D01*
X0002168Y0009023D01*
X0002070Y0009291D01*
X0001978Y0009561D01*
X0001893Y0009834D01*
X0001815Y0010108D01*
X0001743Y0010384D01*
X0001678Y0010662D01*
X0001620Y0010942D01*
X0001569Y0011223D01*
X0001524Y0011504D01*
X0001486Y0011787D01*
X0001455Y0012071D01*
X0001431Y0012355D01*
X0001414Y0012640D01*
X0001403Y0012926D01*
X0001400Y0013211D01*
X0001400Y0123447D01*
X0001403Y0123732D01*
X0001414Y0124018D01*
X0001431Y0124303D01*
X0001455Y0124587D01*
X0001486Y0124871D01*
X0001524Y0125154D01*
X0001569Y0125435D01*
X0001620Y0125716D01*
X0001678Y0125996D01*
X0001743Y0126274D01*
X0001815Y0126550D01*
X0001893Y0126824D01*
X0001978Y0127097D01*
X0002070Y0127367D01*
X0002168Y0127635D01*
X0002272Y0127901D01*
X0002383Y0128164D01*
X0002500Y0128424D01*
X0002623Y0128682D01*
X0002753Y0128936D01*
X0002889Y0129187D01*
X0003030Y0129435D01*
X0003178Y0129679D01*
X0003331Y0129920D01*
X0003491Y0130156D01*
X0003656Y0130389D01*
X0003826Y0130618D01*
X0004002Y0130843D01*
X0004184Y0131063D01*
X0004370Y0131279D01*
X0004562Y0131490D01*
X0004759Y0131697D01*
X0004961Y0131899D01*
X0005168Y0132096D01*
X0005379Y0132288D01*
X0005595Y0132474D01*
X0005815Y0132656D01*
X0006040Y0132832D01*
X0006269Y0133002D01*
X0006502Y0133167D01*
X0006738Y0133327D01*
X0006979Y0133480D01*
X0007223Y0133628D01*
X0007471Y0133769D01*
X0007722Y0133905D01*
X0007976Y0134035D01*
X0008234Y0134158D01*
X0008494Y0134275D01*
X0008757Y0134386D01*
X0009023Y0134490D01*
X0009291Y0134588D01*
X0009561Y0134680D01*
X0009834Y0134765D01*
X0010108Y0134843D01*
X0010384Y0134915D01*
X0010662Y0134980D01*
X0010942Y0135038D01*
X0011223Y0135089D01*
X0011504Y0135134D01*
X0011787Y0135172D01*
X0012071Y0135203D01*
X0012355Y0135227D01*
X0012640Y0135244D01*
X0012926Y0135255D01*
X0013211Y0135258D01*
X0190376Y0135258D01*
X0190661Y0135255D01*
X0190947Y0135244D01*
X0191232Y0135227D01*
X0191516Y0135203D01*
X0191800Y0135172D01*
X0192083Y0135134D01*
X0192364Y0135089D01*
X0192645Y0135038D01*
X0192925Y0134980D01*
X0193203Y0134915D01*
X0193479Y0134843D01*
X0193753Y0134765D01*
X0194026Y0134680D01*
X0194296Y0134588D01*
X0194564Y0134490D01*
X0194830Y0134386D01*
X0195093Y0134275D01*
X0195353Y0134158D01*
X0195611Y0134035D01*
X0195865Y0133905D01*
X0196116Y0133769D01*
X0196364Y0133628D01*
X0196608Y0133480D01*
X0196849Y0133327D01*
X0197085Y0133167D01*
X0197318Y0133002D01*
X0197547Y0132832D01*
X0197772Y0132656D01*
X0197992Y0132474D01*
X0198208Y0132288D01*
X0198419Y0132096D01*
X0198626Y0131899D01*
X0198828Y0131697D01*
X0199025Y0131490D01*
X0199217Y0131279D01*
X0199403Y0131063D01*
X0199585Y0130843D01*
X0199761Y0130618D01*
X0199931Y0130389D01*
X0200096Y0130156D01*
X0200256Y0129920D01*
X0200409Y0129679D01*
X0200557Y0129435D01*
X0200698Y0129187D01*
X0200834Y0128936D01*
X0200964Y0128682D01*
X0201087Y0128424D01*
X0201204Y0128164D01*
X0201315Y0127901D01*
X0201419Y0127635D01*
X0201517Y0127367D01*
X0201609Y0127097D01*
X0201694Y0126824D01*
X0201772Y0126550D01*
X0201844Y0126274D01*
X0201909Y0125996D01*
X0201967Y0125716D01*
X0202018Y0125435D01*
X0202063Y0125154D01*
X0202101Y0124871D01*
X0202132Y0124587D01*
X0202156Y0124303D01*
X0202173Y0124018D01*
X0202184Y0123732D01*
X0202187Y0123447D01*
X0202187Y0013211D01*
X0202184Y0012926D01*
X0202173Y0012640D01*
X0202156Y0012355D01*
X0202132Y0012071D01*
X0202101Y0011787D01*
X0202063Y0011504D01*
X0202018Y0011223D01*
X0201967Y0010942D01*
X0201909Y0010662D01*
X0201844Y0010384D01*
X0201772Y0010108D01*
X0201694Y0009834D01*
X0201609Y0009561D01*
X0201517Y0009291D01*
X0201419Y0009023D01*
X0201315Y0008757D01*
X0201204Y0008494D01*
X0201087Y0008234D01*
X0200964Y0007976D01*
X0200834Y0007722D01*
X0200698Y0007471D01*
X0200557Y0007223D01*
X0200409Y0006979D01*
X0200256Y0006738D01*
X0200096Y0006502D01*
X0199931Y0006269D01*
X0199761Y0006040D01*
X0199585Y0005815D01*
X0199403Y0005595D01*
X0199217Y0005379D01*
X0199025Y0005168D01*
X0198828Y0004961D01*
X0198626Y0004759D01*
X0198419Y0004562D01*
X0198208Y0004370D01*
X0197992Y0004184D01*
X0197772Y0004002D01*
X0197547Y0003826D01*
X0197318Y0003656D01*
X0197085Y0003491D01*
X0196849Y0003331D01*
X0196608Y0003178D01*
X0196364Y0003030D01*
X0196116Y0002889D01*
X0195865Y0002753D01*
X0195611Y0002623D01*
X0195353Y0002500D01*
X0195093Y0002383D01*
X0194830Y0002272D01*
X0194564Y0002168D01*
X0194296Y0002070D01*
X0194026Y0001978D01*
X0193753Y0001893D01*
X0193479Y0001815D01*
X0193203Y0001743D01*
X0192925Y0001678D01*
X0192645Y0001620D01*
X0192364Y0001569D01*
X0192083Y0001524D01*
X0191800Y0001486D01*
X0191516Y0001455D01*
X0191232Y0001431D01*
X0190947Y0001414D01*
X0190661Y0001403D01*
X0190376Y0001400D01*
X0170296Y0018074D02*
X0166296Y0018074D01*
X0166296Y0026074D01*
X0170296Y0026074D01*
X0170296Y0018074D01*
X0165196Y0015574D02*
X0160196Y0015574D01*
X0160196Y0026574D01*
X0165196Y0026574D01*
X0165196Y0015574D01*
X0151496Y0013574D02*
X0151496Y0009574D01*
X0143496Y0009574D01*
X0143496Y0013574D01*
X0151496Y0013574D01*
X0134496Y0014974D02*
X0129496Y0014974D01*
X0129496Y0025974D01*
X0134496Y0025974D01*
X0134496Y0014974D01*
X0128396Y0017674D02*
X0124396Y0017674D01*
X0124396Y0025674D01*
X0128396Y0025674D01*
X0128396Y0017674D01*
X0115696Y0018474D02*
X0115696Y0022474D01*
X0107696Y0022474D01*
X0107696Y0018474D01*
X0115696Y0018474D01*
X0115596Y0014974D02*
X0115596Y0010974D01*
X0107596Y0010974D01*
X0107596Y0014974D01*
X0115596Y0014974D01*
X0106108Y0015533D02*
X0106108Y0010415D01*
X0095084Y0010415D01*
X0095084Y0015533D01*
X0106108Y0015533D01*
X0106208Y0017915D02*
X0106208Y0023033D01*
X0095184Y0023033D01*
X0095184Y0017915D01*
X0106208Y0017915D01*
X0107496Y0030674D02*
X0107496Y0035674D01*
X0118496Y0035674D01*
X0118496Y0030674D01*
X0107496Y0030674D01*
X0110096Y0036874D02*
X0110096Y0040874D01*
X0118096Y0040874D01*
X0118096Y0036874D01*
X0110096Y0036874D01*
X0082496Y0056622D02*
X0082496Y0060622D01*
X0074496Y0060622D01*
X0074496Y0056622D01*
X0082496Y0056622D01*
X0082496Y0061422D02*
X0082496Y0065422D01*
X0074496Y0065422D01*
X0074496Y0061422D01*
X0082496Y0061422D01*
X0063296Y0050774D02*
X0063296Y0046774D01*
X0055296Y0046774D01*
X0055296Y0050774D01*
X0063296Y0050774D01*
X0063296Y0045674D02*
X0055296Y0045674D01*
X0055296Y0041674D01*
X0063296Y0041674D01*
X0063296Y0045674D01*
X0039096Y0047174D02*
X0028096Y0047174D01*
X0028096Y0052174D01*
X0039096Y0052174D01*
X0039096Y0047174D01*
X0036822Y0054274D02*
X0028822Y0054274D01*
X0028822Y0058274D01*
X0036822Y0058274D01*
X0036822Y0054274D01*
X0022696Y0051274D02*
X0018696Y0051274D01*
X0018696Y0043274D01*
X0022696Y0043274D01*
X0022696Y0051274D01*
X0016596Y0051274D02*
X0012596Y0051274D01*
X0012596Y0043274D01*
X0016596Y0043274D01*
X0016596Y0051274D01*
X0038822Y0066774D02*
X0042822Y0066774D01*
X0042822Y0074774D01*
X0038822Y0074774D01*
X0038822Y0066774D01*
X0024896Y0083274D02*
X0016896Y0083274D01*
X0016896Y0087274D01*
X0024896Y0087274D01*
X0024896Y0083274D01*
X0024896Y0088374D02*
X0016896Y0088374D01*
X0016896Y0092374D01*
X0024896Y0092374D01*
X0024896Y0088374D01*
X0013296Y0080474D02*
X0013296Y0072474D01*
X0009296Y0072474D01*
X0009296Y0080474D01*
X0013296Y0080474D01*
X0053096Y0087674D02*
X0057096Y0087674D01*
X0057096Y0095674D01*
X0053096Y0095674D01*
X0053096Y0087674D01*
X0058096Y0087674D02*
X0058096Y0095674D01*
X0062096Y0095674D01*
X0062096Y0087674D01*
X0058096Y0087674D01*
X0063096Y0087674D02*
X0067096Y0087674D01*
X0067096Y0095674D01*
X0063096Y0095674D01*
X0063096Y0087674D01*
X0071696Y0085474D02*
X0071696Y0090474D01*
X0082696Y0090474D01*
X0082696Y0085474D01*
X0071696Y0085474D01*
X0072196Y0084174D02*
X0076196Y0084174D01*
X0076196Y0076174D01*
X0072196Y0076174D01*
X0072196Y0084174D01*
X0077296Y0084174D02*
X0081296Y0084174D01*
X0081296Y0076174D01*
X0077296Y0076174D01*
X0077296Y0084174D01*
X0095022Y0083762D02*
X0095024Y0083824D01*
X0095030Y0083887D01*
X0095040Y0083948D01*
X0095054Y0084009D01*
X0095071Y0084069D01*
X0095092Y0084128D01*
X0095118Y0084185D01*
X0095146Y0084240D01*
X0095178Y0084294D01*
X0095214Y0084345D01*
X0095252Y0084395D01*
X0095294Y0084441D01*
X0095338Y0084485D01*
X0095386Y0084526D01*
X0095435Y0084564D01*
X0095487Y0084598D01*
X0095541Y0084629D01*
X0095597Y0084657D01*
X0095655Y0084681D01*
X0095714Y0084702D01*
X0095774Y0084718D01*
X0095835Y0084731D01*
X0095897Y0084740D01*
X0095959Y0084745D01*
X0096022Y0084746D01*
X0096084Y0084743D01*
X0096146Y0084736D01*
X0096208Y0084725D01*
X0096268Y0084710D01*
X0096328Y0084692D01*
X0096386Y0084670D01*
X0096443Y0084644D01*
X0096498Y0084614D01*
X0096551Y0084581D01*
X0096602Y0084545D01*
X0096650Y0084506D01*
X0096696Y0084463D01*
X0096739Y0084418D01*
X0096779Y0084370D01*
X0096816Y0084320D01*
X0096850Y0084267D01*
X0096881Y0084213D01*
X0096907Y0084157D01*
X0096931Y0084099D01*
X0096950Y0084039D01*
X0096966Y0083979D01*
X0096978Y0083917D01*
X0096986Y0083856D01*
X0096990Y0083793D01*
X0096990Y0083731D01*
X0096986Y0083668D01*
X0096978Y0083607D01*
X0096966Y0083545D01*
X0096950Y0083485D01*
X0096931Y0083425D01*
X0096907Y0083367D01*
X0096881Y0083311D01*
X0096850Y0083257D01*
X0096816Y0083204D01*
X0096779Y0083154D01*
X0096739Y0083106D01*
X0096696Y0083061D01*
X0096650Y0083018D01*
X0096602Y0082979D01*
X0096551Y0082943D01*
X0096498Y0082910D01*
X0096443Y0082880D01*
X0096386Y0082854D01*
X0096328Y0082832D01*
X0096268Y0082814D01*
X0096208Y0082799D01*
X0096146Y0082788D01*
X0096084Y0082781D01*
X0096022Y0082778D01*
X0095959Y0082779D01*
X0095897Y0082784D01*
X0095835Y0082793D01*
X0095774Y0082806D01*
X0095714Y0082822D01*
X0095655Y0082843D01*
X0095597Y0082867D01*
X0095541Y0082895D01*
X0095487Y0082926D01*
X0095435Y0082960D01*
X0095386Y0082998D01*
X0095338Y0083039D01*
X0095294Y0083083D01*
X0095252Y0083129D01*
X0095214Y0083179D01*
X0095178Y0083230D01*
X0095146Y0083284D01*
X0095118Y0083339D01*
X0095092Y0083396D01*
X0095071Y0083455D01*
X0095054Y0083515D01*
X0095040Y0083576D01*
X0095030Y0083637D01*
X0095024Y0083700D01*
X0095022Y0083762D01*
X0100896Y0096874D02*
X0100896Y0100874D01*
X0108896Y0100874D01*
X0108896Y0096874D01*
X0100896Y0096874D01*
X0100896Y0101674D02*
X0100896Y0105674D01*
X0108896Y0105674D01*
X0108896Y0101674D01*
X0100896Y0101674D01*
X0110496Y0101674D02*
X0110496Y0105674D01*
X0118496Y0105674D01*
X0118496Y0101674D01*
X0110496Y0101674D01*
X0110496Y0100874D02*
X0118496Y0100874D01*
X0118496Y0096874D01*
X0110496Y0096874D01*
X0110496Y0100874D01*
X0129696Y0104874D02*
X0129696Y0108874D01*
X0137696Y0108874D01*
X0137696Y0104874D01*
X0129696Y0104874D01*
X0129696Y0109674D02*
X0129696Y0113674D01*
X0137696Y0113674D01*
X0137696Y0109674D01*
X0129696Y0109674D01*
X0129696Y0114474D02*
X0129696Y0118474D01*
X0137696Y0118474D01*
X0137696Y0114474D01*
X0129696Y0114474D01*
X0109668Y0120494D02*
X0109668Y0126400D01*
X0097857Y0126400D01*
X0097857Y0120494D01*
X0109668Y0120494D01*
X0082140Y0119447D02*
X0078140Y0119447D01*
X0078140Y0127447D01*
X0082140Y0127447D01*
X0082140Y0119447D01*
X0082140Y0115636D02*
X0078140Y0115636D01*
X0078140Y0107636D01*
X0082140Y0107636D01*
X0082140Y0115636D01*
X0076666Y0119447D02*
X0072666Y0119447D01*
X0072666Y0127447D01*
X0076666Y0127447D01*
X0076666Y0119447D01*
X0149206Y0079658D02*
X0149206Y0071658D01*
X0153206Y0071658D01*
X0153206Y0079658D01*
X0149206Y0079658D01*
X0154083Y0079647D02*
X0158083Y0079647D01*
X0158083Y0071647D01*
X0154083Y0071647D01*
X0154083Y0079647D01*
X0170496Y0085674D02*
X0170496Y0089674D01*
X0178496Y0089674D01*
X0178496Y0085674D01*
X0170496Y0085674D01*
X0170496Y0090874D02*
X0170496Y0094874D01*
X0178496Y0094874D01*
X0178496Y0090874D01*
X0170496Y0090874D01*
X0168182Y0114472D02*
X0166047Y0114472D01*
X0166047Y0115005D01*
X0168182Y0117141D01*
X0168182Y0117674D01*
X0166047Y0117674D01*
X0165796Y0051374D02*
X0157796Y0051374D01*
X0157796Y0047374D01*
X0165796Y0047374D01*
X0165796Y0051374D01*
X0168896Y0043874D02*
X0172896Y0043874D01*
X0172896Y0035874D01*
X0168896Y0035874D01*
X0168896Y0043874D01*
X0174096Y0043874D02*
X0178096Y0043874D01*
X0178096Y0035874D01*
X0174096Y0035874D01*
X0174096Y0043874D01*
X0152796Y0047274D02*
X0152796Y0051274D01*
X0144796Y0051274D01*
X0144796Y0047274D01*
X0152796Y0047274D01*
D12*
X0180140Y0017148D02*
X0180142Y0017306D01*
X0180148Y0017464D01*
X0180158Y0017622D01*
X0180172Y0017780D01*
X0180190Y0017937D01*
X0180211Y0018094D01*
X0180237Y0018250D01*
X0180267Y0018406D01*
X0180300Y0018561D01*
X0180338Y0018714D01*
X0180379Y0018867D01*
X0180424Y0019019D01*
X0180473Y0019170D01*
X0180526Y0019319D01*
X0180582Y0019467D01*
X0180642Y0019613D01*
X0180706Y0019758D01*
X0180774Y0019901D01*
X0180845Y0020043D01*
X0180919Y0020183D01*
X0180997Y0020320D01*
X0181079Y0020456D01*
X0181163Y0020590D01*
X0181252Y0020721D01*
X0181343Y0020850D01*
X0181438Y0020977D01*
X0181535Y0021102D01*
X0181636Y0021224D01*
X0181740Y0021343D01*
X0181847Y0021460D01*
X0181957Y0021574D01*
X0182070Y0021685D01*
X0182185Y0021794D01*
X0182303Y0021899D01*
X0182424Y0022001D01*
X0182547Y0022101D01*
X0182673Y0022197D01*
X0182801Y0022290D01*
X0182931Y0022380D01*
X0183064Y0022466D01*
X0183199Y0022550D01*
X0183335Y0022629D01*
X0183474Y0022706D01*
X0183615Y0022778D01*
X0183757Y0022848D01*
X0183901Y0022913D01*
X0184047Y0022975D01*
X0184194Y0023033D01*
X0184343Y0023088D01*
X0184493Y0023139D01*
X0184644Y0023186D01*
X0184796Y0023229D01*
X0184949Y0023268D01*
X0185104Y0023304D01*
X0185259Y0023335D01*
X0185415Y0023363D01*
X0185571Y0023387D01*
X0185728Y0023407D01*
X0185886Y0023423D01*
X0186043Y0023435D01*
X0186202Y0023443D01*
X0186360Y0023447D01*
X0186518Y0023447D01*
X0186676Y0023443D01*
X0186835Y0023435D01*
X0186992Y0023423D01*
X0187150Y0023407D01*
X0187307Y0023387D01*
X0187463Y0023363D01*
X0187619Y0023335D01*
X0187774Y0023304D01*
X0187929Y0023268D01*
X0188082Y0023229D01*
X0188234Y0023186D01*
X0188385Y0023139D01*
X0188535Y0023088D01*
X0188684Y0023033D01*
X0188831Y0022975D01*
X0188977Y0022913D01*
X0189121Y0022848D01*
X0189263Y0022778D01*
X0189404Y0022706D01*
X0189543Y0022629D01*
X0189679Y0022550D01*
X0189814Y0022466D01*
X0189947Y0022380D01*
X0190077Y0022290D01*
X0190205Y0022197D01*
X0190331Y0022101D01*
X0190454Y0022001D01*
X0190575Y0021899D01*
X0190693Y0021794D01*
X0190808Y0021685D01*
X0190921Y0021574D01*
X0191031Y0021460D01*
X0191138Y0021343D01*
X0191242Y0021224D01*
X0191343Y0021102D01*
X0191440Y0020977D01*
X0191535Y0020850D01*
X0191626Y0020721D01*
X0191715Y0020590D01*
X0191799Y0020456D01*
X0191881Y0020320D01*
X0191959Y0020183D01*
X0192033Y0020043D01*
X0192104Y0019901D01*
X0192172Y0019758D01*
X0192236Y0019613D01*
X0192296Y0019467D01*
X0192352Y0019319D01*
X0192405Y0019170D01*
X0192454Y0019019D01*
X0192499Y0018867D01*
X0192540Y0018714D01*
X0192578Y0018561D01*
X0192611Y0018406D01*
X0192641Y0018250D01*
X0192667Y0018094D01*
X0192688Y0017937D01*
X0192706Y0017780D01*
X0192720Y0017622D01*
X0192730Y0017464D01*
X0192736Y0017306D01*
X0192738Y0017148D01*
X0192736Y0016990D01*
X0192730Y0016832D01*
X0192720Y0016674D01*
X0192706Y0016516D01*
X0192688Y0016359D01*
X0192667Y0016202D01*
X0192641Y0016046D01*
X0192611Y0015890D01*
X0192578Y0015735D01*
X0192540Y0015582D01*
X0192499Y0015429D01*
X0192454Y0015277D01*
X0192405Y0015126D01*
X0192352Y0014977D01*
X0192296Y0014829D01*
X0192236Y0014683D01*
X0192172Y0014538D01*
X0192104Y0014395D01*
X0192033Y0014253D01*
X0191959Y0014113D01*
X0191881Y0013976D01*
X0191799Y0013840D01*
X0191715Y0013706D01*
X0191626Y0013575D01*
X0191535Y0013446D01*
X0191440Y0013319D01*
X0191343Y0013194D01*
X0191242Y0013072D01*
X0191138Y0012953D01*
X0191031Y0012836D01*
X0190921Y0012722D01*
X0190808Y0012611D01*
X0190693Y0012502D01*
X0190575Y0012397D01*
X0190454Y0012295D01*
X0190331Y0012195D01*
X0190205Y0012099D01*
X0190077Y0012006D01*
X0189947Y0011916D01*
X0189814Y0011830D01*
X0189679Y0011746D01*
X0189543Y0011667D01*
X0189404Y0011590D01*
X0189263Y0011518D01*
X0189121Y0011448D01*
X0188977Y0011383D01*
X0188831Y0011321D01*
X0188684Y0011263D01*
X0188535Y0011208D01*
X0188385Y0011157D01*
X0188234Y0011110D01*
X0188082Y0011067D01*
X0187929Y0011028D01*
X0187774Y0010992D01*
X0187619Y0010961D01*
X0187463Y0010933D01*
X0187307Y0010909D01*
X0187150Y0010889D01*
X0186992Y0010873D01*
X0186835Y0010861D01*
X0186676Y0010853D01*
X0186518Y0010849D01*
X0186360Y0010849D01*
X0186202Y0010853D01*
X0186043Y0010861D01*
X0185886Y0010873D01*
X0185728Y0010889D01*
X0185571Y0010909D01*
X0185415Y0010933D01*
X0185259Y0010961D01*
X0185104Y0010992D01*
X0184949Y0011028D01*
X0184796Y0011067D01*
X0184644Y0011110D01*
X0184493Y0011157D01*
X0184343Y0011208D01*
X0184194Y0011263D01*
X0184047Y0011321D01*
X0183901Y0011383D01*
X0183757Y0011448D01*
X0183615Y0011518D01*
X0183474Y0011590D01*
X0183335Y0011667D01*
X0183199Y0011746D01*
X0183064Y0011830D01*
X0182931Y0011916D01*
X0182801Y0012006D01*
X0182673Y0012099D01*
X0182547Y0012195D01*
X0182424Y0012295D01*
X0182303Y0012397D01*
X0182185Y0012502D01*
X0182070Y0012611D01*
X0181957Y0012722D01*
X0181847Y0012836D01*
X0181740Y0012953D01*
X0181636Y0013072D01*
X0181535Y0013194D01*
X0181438Y0013319D01*
X0181343Y0013446D01*
X0181252Y0013575D01*
X0181163Y0013706D01*
X0181079Y0013840D01*
X0180997Y0013976D01*
X0180919Y0014113D01*
X0180845Y0014253D01*
X0180774Y0014395D01*
X0180706Y0014538D01*
X0180642Y0014683D01*
X0180582Y0014829D01*
X0180526Y0014977D01*
X0180473Y0015126D01*
X0180424Y0015277D01*
X0180379Y0015429D01*
X0180338Y0015582D01*
X0180300Y0015735D01*
X0180267Y0015890D01*
X0180237Y0016046D01*
X0180211Y0016202D01*
X0180190Y0016359D01*
X0180172Y0016516D01*
X0180158Y0016674D01*
X0180148Y0016832D01*
X0180142Y0016990D01*
X0180140Y0017148D01*
X0180140Y0119510D02*
X0180142Y0119668D01*
X0180148Y0119826D01*
X0180158Y0119984D01*
X0180172Y0120142D01*
X0180190Y0120299D01*
X0180211Y0120456D01*
X0180237Y0120612D01*
X0180267Y0120768D01*
X0180300Y0120923D01*
X0180338Y0121076D01*
X0180379Y0121229D01*
X0180424Y0121381D01*
X0180473Y0121532D01*
X0180526Y0121681D01*
X0180582Y0121829D01*
X0180642Y0121975D01*
X0180706Y0122120D01*
X0180774Y0122263D01*
X0180845Y0122405D01*
X0180919Y0122545D01*
X0180997Y0122682D01*
X0181079Y0122818D01*
X0181163Y0122952D01*
X0181252Y0123083D01*
X0181343Y0123212D01*
X0181438Y0123339D01*
X0181535Y0123464D01*
X0181636Y0123586D01*
X0181740Y0123705D01*
X0181847Y0123822D01*
X0181957Y0123936D01*
X0182070Y0124047D01*
X0182185Y0124156D01*
X0182303Y0124261D01*
X0182424Y0124363D01*
X0182547Y0124463D01*
X0182673Y0124559D01*
X0182801Y0124652D01*
X0182931Y0124742D01*
X0183064Y0124828D01*
X0183199Y0124912D01*
X0183335Y0124991D01*
X0183474Y0125068D01*
X0183615Y0125140D01*
X0183757Y0125210D01*
X0183901Y0125275D01*
X0184047Y0125337D01*
X0184194Y0125395D01*
X0184343Y0125450D01*
X0184493Y0125501D01*
X0184644Y0125548D01*
X0184796Y0125591D01*
X0184949Y0125630D01*
X0185104Y0125666D01*
X0185259Y0125697D01*
X0185415Y0125725D01*
X0185571Y0125749D01*
X0185728Y0125769D01*
X0185886Y0125785D01*
X0186043Y0125797D01*
X0186202Y0125805D01*
X0186360Y0125809D01*
X0186518Y0125809D01*
X0186676Y0125805D01*
X0186835Y0125797D01*
X0186992Y0125785D01*
X0187150Y0125769D01*
X0187307Y0125749D01*
X0187463Y0125725D01*
X0187619Y0125697D01*
X0187774Y0125666D01*
X0187929Y0125630D01*
X0188082Y0125591D01*
X0188234Y0125548D01*
X0188385Y0125501D01*
X0188535Y0125450D01*
X0188684Y0125395D01*
X0188831Y0125337D01*
X0188977Y0125275D01*
X0189121Y0125210D01*
X0189263Y0125140D01*
X0189404Y0125068D01*
X0189543Y0124991D01*
X0189679Y0124912D01*
X0189814Y0124828D01*
X0189947Y0124742D01*
X0190077Y0124652D01*
X0190205Y0124559D01*
X0190331Y0124463D01*
X0190454Y0124363D01*
X0190575Y0124261D01*
X0190693Y0124156D01*
X0190808Y0124047D01*
X0190921Y0123936D01*
X0191031Y0123822D01*
X0191138Y0123705D01*
X0191242Y0123586D01*
X0191343Y0123464D01*
X0191440Y0123339D01*
X0191535Y0123212D01*
X0191626Y0123083D01*
X0191715Y0122952D01*
X0191799Y0122818D01*
X0191881Y0122682D01*
X0191959Y0122545D01*
X0192033Y0122405D01*
X0192104Y0122263D01*
X0192172Y0122120D01*
X0192236Y0121975D01*
X0192296Y0121829D01*
X0192352Y0121681D01*
X0192405Y0121532D01*
X0192454Y0121381D01*
X0192499Y0121229D01*
X0192540Y0121076D01*
X0192578Y0120923D01*
X0192611Y0120768D01*
X0192641Y0120612D01*
X0192667Y0120456D01*
X0192688Y0120299D01*
X0192706Y0120142D01*
X0192720Y0119984D01*
X0192730Y0119826D01*
X0192736Y0119668D01*
X0192738Y0119510D01*
X0192736Y0119352D01*
X0192730Y0119194D01*
X0192720Y0119036D01*
X0192706Y0118878D01*
X0192688Y0118721D01*
X0192667Y0118564D01*
X0192641Y0118408D01*
X0192611Y0118252D01*
X0192578Y0118097D01*
X0192540Y0117944D01*
X0192499Y0117791D01*
X0192454Y0117639D01*
X0192405Y0117488D01*
X0192352Y0117339D01*
X0192296Y0117191D01*
X0192236Y0117045D01*
X0192172Y0116900D01*
X0192104Y0116757D01*
X0192033Y0116615D01*
X0191959Y0116475D01*
X0191881Y0116338D01*
X0191799Y0116202D01*
X0191715Y0116068D01*
X0191626Y0115937D01*
X0191535Y0115808D01*
X0191440Y0115681D01*
X0191343Y0115556D01*
X0191242Y0115434D01*
X0191138Y0115315D01*
X0191031Y0115198D01*
X0190921Y0115084D01*
X0190808Y0114973D01*
X0190693Y0114864D01*
X0190575Y0114759D01*
X0190454Y0114657D01*
X0190331Y0114557D01*
X0190205Y0114461D01*
X0190077Y0114368D01*
X0189947Y0114278D01*
X0189814Y0114192D01*
X0189679Y0114108D01*
X0189543Y0114029D01*
X0189404Y0113952D01*
X0189263Y0113880D01*
X0189121Y0113810D01*
X0188977Y0113745D01*
X0188831Y0113683D01*
X0188684Y0113625D01*
X0188535Y0113570D01*
X0188385Y0113519D01*
X0188234Y0113472D01*
X0188082Y0113429D01*
X0187929Y0113390D01*
X0187774Y0113354D01*
X0187619Y0113323D01*
X0187463Y0113295D01*
X0187307Y0113271D01*
X0187150Y0113251D01*
X0186992Y0113235D01*
X0186835Y0113223D01*
X0186676Y0113215D01*
X0186518Y0113211D01*
X0186360Y0113211D01*
X0186202Y0113215D01*
X0186043Y0113223D01*
X0185886Y0113235D01*
X0185728Y0113251D01*
X0185571Y0113271D01*
X0185415Y0113295D01*
X0185259Y0113323D01*
X0185104Y0113354D01*
X0184949Y0113390D01*
X0184796Y0113429D01*
X0184644Y0113472D01*
X0184493Y0113519D01*
X0184343Y0113570D01*
X0184194Y0113625D01*
X0184047Y0113683D01*
X0183901Y0113745D01*
X0183757Y0113810D01*
X0183615Y0113880D01*
X0183474Y0113952D01*
X0183335Y0114029D01*
X0183199Y0114108D01*
X0183064Y0114192D01*
X0182931Y0114278D01*
X0182801Y0114368D01*
X0182673Y0114461D01*
X0182547Y0114557D01*
X0182424Y0114657D01*
X0182303Y0114759D01*
X0182185Y0114864D01*
X0182070Y0114973D01*
X0181957Y0115084D01*
X0181847Y0115198D01*
X0181740Y0115315D01*
X0181636Y0115434D01*
X0181535Y0115556D01*
X0181438Y0115681D01*
X0181343Y0115808D01*
X0181252Y0115937D01*
X0181163Y0116068D01*
X0181079Y0116202D01*
X0180997Y0116338D01*
X0180919Y0116475D01*
X0180845Y0116615D01*
X0180774Y0116757D01*
X0180706Y0116900D01*
X0180642Y0117045D01*
X0180582Y0117191D01*
X0180526Y0117339D01*
X0180473Y0117488D01*
X0180424Y0117639D01*
X0180379Y0117791D01*
X0180338Y0117944D01*
X0180300Y0118097D01*
X0180267Y0118252D01*
X0180237Y0118408D01*
X0180211Y0118564D01*
X0180190Y0118721D01*
X0180172Y0118878D01*
X0180158Y0119036D01*
X0180148Y0119194D01*
X0180142Y0119352D01*
X0180140Y0119510D01*
X0010849Y0119510D02*
X0010851Y0119668D01*
X0010857Y0119826D01*
X0010867Y0119984D01*
X0010881Y0120142D01*
X0010899Y0120299D01*
X0010920Y0120456D01*
X0010946Y0120612D01*
X0010976Y0120768D01*
X0011009Y0120923D01*
X0011047Y0121076D01*
X0011088Y0121229D01*
X0011133Y0121381D01*
X0011182Y0121532D01*
X0011235Y0121681D01*
X0011291Y0121829D01*
X0011351Y0121975D01*
X0011415Y0122120D01*
X0011483Y0122263D01*
X0011554Y0122405D01*
X0011628Y0122545D01*
X0011706Y0122682D01*
X0011788Y0122818D01*
X0011872Y0122952D01*
X0011961Y0123083D01*
X0012052Y0123212D01*
X0012147Y0123339D01*
X0012244Y0123464D01*
X0012345Y0123586D01*
X0012449Y0123705D01*
X0012556Y0123822D01*
X0012666Y0123936D01*
X0012779Y0124047D01*
X0012894Y0124156D01*
X0013012Y0124261D01*
X0013133Y0124363D01*
X0013256Y0124463D01*
X0013382Y0124559D01*
X0013510Y0124652D01*
X0013640Y0124742D01*
X0013773Y0124828D01*
X0013908Y0124912D01*
X0014044Y0124991D01*
X0014183Y0125068D01*
X0014324Y0125140D01*
X0014466Y0125210D01*
X0014610Y0125275D01*
X0014756Y0125337D01*
X0014903Y0125395D01*
X0015052Y0125450D01*
X0015202Y0125501D01*
X0015353Y0125548D01*
X0015505Y0125591D01*
X0015658Y0125630D01*
X0015813Y0125666D01*
X0015968Y0125697D01*
X0016124Y0125725D01*
X0016280Y0125749D01*
X0016437Y0125769D01*
X0016595Y0125785D01*
X0016752Y0125797D01*
X0016911Y0125805D01*
X0017069Y0125809D01*
X0017227Y0125809D01*
X0017385Y0125805D01*
X0017544Y0125797D01*
X0017701Y0125785D01*
X0017859Y0125769D01*
X0018016Y0125749D01*
X0018172Y0125725D01*
X0018328Y0125697D01*
X0018483Y0125666D01*
X0018638Y0125630D01*
X0018791Y0125591D01*
X0018943Y0125548D01*
X0019094Y0125501D01*
X0019244Y0125450D01*
X0019393Y0125395D01*
X0019540Y0125337D01*
X0019686Y0125275D01*
X0019830Y0125210D01*
X0019972Y0125140D01*
X0020113Y0125068D01*
X0020252Y0124991D01*
X0020388Y0124912D01*
X0020523Y0124828D01*
X0020656Y0124742D01*
X0020786Y0124652D01*
X0020914Y0124559D01*
X0021040Y0124463D01*
X0021163Y0124363D01*
X0021284Y0124261D01*
X0021402Y0124156D01*
X0021517Y0124047D01*
X0021630Y0123936D01*
X0021740Y0123822D01*
X0021847Y0123705D01*
X0021951Y0123586D01*
X0022052Y0123464D01*
X0022149Y0123339D01*
X0022244Y0123212D01*
X0022335Y0123083D01*
X0022424Y0122952D01*
X0022508Y0122818D01*
X0022590Y0122682D01*
X0022668Y0122545D01*
X0022742Y0122405D01*
X0022813Y0122263D01*
X0022881Y0122120D01*
X0022945Y0121975D01*
X0023005Y0121829D01*
X0023061Y0121681D01*
X0023114Y0121532D01*
X0023163Y0121381D01*
X0023208Y0121229D01*
X0023249Y0121076D01*
X0023287Y0120923D01*
X0023320Y0120768D01*
X0023350Y0120612D01*
X0023376Y0120456D01*
X0023397Y0120299D01*
X0023415Y0120142D01*
X0023429Y0119984D01*
X0023439Y0119826D01*
X0023445Y0119668D01*
X0023447Y0119510D01*
X0023445Y0119352D01*
X0023439Y0119194D01*
X0023429Y0119036D01*
X0023415Y0118878D01*
X0023397Y0118721D01*
X0023376Y0118564D01*
X0023350Y0118408D01*
X0023320Y0118252D01*
X0023287Y0118097D01*
X0023249Y0117944D01*
X0023208Y0117791D01*
X0023163Y0117639D01*
X0023114Y0117488D01*
X0023061Y0117339D01*
X0023005Y0117191D01*
X0022945Y0117045D01*
X0022881Y0116900D01*
X0022813Y0116757D01*
X0022742Y0116615D01*
X0022668Y0116475D01*
X0022590Y0116338D01*
X0022508Y0116202D01*
X0022424Y0116068D01*
X0022335Y0115937D01*
X0022244Y0115808D01*
X0022149Y0115681D01*
X0022052Y0115556D01*
X0021951Y0115434D01*
X0021847Y0115315D01*
X0021740Y0115198D01*
X0021630Y0115084D01*
X0021517Y0114973D01*
X0021402Y0114864D01*
X0021284Y0114759D01*
X0021163Y0114657D01*
X0021040Y0114557D01*
X0020914Y0114461D01*
X0020786Y0114368D01*
X0020656Y0114278D01*
X0020523Y0114192D01*
X0020388Y0114108D01*
X0020252Y0114029D01*
X0020113Y0113952D01*
X0019972Y0113880D01*
X0019830Y0113810D01*
X0019686Y0113745D01*
X0019540Y0113683D01*
X0019393Y0113625D01*
X0019244Y0113570D01*
X0019094Y0113519D01*
X0018943Y0113472D01*
X0018791Y0113429D01*
X0018638Y0113390D01*
X0018483Y0113354D01*
X0018328Y0113323D01*
X0018172Y0113295D01*
X0018016Y0113271D01*
X0017859Y0113251D01*
X0017701Y0113235D01*
X0017544Y0113223D01*
X0017385Y0113215D01*
X0017227Y0113211D01*
X0017069Y0113211D01*
X0016911Y0113215D01*
X0016752Y0113223D01*
X0016595Y0113235D01*
X0016437Y0113251D01*
X0016280Y0113271D01*
X0016124Y0113295D01*
X0015968Y0113323D01*
X0015813Y0113354D01*
X0015658Y0113390D01*
X0015505Y0113429D01*
X0015353Y0113472D01*
X0015202Y0113519D01*
X0015052Y0113570D01*
X0014903Y0113625D01*
X0014756Y0113683D01*
X0014610Y0113745D01*
X0014466Y0113810D01*
X0014324Y0113880D01*
X0014183Y0113952D01*
X0014044Y0114029D01*
X0013908Y0114108D01*
X0013773Y0114192D01*
X0013640Y0114278D01*
X0013510Y0114368D01*
X0013382Y0114461D01*
X0013256Y0114557D01*
X0013133Y0114657D01*
X0013012Y0114759D01*
X0012894Y0114864D01*
X0012779Y0114973D01*
X0012666Y0115084D01*
X0012556Y0115198D01*
X0012449Y0115315D01*
X0012345Y0115434D01*
X0012244Y0115556D01*
X0012147Y0115681D01*
X0012052Y0115808D01*
X0011961Y0115937D01*
X0011872Y0116068D01*
X0011788Y0116202D01*
X0011706Y0116338D01*
X0011628Y0116475D01*
X0011554Y0116615D01*
X0011483Y0116757D01*
X0011415Y0116900D01*
X0011351Y0117045D01*
X0011291Y0117191D01*
X0011235Y0117339D01*
X0011182Y0117488D01*
X0011133Y0117639D01*
X0011088Y0117791D01*
X0011047Y0117944D01*
X0011009Y0118097D01*
X0010976Y0118252D01*
X0010946Y0118408D01*
X0010920Y0118564D01*
X0010899Y0118721D01*
X0010881Y0118878D01*
X0010867Y0119036D01*
X0010857Y0119194D01*
X0010851Y0119352D01*
X0010849Y0119510D01*
X0010849Y0017148D02*
X0010851Y0017306D01*
X0010857Y0017464D01*
X0010867Y0017622D01*
X0010881Y0017780D01*
X0010899Y0017937D01*
X0010920Y0018094D01*
X0010946Y0018250D01*
X0010976Y0018406D01*
X0011009Y0018561D01*
X0011047Y0018714D01*
X0011088Y0018867D01*
X0011133Y0019019D01*
X0011182Y0019170D01*
X0011235Y0019319D01*
X0011291Y0019467D01*
X0011351Y0019613D01*
X0011415Y0019758D01*
X0011483Y0019901D01*
X0011554Y0020043D01*
X0011628Y0020183D01*
X0011706Y0020320D01*
X0011788Y0020456D01*
X0011872Y0020590D01*
X0011961Y0020721D01*
X0012052Y0020850D01*
X0012147Y0020977D01*
X0012244Y0021102D01*
X0012345Y0021224D01*
X0012449Y0021343D01*
X0012556Y0021460D01*
X0012666Y0021574D01*
X0012779Y0021685D01*
X0012894Y0021794D01*
X0013012Y0021899D01*
X0013133Y0022001D01*
X0013256Y0022101D01*
X0013382Y0022197D01*
X0013510Y0022290D01*
X0013640Y0022380D01*
X0013773Y0022466D01*
X0013908Y0022550D01*
X0014044Y0022629D01*
X0014183Y0022706D01*
X0014324Y0022778D01*
X0014466Y0022848D01*
X0014610Y0022913D01*
X0014756Y0022975D01*
X0014903Y0023033D01*
X0015052Y0023088D01*
X0015202Y0023139D01*
X0015353Y0023186D01*
X0015505Y0023229D01*
X0015658Y0023268D01*
X0015813Y0023304D01*
X0015968Y0023335D01*
X0016124Y0023363D01*
X0016280Y0023387D01*
X0016437Y0023407D01*
X0016595Y0023423D01*
X0016752Y0023435D01*
X0016911Y0023443D01*
X0017069Y0023447D01*
X0017227Y0023447D01*
X0017385Y0023443D01*
X0017544Y0023435D01*
X0017701Y0023423D01*
X0017859Y0023407D01*
X0018016Y0023387D01*
X0018172Y0023363D01*
X0018328Y0023335D01*
X0018483Y0023304D01*
X0018638Y0023268D01*
X0018791Y0023229D01*
X0018943Y0023186D01*
X0019094Y0023139D01*
X0019244Y0023088D01*
X0019393Y0023033D01*
X0019540Y0022975D01*
X0019686Y0022913D01*
X0019830Y0022848D01*
X0019972Y0022778D01*
X0020113Y0022706D01*
X0020252Y0022629D01*
X0020388Y0022550D01*
X0020523Y0022466D01*
X0020656Y0022380D01*
X0020786Y0022290D01*
X0020914Y0022197D01*
X0021040Y0022101D01*
X0021163Y0022001D01*
X0021284Y0021899D01*
X0021402Y0021794D01*
X0021517Y0021685D01*
X0021630Y0021574D01*
X0021740Y0021460D01*
X0021847Y0021343D01*
X0021951Y0021224D01*
X0022052Y0021102D01*
X0022149Y0020977D01*
X0022244Y0020850D01*
X0022335Y0020721D01*
X0022424Y0020590D01*
X0022508Y0020456D01*
X0022590Y0020320D01*
X0022668Y0020183D01*
X0022742Y0020043D01*
X0022813Y0019901D01*
X0022881Y0019758D01*
X0022945Y0019613D01*
X0023005Y0019467D01*
X0023061Y0019319D01*
X0023114Y0019170D01*
X0023163Y0019019D01*
X0023208Y0018867D01*
X0023249Y0018714D01*
X0023287Y0018561D01*
X0023320Y0018406D01*
X0023350Y0018250D01*
X0023376Y0018094D01*
X0023397Y0017937D01*
X0023415Y0017780D01*
X0023429Y0017622D01*
X0023439Y0017464D01*
X0023445Y0017306D01*
X0023447Y0017148D01*
X0023445Y0016990D01*
X0023439Y0016832D01*
X0023429Y0016674D01*
X0023415Y0016516D01*
X0023397Y0016359D01*
X0023376Y0016202D01*
X0023350Y0016046D01*
X0023320Y0015890D01*
X0023287Y0015735D01*
X0023249Y0015582D01*
X0023208Y0015429D01*
X0023163Y0015277D01*
X0023114Y0015126D01*
X0023061Y0014977D01*
X0023005Y0014829D01*
X0022945Y0014683D01*
X0022881Y0014538D01*
X0022813Y0014395D01*
X0022742Y0014253D01*
X0022668Y0014113D01*
X0022590Y0013976D01*
X0022508Y0013840D01*
X0022424Y0013706D01*
X0022335Y0013575D01*
X0022244Y0013446D01*
X0022149Y0013319D01*
X0022052Y0013194D01*
X0021951Y0013072D01*
X0021847Y0012953D01*
X0021740Y0012836D01*
X0021630Y0012722D01*
X0021517Y0012611D01*
X0021402Y0012502D01*
X0021284Y0012397D01*
X0021163Y0012295D01*
X0021040Y0012195D01*
X0020914Y0012099D01*
X0020786Y0012006D01*
X0020656Y0011916D01*
X0020523Y0011830D01*
X0020388Y0011746D01*
X0020252Y0011667D01*
X0020113Y0011590D01*
X0019972Y0011518D01*
X0019830Y0011448D01*
X0019686Y0011383D01*
X0019540Y0011321D01*
X0019393Y0011263D01*
X0019244Y0011208D01*
X0019094Y0011157D01*
X0018943Y0011110D01*
X0018791Y0011067D01*
X0018638Y0011028D01*
X0018483Y0010992D01*
X0018328Y0010961D01*
X0018172Y0010933D01*
X0018016Y0010909D01*
X0017859Y0010889D01*
X0017701Y0010873D01*
X0017544Y0010861D01*
X0017385Y0010853D01*
X0017227Y0010849D01*
X0017069Y0010849D01*
X0016911Y0010853D01*
X0016752Y0010861D01*
X0016595Y0010873D01*
X0016437Y0010889D01*
X0016280Y0010909D01*
X0016124Y0010933D01*
X0015968Y0010961D01*
X0015813Y0010992D01*
X0015658Y0011028D01*
X0015505Y0011067D01*
X0015353Y0011110D01*
X0015202Y0011157D01*
X0015052Y0011208D01*
X0014903Y0011263D01*
X0014756Y0011321D01*
X0014610Y0011383D01*
X0014466Y0011448D01*
X0014324Y0011518D01*
X0014183Y0011590D01*
X0014044Y0011667D01*
X0013908Y0011746D01*
X0013773Y0011830D01*
X0013640Y0011916D01*
X0013510Y0012006D01*
X0013382Y0012099D01*
X0013256Y0012195D01*
X0013133Y0012295D01*
X0013012Y0012397D01*
X0012894Y0012502D01*
X0012779Y0012611D01*
X0012666Y0012722D01*
X0012556Y0012836D01*
X0012449Y0012953D01*
X0012345Y0013072D01*
X0012244Y0013194D01*
X0012147Y0013319D01*
X0012052Y0013446D01*
X0011961Y0013575D01*
X0011872Y0013706D01*
X0011788Y0013840D01*
X0011706Y0013976D01*
X0011628Y0014113D01*
X0011554Y0014253D01*
X0011483Y0014395D01*
X0011415Y0014538D01*
X0011351Y0014683D01*
X0011291Y0014829D01*
X0011235Y0014977D01*
X0011182Y0015126D01*
X0011133Y0015277D01*
X0011088Y0015429D01*
X0011047Y0015582D01*
X0011009Y0015735D01*
X0010976Y0015890D01*
X0010946Y0016046D01*
X0010920Y0016202D01*
X0010899Y0016359D01*
X0010881Y0016516D01*
X0010867Y0016674D01*
X0010857Y0016832D01*
X0010851Y0016990D01*
X0010849Y0017148D01*
D13*
X0011691Y0029824D02*
X0009940Y0029824D01*
X0009356Y0030408D01*
X0009356Y0031576D01*
X0009940Y0032159D01*
X0011691Y0032159D01*
X0013039Y0032159D02*
X0013039Y0029824D01*
X0013039Y0030992D02*
X0014207Y0032159D01*
X0014791Y0032159D01*
X0016109Y0031576D02*
X0016692Y0032159D01*
X0017860Y0032159D01*
X0018444Y0031576D01*
X0018444Y0030992D01*
X0016109Y0030992D01*
X0016109Y0030408D02*
X0016109Y0031576D01*
X0016109Y0030408D02*
X0016692Y0029824D01*
X0017860Y0029824D01*
X0019792Y0030408D02*
X0020376Y0029824D01*
X0020959Y0030408D01*
X0021543Y0029824D01*
X0022127Y0030408D01*
X0022127Y0032159D01*
X0023475Y0031576D02*
X0024059Y0030992D01*
X0025226Y0030992D01*
X0025810Y0030408D01*
X0025226Y0029824D01*
X0023475Y0029824D01*
X0023475Y0031576D02*
X0024059Y0032159D01*
X0025810Y0032159D01*
X0030841Y0031576D02*
X0030841Y0030408D01*
X0031425Y0029824D01*
X0032593Y0029824D01*
X0033176Y0030408D01*
X0033176Y0031576D01*
X0032593Y0032159D01*
X0031425Y0032159D01*
X0030841Y0031576D01*
X0034524Y0032159D02*
X0034524Y0029824D01*
X0036860Y0029824D02*
X0036860Y0031576D01*
X0036276Y0032159D01*
X0034524Y0032159D01*
X0038207Y0033327D02*
X0038791Y0033327D01*
X0038791Y0029824D01*
X0038207Y0029824D02*
X0039375Y0029824D01*
X0040663Y0030408D02*
X0041247Y0029824D01*
X0042998Y0029824D01*
X0042998Y0029240D02*
X0042414Y0028656D01*
X0041831Y0028656D01*
X0042998Y0029240D02*
X0042998Y0032159D01*
X0040663Y0032159D02*
X0040663Y0030408D01*
X0041157Y0035824D02*
X0039405Y0035824D01*
X0038821Y0036408D01*
X0038821Y0037576D01*
X0039405Y0038159D01*
X0041157Y0038159D01*
X0037534Y0035824D02*
X0036366Y0035824D01*
X0036950Y0035824D02*
X0036950Y0038159D01*
X0036366Y0038159D01*
X0035078Y0038159D02*
X0033910Y0038159D01*
X0034494Y0038743D02*
X0034494Y0036408D01*
X0035078Y0035824D01*
X0032563Y0036408D02*
X0031979Y0036992D01*
X0030811Y0036992D01*
X0030227Y0037576D01*
X0030811Y0038159D01*
X0032563Y0038159D01*
X0032563Y0036408D02*
X0031979Y0035824D01*
X0030227Y0035824D01*
X0028879Y0035824D02*
X0028879Y0037576D01*
X0028296Y0038159D01*
X0027128Y0038159D01*
X0027128Y0036992D02*
X0028879Y0036992D01*
X0028879Y0035824D02*
X0027128Y0035824D01*
X0026544Y0036408D01*
X0027128Y0036992D01*
X0025256Y0035824D02*
X0024089Y0035824D01*
X0024673Y0035824D02*
X0024673Y0039327D01*
X0024089Y0039327D01*
X0022741Y0037576D02*
X0022741Y0036408D01*
X0022157Y0035824D01*
X0020406Y0035824D01*
X0020406Y0034656D02*
X0020406Y0038159D01*
X0022157Y0038159D01*
X0022741Y0037576D01*
X0015375Y0037576D02*
X0015375Y0036992D01*
X0013039Y0036992D01*
X0013039Y0037576D02*
X0013623Y0038159D01*
X0014791Y0038159D01*
X0015375Y0037576D01*
X0014791Y0035824D02*
X0013623Y0035824D01*
X0013039Y0036408D01*
X0013039Y0037576D01*
X0011691Y0038159D02*
X0009940Y0038159D01*
X0009356Y0037576D01*
X0009940Y0036992D01*
X0011108Y0036992D01*
X0011691Y0036408D01*
X0011108Y0035824D01*
X0009356Y0035824D01*
X0008008Y0035824D02*
X0008008Y0038159D01*
X0005673Y0038159D02*
X0005673Y0036408D01*
X0006257Y0035824D01*
X0008008Y0035824D01*
X0008008Y0032159D02*
X0006257Y0032159D01*
X0005673Y0031576D01*
X0006257Y0030992D01*
X0007425Y0030992D01*
X0008008Y0030408D01*
X0007425Y0029824D01*
X0005673Y0029824D01*
X0019792Y0030408D02*
X0019792Y0032159D01*
X0030057Y0043424D02*
X0030958Y0043424D01*
X0031408Y0043874D01*
X0032553Y0043874D02*
X0033003Y0043424D01*
X0033904Y0043424D01*
X0034355Y0043874D01*
X0034355Y0044325D01*
X0033904Y0044775D01*
X0033454Y0044775D01*
X0033904Y0044775D02*
X0034355Y0045226D01*
X0034355Y0045676D01*
X0033904Y0046126D01*
X0033003Y0046126D01*
X0032553Y0045676D01*
X0031408Y0045676D02*
X0030958Y0046126D01*
X0030057Y0046126D01*
X0029607Y0045676D01*
X0029607Y0043874D01*
X0030057Y0043424D01*
X0026346Y0043924D02*
X0023644Y0043924D01*
X0023644Y0045275D01*
X0024094Y0045726D01*
X0024995Y0045726D01*
X0025445Y0045275D01*
X0025445Y0043924D01*
X0025445Y0044825D02*
X0026346Y0045726D01*
X0026346Y0046871D02*
X0026346Y0048672D01*
X0026346Y0047771D02*
X0023644Y0047771D01*
X0024545Y0046871D01*
X0024545Y0049817D02*
X0023644Y0050718D01*
X0026346Y0050718D01*
X0026346Y0049817D02*
X0026346Y0051619D01*
X0035500Y0045226D02*
X0036400Y0046126D01*
X0036400Y0043424D01*
X0035500Y0043424D02*
X0037301Y0043424D01*
X0036950Y0039911D02*
X0036950Y0039327D01*
X0055607Y0038925D02*
X0056958Y0038925D01*
X0057408Y0039375D01*
X0057408Y0040276D01*
X0056958Y0040726D01*
X0055607Y0040726D01*
X0055607Y0038024D01*
X0056507Y0038925D02*
X0057408Y0038024D01*
X0058553Y0038024D02*
X0060355Y0038024D01*
X0059454Y0038024D02*
X0059454Y0040726D01*
X0058553Y0039826D01*
X0061500Y0040276D02*
X0061950Y0040726D01*
X0062851Y0040726D01*
X0063301Y0040276D01*
X0063301Y0039826D01*
X0062851Y0039375D01*
X0063301Y0038925D01*
X0063301Y0038474D01*
X0062851Y0038024D01*
X0061950Y0038024D01*
X0061500Y0038474D01*
X0062400Y0039375D02*
X0062851Y0039375D01*
X0063641Y0051724D02*
X0061839Y0051724D01*
X0063641Y0053526D01*
X0063641Y0053976D01*
X0063190Y0054426D01*
X0062289Y0054426D01*
X0061839Y0053976D01*
X0059793Y0054426D02*
X0059793Y0051724D01*
X0058893Y0051724D02*
X0060694Y0051724D01*
X0058893Y0053526D02*
X0059793Y0054426D01*
X0057748Y0053976D02*
X0057748Y0053075D01*
X0057297Y0052625D01*
X0055946Y0052625D01*
X0056847Y0052625D02*
X0057748Y0051724D01*
X0055946Y0051724D02*
X0055946Y0054426D01*
X0057297Y0054426D01*
X0057748Y0053976D01*
X0060061Y0060061D02*
X0062817Y0060061D01*
X0062817Y0060849D01*
X0074346Y0056228D02*
X0074346Y0054426D01*
X0074796Y0053976D01*
X0075697Y0053976D01*
X0076148Y0054426D01*
X0077293Y0054426D02*
X0077743Y0053976D01*
X0078644Y0053976D01*
X0079094Y0054426D01*
X0079094Y0056228D01*
X0078644Y0056678D01*
X0077743Y0056678D01*
X0077293Y0056228D01*
X0077293Y0055778D01*
X0077743Y0055327D01*
X0079094Y0055327D01*
X0076148Y0056228D02*
X0075697Y0056678D01*
X0074796Y0056678D01*
X0074346Y0056228D01*
X0074796Y0066176D02*
X0075697Y0066176D01*
X0076148Y0066626D01*
X0077293Y0066176D02*
X0079094Y0066176D01*
X0078193Y0066176D02*
X0078193Y0068878D01*
X0077293Y0067978D01*
X0076148Y0068428D02*
X0075697Y0068878D01*
X0074796Y0068878D01*
X0074346Y0068428D01*
X0074346Y0066626D01*
X0074796Y0066176D01*
X0080239Y0066626D02*
X0082041Y0068428D01*
X0082041Y0066626D01*
X0081590Y0066176D01*
X0080689Y0066176D01*
X0080239Y0066626D01*
X0080239Y0068428D01*
X0080689Y0068878D01*
X0081590Y0068878D01*
X0082041Y0068428D01*
X0081694Y0076124D02*
X0083496Y0076124D01*
X0083946Y0076574D01*
X0083946Y0077475D01*
X0083496Y0077926D01*
X0083946Y0079071D02*
X0083946Y0080872D01*
X0083946Y0079971D02*
X0081244Y0079971D01*
X0082145Y0079071D01*
X0081694Y0077926D02*
X0081244Y0077475D01*
X0081244Y0076574D01*
X0081694Y0076124D01*
X0071446Y0076574D02*
X0070996Y0076124D01*
X0069194Y0076124D01*
X0068744Y0076574D01*
X0068744Y0077475D01*
X0069194Y0077926D01*
X0069194Y0079071D02*
X0068744Y0079521D01*
X0068744Y0080422D01*
X0069194Y0080872D01*
X0069645Y0080872D01*
X0071446Y0079071D01*
X0071446Y0080872D01*
X0070996Y0077926D02*
X0071446Y0077475D01*
X0071446Y0076574D01*
X0062817Y0076597D02*
X0062817Y0075809D01*
X0062817Y0076597D02*
X0060061Y0076597D01*
X0059229Y0078237D02*
X0059679Y0078687D01*
X0059679Y0080939D01*
X0060824Y0080489D02*
X0061274Y0080939D01*
X0062175Y0080939D01*
X0062625Y0080489D01*
X0062625Y0080038D01*
X0062175Y0079588D01*
X0062625Y0079137D01*
X0062625Y0078687D01*
X0062175Y0078237D01*
X0061274Y0078237D01*
X0060824Y0078687D01*
X0061725Y0079588D02*
X0062175Y0079588D01*
X0059229Y0078237D02*
X0058328Y0078237D01*
X0057877Y0078687D01*
X0057877Y0080939D01*
X0049038Y0076597D02*
X0046282Y0076597D01*
X0046282Y0075809D01*
X0042872Y0075974D02*
X0042872Y0076875D01*
X0042422Y0077326D01*
X0042422Y0078471D02*
X0042872Y0078921D01*
X0042872Y0079822D01*
X0042422Y0080272D01*
X0041971Y0080272D01*
X0041521Y0079822D01*
X0041521Y0079371D01*
X0041521Y0079822D02*
X0041071Y0080272D01*
X0040620Y0080272D01*
X0040170Y0079822D01*
X0040170Y0078921D01*
X0040620Y0078471D01*
X0040620Y0077326D02*
X0040170Y0076875D01*
X0040170Y0075974D01*
X0040620Y0075524D01*
X0042422Y0075524D01*
X0042872Y0075974D01*
X0042422Y0081417D02*
X0040620Y0081417D01*
X0040170Y0081867D01*
X0040170Y0082768D01*
X0040620Y0083219D01*
X0042422Y0081417D01*
X0042872Y0081867D01*
X0042872Y0082768D01*
X0042422Y0083219D01*
X0040620Y0083219D01*
X0033541Y0083924D02*
X0031739Y0083924D01*
X0033541Y0085726D01*
X0033541Y0086176D01*
X0033090Y0086626D01*
X0032189Y0086626D01*
X0031739Y0086176D01*
X0030594Y0086176D02*
X0030594Y0085726D01*
X0030144Y0085275D01*
X0030594Y0084825D01*
X0030594Y0084374D01*
X0030144Y0083924D01*
X0029243Y0083924D01*
X0028793Y0084374D01*
X0027648Y0084374D02*
X0027197Y0083924D01*
X0026296Y0083924D01*
X0025846Y0084374D01*
X0025846Y0086176D01*
X0026296Y0086626D01*
X0027197Y0086626D01*
X0027648Y0086176D01*
X0028793Y0086176D02*
X0029243Y0086626D01*
X0030144Y0086626D01*
X0030594Y0086176D01*
X0030144Y0085275D02*
X0029693Y0085275D01*
X0029243Y0089024D02*
X0028793Y0089474D01*
X0029243Y0089024D02*
X0030144Y0089024D01*
X0030594Y0089474D01*
X0030594Y0089925D01*
X0030144Y0090375D01*
X0029693Y0090375D01*
X0030144Y0090375D02*
X0030594Y0090826D01*
X0030594Y0091276D01*
X0030144Y0091726D01*
X0029243Y0091726D01*
X0028793Y0091276D01*
X0027648Y0091276D02*
X0027197Y0091726D01*
X0026296Y0091726D01*
X0025846Y0091276D01*
X0025846Y0089474D01*
X0026296Y0089024D01*
X0027197Y0089024D01*
X0027648Y0089474D01*
X0031739Y0089474D02*
X0032189Y0089024D01*
X0033090Y0089024D01*
X0033541Y0089474D01*
X0033541Y0090375D01*
X0033090Y0090826D01*
X0032640Y0090826D01*
X0031739Y0090375D01*
X0031739Y0091726D01*
X0033541Y0091726D01*
X0030496Y0106074D02*
X0033496Y0107074D01*
X0030496Y0108074D01*
X0030496Y0106074D01*
X0030496Y0106484D02*
X0031725Y0106484D01*
X0032276Y0107481D02*
X0030496Y0107481D01*
X0030496Y0107979D02*
X0030780Y0107979D01*
X0030496Y0106982D02*
X0033221Y0106982D01*
X0031973Y0114343D02*
X0032424Y0114794D01*
X0032424Y0115244D01*
X0031973Y0115695D01*
X0029721Y0115695D01*
X0029721Y0116145D02*
X0029721Y0115244D01*
X0029721Y0117290D02*
X0029721Y0119091D01*
X0029721Y0118191D02*
X0032424Y0118191D01*
X0032424Y0120236D02*
X0030622Y0120236D01*
X0029721Y0121137D01*
X0030622Y0122038D01*
X0032424Y0122038D01*
X0031973Y0123183D02*
X0030172Y0123183D01*
X0029721Y0123633D01*
X0029721Y0124534D01*
X0030172Y0124984D01*
X0031072Y0124984D02*
X0031072Y0124084D01*
X0031072Y0124984D02*
X0031973Y0124984D01*
X0032424Y0124534D01*
X0032424Y0123633D01*
X0031973Y0123183D01*
X0031072Y0122038D02*
X0031072Y0120236D01*
X0054544Y0101272D02*
X0054544Y0099471D01*
X0055895Y0099471D01*
X0055445Y0100371D01*
X0055445Y0100822D01*
X0055895Y0101272D01*
X0056796Y0101272D01*
X0057246Y0100822D01*
X0057246Y0099921D01*
X0056796Y0099471D01*
X0057246Y0098326D02*
X0056345Y0097425D01*
X0056345Y0097875D02*
X0056345Y0096524D01*
X0057246Y0096524D02*
X0054544Y0096524D01*
X0054544Y0097875D01*
X0054994Y0098326D01*
X0055895Y0098326D01*
X0056345Y0097875D01*
X0059544Y0097875D02*
X0059544Y0096524D01*
X0062246Y0096524D01*
X0061345Y0096524D02*
X0061345Y0097875D01*
X0060895Y0098326D01*
X0059994Y0098326D01*
X0059544Y0097875D01*
X0060445Y0099471D02*
X0059544Y0100371D01*
X0062246Y0100371D01*
X0062246Y0099471D02*
X0062246Y0101272D01*
X0061796Y0102417D02*
X0062246Y0102867D01*
X0062246Y0103768D01*
X0061796Y0104219D01*
X0060895Y0104219D01*
X0060445Y0103768D01*
X0060445Y0103318D01*
X0060895Y0102417D01*
X0059544Y0102417D01*
X0059544Y0104219D01*
X0064544Y0103768D02*
X0065895Y0102417D01*
X0065895Y0104219D01*
X0067246Y0103768D02*
X0064544Y0103768D01*
X0067246Y0101272D02*
X0067246Y0099471D01*
X0067246Y0100371D02*
X0064544Y0100371D01*
X0065445Y0099471D01*
X0065895Y0098326D02*
X0066345Y0097875D01*
X0066345Y0096524D01*
X0066345Y0097425D02*
X0067246Y0098326D01*
X0065895Y0098326D02*
X0064994Y0098326D01*
X0064544Y0097875D01*
X0064544Y0096524D01*
X0067246Y0096524D01*
X0071546Y0093476D02*
X0071546Y0091674D01*
X0071996Y0091224D01*
X0072897Y0091224D01*
X0073348Y0091674D01*
X0074493Y0091674D02*
X0074943Y0091224D01*
X0075844Y0091224D01*
X0076294Y0091674D01*
X0076294Y0092125D01*
X0075844Y0092575D01*
X0075393Y0092575D01*
X0075844Y0092575D02*
X0076294Y0093026D01*
X0076294Y0093476D01*
X0075844Y0093926D01*
X0074943Y0093926D01*
X0074493Y0093476D01*
X0073348Y0093476D02*
X0072897Y0093926D01*
X0071996Y0093926D01*
X0071546Y0093476D01*
X0062246Y0098326D02*
X0061345Y0097425D01*
X0074688Y0107486D02*
X0074688Y0108837D01*
X0075138Y0109288D01*
X0076039Y0109288D01*
X0076489Y0108837D01*
X0076489Y0107486D01*
X0076489Y0108387D02*
X0077390Y0109288D01*
X0076940Y0110433D02*
X0077390Y0110883D01*
X0077390Y0111784D01*
X0076940Y0112234D01*
X0076489Y0112234D01*
X0076039Y0111784D01*
X0076039Y0111334D01*
X0076039Y0111784D02*
X0075589Y0112234D01*
X0075138Y0112234D01*
X0074688Y0111784D01*
X0074688Y0110883D01*
X0075138Y0110433D01*
X0074688Y0107486D02*
X0077390Y0107486D01*
X0092307Y0099676D02*
X0092307Y0097874D01*
X0092757Y0097424D01*
X0093658Y0097424D01*
X0094108Y0097874D01*
X0095253Y0097424D02*
X0097055Y0097424D01*
X0096154Y0097424D02*
X0096154Y0100126D01*
X0095253Y0099226D01*
X0094108Y0099676D02*
X0093658Y0100126D01*
X0092757Y0100126D01*
X0092307Y0099676D01*
X0098200Y0099676D02*
X0098650Y0100126D01*
X0099551Y0100126D01*
X0100001Y0099676D01*
X0100001Y0099226D01*
X0099551Y0098775D01*
X0100001Y0098325D01*
X0100001Y0097874D01*
X0099551Y0097424D01*
X0098650Y0097424D01*
X0098200Y0097874D01*
X0099100Y0098775D02*
X0099551Y0098775D01*
X0101196Y0106624D02*
X0102097Y0106624D01*
X0102548Y0107074D01*
X0103693Y0106624D02*
X0105494Y0106624D01*
X0104593Y0106624D02*
X0104593Y0109326D01*
X0103693Y0108426D01*
X0102548Y0108876D02*
X0102097Y0109326D01*
X0101196Y0109326D01*
X0100746Y0108876D01*
X0100746Y0107074D01*
X0101196Y0106624D01*
X0106639Y0107074D02*
X0107089Y0106624D01*
X0107990Y0106624D01*
X0108441Y0107074D01*
X0108441Y0107975D01*
X0107990Y0108426D01*
X0107540Y0108426D01*
X0106639Y0107975D01*
X0106639Y0109326D01*
X0108441Y0109326D01*
X0110346Y0108876D02*
X0110346Y0107074D01*
X0110796Y0106624D01*
X0111697Y0106624D01*
X0112148Y0107074D01*
X0113293Y0106624D02*
X0115094Y0106624D01*
X0114193Y0106624D02*
X0114193Y0109326D01*
X0113293Y0108426D01*
X0112148Y0108876D02*
X0111697Y0109326D01*
X0110796Y0109326D01*
X0110346Y0108876D01*
X0116239Y0108876D02*
X0116689Y0109326D01*
X0117590Y0109326D01*
X0118041Y0108876D01*
X0118041Y0108426D01*
X0116239Y0106624D01*
X0118041Y0106624D01*
X0109571Y0112473D02*
X0109571Y0115175D01*
X0110471Y0115175D02*
X0108670Y0115175D01*
X0107525Y0115175D02*
X0105723Y0115175D01*
X0105723Y0112473D01*
X0107525Y0112473D01*
X0106624Y0113824D02*
X0105723Y0113824D01*
X0104578Y0113374D02*
X0104128Y0113824D01*
X0103227Y0113824D01*
X0102777Y0114274D01*
X0102777Y0114725D01*
X0103227Y0115175D01*
X0104128Y0115175D01*
X0104578Y0114725D01*
X0104578Y0113374D02*
X0104578Y0112923D01*
X0104128Y0112473D01*
X0103227Y0112473D01*
X0102777Y0112923D01*
X0101632Y0112473D02*
X0099830Y0112473D01*
X0099830Y0115175D01*
X0101632Y0115175D01*
X0100731Y0113824D02*
X0099830Y0113824D01*
X0098685Y0113824D02*
X0098235Y0113374D01*
X0096884Y0113374D01*
X0097784Y0113374D02*
X0098685Y0112473D01*
X0098685Y0113824D02*
X0098685Y0114725D01*
X0098235Y0115175D01*
X0096884Y0115175D01*
X0096884Y0112473D01*
X0092935Y0116557D02*
X0114589Y0116557D01*
X0114589Y0116558D02*
X0114651Y0116560D01*
X0114712Y0116566D01*
X0114773Y0116575D01*
X0114834Y0116589D01*
X0114893Y0116606D01*
X0114951Y0116627D01*
X0115008Y0116652D01*
X0115063Y0116680D01*
X0115116Y0116711D01*
X0115167Y0116746D01*
X0115216Y0116784D01*
X0115263Y0116825D01*
X0115306Y0116868D01*
X0115347Y0116915D01*
X0115385Y0116964D01*
X0115420Y0117015D01*
X0115451Y0117068D01*
X0115479Y0117123D01*
X0115504Y0117180D01*
X0115525Y0117238D01*
X0115542Y0117297D01*
X0115556Y0117358D01*
X0115565Y0117419D01*
X0115571Y0117480D01*
X0115573Y0117542D01*
X0115573Y0119117D01*
X0115573Y0127778D02*
X0115573Y0129353D01*
X0115571Y0129415D01*
X0115565Y0129476D01*
X0115556Y0129537D01*
X0115542Y0129598D01*
X0115525Y0129657D01*
X0115504Y0129715D01*
X0115479Y0129772D01*
X0115451Y0129827D01*
X0115420Y0129880D01*
X0115385Y0129931D01*
X0115347Y0129980D01*
X0115306Y0130027D01*
X0115263Y0130070D01*
X0115216Y0130111D01*
X0115167Y0130149D01*
X0115116Y0130184D01*
X0115063Y0130215D01*
X0115008Y0130243D01*
X0114951Y0130268D01*
X0114893Y0130289D01*
X0114834Y0130306D01*
X0114773Y0130320D01*
X0114712Y0130329D01*
X0114651Y0130335D01*
X0114589Y0130337D01*
X0092935Y0130337D01*
X0092873Y0130335D01*
X0092812Y0130329D01*
X0092751Y0130320D01*
X0092690Y0130306D01*
X0092631Y0130289D01*
X0092573Y0130268D01*
X0092516Y0130243D01*
X0092461Y0130215D01*
X0092408Y0130184D01*
X0092357Y0130149D01*
X0092308Y0130111D01*
X0092261Y0130070D01*
X0092218Y0130027D01*
X0092177Y0129980D01*
X0092139Y0129931D01*
X0092104Y0129880D01*
X0092073Y0129827D01*
X0092045Y0129772D01*
X0092020Y0129715D01*
X0091999Y0129657D01*
X0091982Y0129598D01*
X0091968Y0129537D01*
X0091959Y0129476D01*
X0091953Y0129415D01*
X0091951Y0129353D01*
X0091951Y0127778D01*
X0082794Y0128874D02*
X0082344Y0128424D01*
X0081443Y0128424D01*
X0080993Y0128874D01*
X0080993Y0129775D01*
X0082344Y0129775D01*
X0082794Y0129325D01*
X0082794Y0128874D01*
X0080993Y0129775D02*
X0081893Y0130676D01*
X0082794Y0131126D01*
X0079848Y0130676D02*
X0079397Y0131126D01*
X0078496Y0131126D01*
X0078046Y0130676D01*
X0078046Y0128874D01*
X0078496Y0128424D01*
X0079397Y0128424D01*
X0079848Y0128874D01*
X0071746Y0125722D02*
X0069044Y0125722D01*
X0070395Y0124371D01*
X0070395Y0126172D01*
X0070395Y0123226D02*
X0070845Y0122775D01*
X0070845Y0121424D01*
X0070845Y0122325D02*
X0071746Y0123226D01*
X0070395Y0123226D02*
X0069494Y0123226D01*
X0069044Y0122775D01*
X0069044Y0121424D01*
X0071746Y0121424D01*
X0091951Y0119117D02*
X0091951Y0117542D01*
X0091953Y0117480D01*
X0091959Y0117419D01*
X0091968Y0117358D01*
X0091982Y0117297D01*
X0091999Y0117238D01*
X0092020Y0117180D01*
X0092045Y0117123D01*
X0092073Y0117068D01*
X0092104Y0117015D01*
X0092139Y0116964D01*
X0092177Y0116915D01*
X0092218Y0116868D01*
X0092261Y0116825D01*
X0092308Y0116784D01*
X0092357Y0116746D01*
X0092408Y0116711D01*
X0092461Y0116680D01*
X0092516Y0116652D01*
X0092573Y0116627D01*
X0092631Y0116606D01*
X0092690Y0116589D01*
X0092751Y0116575D01*
X0092812Y0116566D01*
X0092873Y0116560D01*
X0092935Y0116558D01*
X0119446Y0099876D02*
X0119446Y0098074D01*
X0119896Y0097624D01*
X0120797Y0097624D01*
X0121248Y0098074D01*
X0122393Y0098074D02*
X0122393Y0098525D01*
X0122843Y0098975D01*
X0123744Y0098975D01*
X0124194Y0098525D01*
X0124194Y0098074D01*
X0123744Y0097624D01*
X0122843Y0097624D01*
X0122393Y0098074D01*
X0122843Y0098975D02*
X0122393Y0099426D01*
X0122393Y0099876D01*
X0122843Y0100326D01*
X0123744Y0100326D01*
X0124194Y0099876D01*
X0124194Y0099426D01*
X0123744Y0098975D01*
X0121248Y0099876D02*
X0120797Y0100326D01*
X0119896Y0100326D01*
X0119446Y0099876D01*
X0138646Y0104724D02*
X0138646Y0107426D01*
X0139997Y0107426D01*
X0140448Y0106976D01*
X0140448Y0106075D01*
X0139997Y0105625D01*
X0138646Y0105625D01*
X0139547Y0105625D02*
X0140448Y0104724D01*
X0141593Y0105174D02*
X0141593Y0105625D01*
X0142043Y0106075D01*
X0142944Y0106075D01*
X0143394Y0105625D01*
X0143394Y0105174D01*
X0142944Y0104724D01*
X0142043Y0104724D01*
X0141593Y0105174D01*
X0142043Y0106075D02*
X0141593Y0106526D01*
X0141593Y0106976D01*
X0142043Y0107426D01*
X0142944Y0107426D01*
X0143394Y0106976D01*
X0143394Y0106526D01*
X0142944Y0106075D01*
X0142944Y0109524D02*
X0143394Y0109974D01*
X0143394Y0110425D01*
X0142944Y0110875D01*
X0141593Y0110875D01*
X0141593Y0109974D01*
X0142043Y0109524D01*
X0142944Y0109524D01*
X0141593Y0110875D02*
X0142493Y0111776D01*
X0143394Y0112226D01*
X0141593Y0114324D02*
X0141593Y0114774D01*
X0143394Y0116576D01*
X0143394Y0117026D01*
X0141593Y0117026D01*
X0140448Y0116576D02*
X0140448Y0115675D01*
X0139997Y0115225D01*
X0138646Y0115225D01*
X0139547Y0115225D02*
X0140448Y0114324D01*
X0138646Y0114324D02*
X0138646Y0117026D01*
X0139997Y0117026D01*
X0140448Y0116576D01*
X0139997Y0112226D02*
X0138646Y0112226D01*
X0138646Y0109524D01*
X0138646Y0110425D02*
X0139997Y0110425D01*
X0140448Y0110875D01*
X0140448Y0111776D01*
X0139997Y0112226D01*
X0139547Y0110425D02*
X0140448Y0109524D01*
X0161146Y0105027D02*
X0161146Y0101524D01*
X0161146Y0103276D02*
X0162314Y0103276D01*
X0161146Y0105027D02*
X0163481Y0105027D01*
X0164829Y0105027D02*
X0167165Y0101524D01*
X0168512Y0101524D02*
X0169680Y0101524D01*
X0169096Y0101524D02*
X0169096Y0105027D01*
X0168512Y0105027D02*
X0169680Y0105027D01*
X0170968Y0105027D02*
X0172135Y0103859D01*
X0173303Y0105027D01*
X0173303Y0101524D01*
X0174651Y0102108D02*
X0175235Y0101524D01*
X0176402Y0101524D01*
X0176986Y0102108D01*
X0176986Y0105027D01*
X0178334Y0103859D02*
X0179502Y0101524D01*
X0180669Y0103859D01*
X0182017Y0104443D02*
X0182017Y0102108D01*
X0184353Y0104443D01*
X0184353Y0102108D01*
X0183769Y0101524D01*
X0182601Y0101524D01*
X0182017Y0102108D01*
X0182017Y0104443D02*
X0182601Y0105027D01*
X0183769Y0105027D01*
X0184353Y0104443D01*
X0185700Y0103859D02*
X0186868Y0105027D01*
X0186868Y0101524D01*
X0185700Y0101524D02*
X0188036Y0101524D01*
X0189384Y0102108D02*
X0189384Y0103276D01*
X0189967Y0103859D01*
X0191719Y0103859D01*
X0191719Y0101524D02*
X0189967Y0101524D01*
X0189384Y0102108D01*
X0177094Y0098076D02*
X0176644Y0098526D01*
X0175743Y0098526D01*
X0175293Y0098076D01*
X0174148Y0098076D02*
X0173697Y0098526D01*
X0172346Y0098526D01*
X0172346Y0095824D01*
X0172346Y0096725D02*
X0173697Y0096725D01*
X0174148Y0097175D01*
X0174148Y0098076D01*
X0173247Y0096725D02*
X0174148Y0095824D01*
X0175293Y0095824D02*
X0177094Y0097626D01*
X0177094Y0098076D01*
X0177094Y0095824D02*
X0175293Y0095824D01*
X0174651Y0102108D02*
X0174651Y0105027D01*
X0170968Y0105027D02*
X0170968Y0101524D01*
X0167165Y0105027D02*
X0164829Y0101524D01*
X0157446Y0088319D02*
X0157446Y0086517D01*
X0157446Y0087418D02*
X0154744Y0087418D01*
X0155645Y0086517D01*
X0157446Y0085372D02*
X0157446Y0083571D01*
X0157446Y0084471D02*
X0154744Y0084471D01*
X0155645Y0083571D01*
X0155194Y0082426D02*
X0154744Y0081975D01*
X0154744Y0081074D01*
X0155194Y0080624D01*
X0156996Y0080624D01*
X0157446Y0081074D01*
X0157446Y0081975D01*
X0156996Y0082426D01*
X0152546Y0081975D02*
X0152096Y0082426D01*
X0152546Y0081975D02*
X0152546Y0081074D01*
X0152096Y0080624D01*
X0150294Y0080624D01*
X0149844Y0081074D01*
X0149844Y0081975D01*
X0150294Y0082426D01*
X0149844Y0083571D02*
X0149844Y0085372D01*
X0150294Y0085372D01*
X0152096Y0083571D01*
X0152546Y0083571D01*
X0168209Y0071854D02*
X0170011Y0071854D01*
X0171156Y0070953D02*
X0172056Y0071854D01*
X0172056Y0069152D01*
X0171156Y0069152D02*
X0172957Y0069152D01*
X0169110Y0070503D02*
X0168209Y0070503D01*
X0168209Y0069152D02*
X0168209Y0071854D01*
X0172253Y0082024D02*
X0172253Y0084726D01*
X0173604Y0084726D01*
X0174055Y0084276D01*
X0174055Y0083375D01*
X0173604Y0082925D01*
X0172253Y0082925D01*
X0173154Y0082925D02*
X0174055Y0082024D01*
X0175200Y0082024D02*
X0177001Y0082024D01*
X0176100Y0082024D02*
X0176100Y0084726D01*
X0175200Y0083826D01*
X0192157Y0060743D02*
X0192157Y0034523D01*
X0192834Y0032762D02*
X0192384Y0032311D01*
X0192834Y0032762D02*
X0193735Y0032762D01*
X0194185Y0032311D01*
X0194185Y0031861D01*
X0192384Y0030059D01*
X0194185Y0030059D01*
X0195330Y0030510D02*
X0195781Y0030059D01*
X0196681Y0030059D01*
X0197132Y0030510D01*
X0198277Y0030510D02*
X0198727Y0030059D01*
X0199628Y0030059D01*
X0200078Y0030510D01*
X0200078Y0032311D01*
X0198277Y0030510D01*
X0198277Y0032311D01*
X0198727Y0032762D01*
X0199628Y0032762D01*
X0200078Y0032311D01*
X0197132Y0032311D02*
X0196681Y0032762D01*
X0195781Y0032762D01*
X0195330Y0032311D01*
X0195330Y0030510D01*
X0191320Y0030059D02*
X0190419Y0030059D01*
X0190870Y0030059D02*
X0190870Y0032762D01*
X0191320Y0032762D02*
X0190419Y0032762D01*
X0173946Y0025429D02*
X0173946Y0024528D01*
X0173496Y0024077D01*
X0173946Y0022933D02*
X0173946Y0021131D01*
X0172145Y0022933D01*
X0171694Y0022933D01*
X0171244Y0022482D01*
X0171244Y0021581D01*
X0171694Y0021131D01*
X0171694Y0019986D02*
X0171244Y0019536D01*
X0171244Y0018635D01*
X0171694Y0018184D01*
X0173496Y0018184D01*
X0173946Y0018635D01*
X0173946Y0019536D01*
X0173496Y0019986D01*
X0171694Y0024077D02*
X0171244Y0024528D01*
X0171244Y0025429D01*
X0171694Y0025879D01*
X0172145Y0025879D01*
X0172595Y0025429D01*
X0173045Y0025879D01*
X0173496Y0025879D01*
X0173946Y0025429D01*
X0172595Y0025429D02*
X0172595Y0024978D01*
X0165401Y0014626D02*
X0163600Y0014626D01*
X0165401Y0014626D02*
X0165401Y0014176D01*
X0163600Y0012374D01*
X0163600Y0011924D01*
X0162455Y0011924D02*
X0160653Y0011924D01*
X0161554Y0011924D02*
X0161554Y0014626D01*
X0160653Y0013726D01*
X0159508Y0014176D02*
X0159058Y0014626D01*
X0158157Y0014626D01*
X0157707Y0014176D01*
X0157707Y0012374D01*
X0158157Y0011924D01*
X0159058Y0011924D01*
X0159508Y0012374D01*
X0151241Y0008176D02*
X0150790Y0008626D01*
X0149889Y0008626D01*
X0149439Y0008176D01*
X0148294Y0008176D02*
X0147844Y0008626D01*
X0146943Y0008626D01*
X0146493Y0008176D01*
X0145348Y0008176D02*
X0144897Y0008626D01*
X0143996Y0008626D01*
X0143546Y0008176D01*
X0143546Y0006374D01*
X0143996Y0005924D01*
X0144897Y0005924D01*
X0145348Y0006374D01*
X0146493Y0005924D02*
X0148294Y0007726D01*
X0148294Y0008176D01*
X0148294Y0005924D02*
X0146493Y0005924D01*
X0149439Y0005924D02*
X0151241Y0007726D01*
X0151241Y0008176D01*
X0151241Y0005924D02*
X0149439Y0005924D01*
X0136001Y0011774D02*
X0135551Y0011324D01*
X0134650Y0011324D01*
X0134200Y0011774D01*
X0134200Y0012225D01*
X0134650Y0012675D01*
X0135551Y0012675D01*
X0136001Y0012225D01*
X0136001Y0011774D01*
X0135551Y0012675D02*
X0136001Y0013126D01*
X0136001Y0013576D01*
X0135551Y0014026D01*
X0134650Y0014026D01*
X0134200Y0013576D01*
X0134200Y0013126D01*
X0134650Y0012675D01*
X0133055Y0011324D02*
X0131253Y0011324D01*
X0132154Y0011324D02*
X0132154Y0014026D01*
X0131253Y0013126D01*
X0130108Y0013576D02*
X0129658Y0014026D01*
X0128757Y0014026D01*
X0128307Y0013576D01*
X0128307Y0011774D01*
X0128757Y0011324D01*
X0129658Y0011324D01*
X0130108Y0011774D01*
X0123446Y0018274D02*
X0123446Y0019175D01*
X0122996Y0019626D01*
X0123446Y0020771D02*
X0121645Y0022572D01*
X0121194Y0022572D01*
X0120744Y0022122D01*
X0120744Y0021221D01*
X0121194Y0020771D01*
X0121194Y0019626D02*
X0120744Y0019175D01*
X0120744Y0018274D01*
X0121194Y0017824D01*
X0122996Y0017824D01*
X0123446Y0018274D01*
X0123446Y0020771D02*
X0123446Y0022572D01*
X0123446Y0023717D02*
X0123446Y0025519D01*
X0123446Y0024618D02*
X0120744Y0024618D01*
X0121645Y0023717D01*
X0113994Y0023874D02*
X0113994Y0025676D01*
X0113544Y0026126D01*
X0112643Y0026126D01*
X0112193Y0025676D01*
X0112193Y0025226D01*
X0112643Y0024775D01*
X0113994Y0024775D01*
X0113994Y0023874D02*
X0113544Y0023424D01*
X0112643Y0023424D01*
X0112193Y0023874D01*
X0111048Y0023424D02*
X0110147Y0024325D01*
X0110597Y0024325D02*
X0109246Y0024325D01*
X0109246Y0023424D02*
X0109246Y0026126D01*
X0110597Y0026126D01*
X0111048Y0025676D01*
X0111048Y0024775D01*
X0110597Y0024325D01*
X0119446Y0031774D02*
X0119896Y0031324D01*
X0120797Y0031324D01*
X0121248Y0031774D01*
X0122393Y0031324D02*
X0124194Y0031324D01*
X0123293Y0031324D02*
X0123293Y0034026D01*
X0122393Y0033126D01*
X0121248Y0033576D02*
X0120797Y0034026D01*
X0119896Y0034026D01*
X0119446Y0033576D01*
X0119446Y0031774D01*
X0125339Y0031774D02*
X0125789Y0031324D01*
X0126690Y0031324D01*
X0127141Y0031774D01*
X0127141Y0032225D01*
X0126690Y0032675D01*
X0125339Y0032675D01*
X0125339Y0031774D01*
X0125339Y0032675D02*
X0126240Y0033576D01*
X0127141Y0034026D01*
X0126290Y0037524D02*
X0126290Y0040226D01*
X0124939Y0038875D01*
X0126741Y0038875D01*
X0123794Y0037524D02*
X0121993Y0037524D01*
X0122893Y0037524D02*
X0122893Y0040226D01*
X0121993Y0039326D01*
X0120848Y0039776D02*
X0120397Y0040226D01*
X0119496Y0040226D01*
X0119046Y0039776D01*
X0119046Y0037974D01*
X0119496Y0037524D01*
X0120397Y0037524D01*
X0120848Y0037974D01*
X0145346Y0029726D02*
X0145346Y0027474D01*
X0145796Y0027024D01*
X0146697Y0027024D01*
X0147148Y0027474D01*
X0147148Y0029726D01*
X0148293Y0028826D02*
X0149193Y0029726D01*
X0149193Y0027024D01*
X0148293Y0027024D02*
X0150094Y0027024D01*
X0150251Y0043624D02*
X0150251Y0046326D01*
X0148900Y0044975D01*
X0150701Y0044975D01*
X0147755Y0044074D02*
X0147304Y0043624D01*
X0146403Y0043624D01*
X0145953Y0044074D01*
X0145953Y0045876D01*
X0146403Y0046326D01*
X0147304Y0046326D01*
X0147755Y0045876D01*
X0158953Y0045976D02*
X0158953Y0044174D01*
X0159403Y0043724D01*
X0160304Y0043724D01*
X0160755Y0044174D01*
X0161900Y0044174D02*
X0162350Y0043724D01*
X0163251Y0043724D01*
X0163701Y0044174D01*
X0163701Y0045075D01*
X0163251Y0045526D01*
X0162800Y0045526D01*
X0161900Y0045075D01*
X0161900Y0046426D01*
X0163701Y0046426D01*
X0160755Y0045976D02*
X0160304Y0046426D01*
X0159403Y0046426D01*
X0158953Y0045976D01*
X0169544Y0046175D02*
X0169544Y0044824D01*
X0172246Y0044824D01*
X0171345Y0044824D02*
X0171345Y0046175D01*
X0170895Y0046626D01*
X0169994Y0046626D01*
X0169544Y0046175D01*
X0170445Y0047771D02*
X0169544Y0048671D01*
X0172246Y0048671D01*
X0172246Y0047771D02*
X0172246Y0049572D01*
X0172246Y0050717D02*
X0171796Y0050717D01*
X0169994Y0052519D01*
X0169544Y0052519D01*
X0169544Y0050717D01*
X0172246Y0046626D02*
X0171345Y0045725D01*
X0174744Y0046175D02*
X0174744Y0044824D01*
X0177446Y0044824D01*
X0176545Y0044824D02*
X0176545Y0046175D01*
X0176095Y0046626D01*
X0175194Y0046626D01*
X0174744Y0046175D01*
X0175645Y0047771D02*
X0174744Y0048671D01*
X0177446Y0048671D01*
X0177446Y0047771D02*
X0177446Y0049572D01*
X0176996Y0050717D02*
X0176545Y0050717D01*
X0176095Y0051167D01*
X0176095Y0052068D01*
X0176545Y0052519D01*
X0176996Y0052519D01*
X0177446Y0052068D01*
X0177446Y0051167D01*
X0176996Y0050717D01*
X0176095Y0051167D02*
X0175645Y0050717D01*
X0175194Y0050717D01*
X0174744Y0051167D01*
X0174744Y0052068D01*
X0175194Y0052519D01*
X0175645Y0052519D01*
X0176095Y0052068D01*
X0177446Y0046626D02*
X0176545Y0045725D01*
X0115401Y0010026D02*
X0114500Y0009576D01*
X0113600Y0008675D01*
X0114951Y0008675D01*
X0115401Y0008225D01*
X0115401Y0007774D01*
X0114951Y0007324D01*
X0114050Y0007324D01*
X0113600Y0007774D01*
X0113600Y0008675D01*
X0112455Y0007324D02*
X0110653Y0007324D01*
X0111554Y0007324D02*
X0111554Y0010026D01*
X0110653Y0009126D01*
X0109508Y0009576D02*
X0109508Y0008675D01*
X0109058Y0008225D01*
X0107707Y0008225D01*
X0108607Y0008225D02*
X0109508Y0007324D01*
X0107707Y0007324D02*
X0107707Y0010026D01*
X0109058Y0010026D01*
X0109508Y0009576D01*
X0045090Y0054924D02*
X0045090Y0057626D01*
X0043739Y0056275D01*
X0045541Y0056275D01*
X0042594Y0055825D02*
X0042594Y0055374D01*
X0042144Y0054924D01*
X0041243Y0054924D01*
X0040793Y0055374D01*
X0039648Y0055374D02*
X0039197Y0054924D01*
X0038296Y0054924D01*
X0037846Y0055374D01*
X0037846Y0057176D01*
X0038296Y0057626D01*
X0039197Y0057626D01*
X0039648Y0057176D01*
X0040793Y0057176D02*
X0041243Y0057626D01*
X0042144Y0057626D01*
X0042594Y0057176D01*
X0042594Y0056726D01*
X0042144Y0056275D01*
X0042594Y0055825D01*
X0042144Y0056275D02*
X0041693Y0056275D01*
X0046282Y0060061D02*
X0046282Y0060849D01*
X0046282Y0060061D02*
X0049038Y0060061D01*
X0031321Y0062030D02*
X0028565Y0062030D01*
X0031321Y0062030D02*
X0031321Y0062817D01*
X0021479Y0062030D02*
X0018723Y0062030D01*
X0018723Y0062817D01*
X0015820Y0064679D02*
X0014019Y0064679D01*
X0015820Y0066481D01*
X0015820Y0066931D01*
X0015370Y0067381D01*
X0014469Y0067381D01*
X0014019Y0066931D01*
X0012874Y0067381D02*
X0012874Y0065130D01*
X0012423Y0064679D01*
X0011522Y0064679D01*
X0011072Y0065130D01*
X0011072Y0067381D01*
X0018723Y0073841D02*
X0018723Y0074628D01*
X0021479Y0074628D01*
X0028565Y0074628D02*
X0031321Y0074628D01*
X0031321Y0073841D01*
X0012646Y0081874D02*
X0012646Y0082775D01*
X0012196Y0083226D01*
X0012196Y0084371D02*
X0012646Y0084821D01*
X0012646Y0085722D01*
X0012196Y0086172D01*
X0011745Y0086172D01*
X0011295Y0085722D01*
X0011295Y0085271D01*
X0011295Y0085722D02*
X0010845Y0086172D01*
X0010394Y0086172D01*
X0009944Y0085722D01*
X0009944Y0084821D01*
X0010394Y0084371D01*
X0010394Y0083226D02*
X0009944Y0082775D01*
X0009944Y0081874D01*
X0010394Y0081424D01*
X0012196Y0081424D01*
X0012646Y0081874D01*
X0012196Y0087317D02*
X0012646Y0087767D01*
X0012646Y0088668D01*
X0012196Y0089119D01*
X0011745Y0089119D01*
X0011295Y0088668D01*
X0011295Y0088218D01*
X0011295Y0088668D02*
X0010845Y0089119D01*
X0010394Y0089119D01*
X0009944Y0088668D01*
X0009944Y0087767D01*
X0010394Y0087317D01*
X0011196Y0051619D02*
X0009394Y0051619D01*
X0011196Y0049817D01*
X0011646Y0050267D01*
X0011646Y0051168D01*
X0011196Y0051619D01*
X0009394Y0051619D02*
X0008944Y0051168D01*
X0008944Y0050267D01*
X0009394Y0049817D01*
X0011196Y0049817D01*
X0011646Y0048672D02*
X0011646Y0046871D01*
X0011646Y0047771D02*
X0008944Y0047771D01*
X0009845Y0046871D01*
X0010295Y0045726D02*
X0010745Y0045275D01*
X0010745Y0043924D01*
X0010745Y0044825D02*
X0011646Y0045726D01*
X0010295Y0045726D02*
X0009394Y0045726D01*
X0008944Y0045275D01*
X0008944Y0043924D01*
X0011646Y0043924D01*
X0033709Y0019494D02*
X0033709Y0017692D01*
X0033709Y0018593D02*
X0031007Y0018593D01*
X0031908Y0017692D01*
X0031007Y0016547D02*
X0033709Y0014746D01*
X0033709Y0016547D02*
X0031007Y0014746D01*
D14*
X0064786Y0061243D02*
X0064788Y0061299D01*
X0064794Y0061354D01*
X0064804Y0061408D01*
X0064817Y0061462D01*
X0064835Y0061515D01*
X0064856Y0061566D01*
X0064880Y0061616D01*
X0064908Y0061664D01*
X0064940Y0061710D01*
X0064974Y0061754D01*
X0065012Y0061795D01*
X0065052Y0061833D01*
X0065095Y0061868D01*
X0065140Y0061900D01*
X0065188Y0061929D01*
X0065237Y0061955D01*
X0065288Y0061977D01*
X0065340Y0061995D01*
X0065394Y0062009D01*
X0065449Y0062020D01*
X0065504Y0062027D01*
X0065559Y0062030D01*
X0065615Y0062029D01*
X0065670Y0062024D01*
X0065725Y0062015D01*
X0065779Y0062003D01*
X0065832Y0061986D01*
X0065884Y0061966D01*
X0065934Y0061942D01*
X0065982Y0061915D01*
X0066029Y0061885D01*
X0066073Y0061851D01*
X0066115Y0061814D01*
X0066153Y0061774D01*
X0066190Y0061732D01*
X0066223Y0061687D01*
X0066252Y0061641D01*
X0066279Y0061592D01*
X0066301Y0061541D01*
X0066321Y0061489D01*
X0066336Y0061435D01*
X0066348Y0061381D01*
X0066356Y0061326D01*
X0066360Y0061271D01*
X0066360Y0061215D01*
X0066356Y0061160D01*
X0066348Y0061105D01*
X0066336Y0061051D01*
X0066321Y0060997D01*
X0066301Y0060945D01*
X0066279Y0060894D01*
X0066252Y0060845D01*
X0066223Y0060799D01*
X0066190Y0060754D01*
X0066153Y0060712D01*
X0066115Y0060672D01*
X0066073Y0060635D01*
X0066029Y0060601D01*
X0065982Y0060571D01*
X0065934Y0060544D01*
X0065884Y0060520D01*
X0065832Y0060500D01*
X0065779Y0060483D01*
X0065725Y0060471D01*
X0065670Y0060462D01*
X0065615Y0060457D01*
X0065559Y0060456D01*
X0065504Y0060459D01*
X0065449Y0060466D01*
X0065394Y0060477D01*
X0065340Y0060491D01*
X0065288Y0060509D01*
X0065237Y0060531D01*
X0065188Y0060557D01*
X0065140Y0060586D01*
X0065095Y0060618D01*
X0065052Y0060653D01*
X0065012Y0060691D01*
X0064974Y0060732D01*
X0064940Y0060776D01*
X0064908Y0060822D01*
X0064880Y0060870D01*
X0064856Y0060920D01*
X0064835Y0060971D01*
X0064817Y0061024D01*
X0064804Y0061078D01*
X0064794Y0061132D01*
X0064788Y0061187D01*
X0064786Y0061243D01*
X0015574Y0075022D02*
X0015576Y0075078D01*
X0015582Y0075133D01*
X0015592Y0075187D01*
X0015605Y0075241D01*
X0015623Y0075294D01*
X0015644Y0075345D01*
X0015668Y0075395D01*
X0015696Y0075443D01*
X0015728Y0075489D01*
X0015762Y0075533D01*
X0015800Y0075574D01*
X0015840Y0075612D01*
X0015883Y0075647D01*
X0015928Y0075679D01*
X0015976Y0075708D01*
X0016025Y0075734D01*
X0016076Y0075756D01*
X0016128Y0075774D01*
X0016182Y0075788D01*
X0016237Y0075799D01*
X0016292Y0075806D01*
X0016347Y0075809D01*
X0016403Y0075808D01*
X0016458Y0075803D01*
X0016513Y0075794D01*
X0016567Y0075782D01*
X0016620Y0075765D01*
X0016672Y0075745D01*
X0016722Y0075721D01*
X0016770Y0075694D01*
X0016817Y0075664D01*
X0016861Y0075630D01*
X0016903Y0075593D01*
X0016941Y0075553D01*
X0016978Y0075511D01*
X0017011Y0075466D01*
X0017040Y0075420D01*
X0017067Y0075371D01*
X0017089Y0075320D01*
X0017109Y0075268D01*
X0017124Y0075214D01*
X0017136Y0075160D01*
X0017144Y0075105D01*
X0017148Y0075050D01*
X0017148Y0074994D01*
X0017144Y0074939D01*
X0017136Y0074884D01*
X0017124Y0074830D01*
X0017109Y0074776D01*
X0017089Y0074724D01*
X0017067Y0074673D01*
X0017040Y0074624D01*
X0017011Y0074578D01*
X0016978Y0074533D01*
X0016941Y0074491D01*
X0016903Y0074451D01*
X0016861Y0074414D01*
X0016817Y0074380D01*
X0016770Y0074350D01*
X0016722Y0074323D01*
X0016672Y0074299D01*
X0016620Y0074279D01*
X0016567Y0074262D01*
X0016513Y0074250D01*
X0016458Y0074241D01*
X0016403Y0074236D01*
X0016347Y0074235D01*
X0016292Y0074238D01*
X0016237Y0074245D01*
X0016182Y0074256D01*
X0016128Y0074270D01*
X0016076Y0074288D01*
X0016025Y0074310D01*
X0015976Y0074336D01*
X0015928Y0074365D01*
X0015883Y0074397D01*
X0015840Y0074432D01*
X0015800Y0074470D01*
X0015762Y0074511D01*
X0015728Y0074555D01*
X0015696Y0074601D01*
X0015668Y0074649D01*
X0015644Y0074699D01*
X0015623Y0074750D01*
X0015605Y0074803D01*
X0015592Y0074857D01*
X0015582Y0074911D01*
X0015576Y0074966D01*
X0015574Y0075022D01*
X0166520Y0124872D02*
X0166522Y0124921D01*
X0166528Y0124969D01*
X0166538Y0125017D01*
X0166552Y0125064D01*
X0166569Y0125110D01*
X0166590Y0125154D01*
X0166615Y0125196D01*
X0166643Y0125236D01*
X0166675Y0125274D01*
X0166709Y0125309D01*
X0166746Y0125341D01*
X0166785Y0125370D01*
X0166827Y0125396D01*
X0166871Y0125418D01*
X0166916Y0125436D01*
X0166963Y0125451D01*
X0167010Y0125462D01*
X0167059Y0125469D01*
X0167108Y0125472D01*
X0167157Y0125471D01*
X0167205Y0125466D01*
X0167254Y0125457D01*
X0167301Y0125444D01*
X0167347Y0125427D01*
X0167391Y0125407D01*
X0167434Y0125383D01*
X0167475Y0125356D01*
X0167513Y0125325D01*
X0167549Y0125292D01*
X0167581Y0125256D01*
X0167611Y0125217D01*
X0167638Y0125176D01*
X0167661Y0125132D01*
X0167680Y0125087D01*
X0167696Y0125041D01*
X0167708Y0124994D01*
X0167716Y0124945D01*
X0167720Y0124896D01*
X0167720Y0124848D01*
X0167716Y0124799D01*
X0167708Y0124750D01*
X0167696Y0124703D01*
X0167680Y0124657D01*
X0167661Y0124612D01*
X0167638Y0124568D01*
X0167611Y0124527D01*
X0167581Y0124488D01*
X0167549Y0124452D01*
X0167513Y0124419D01*
X0167475Y0124388D01*
X0167434Y0124361D01*
X0167391Y0124337D01*
X0167347Y0124317D01*
X0167301Y0124300D01*
X0167254Y0124287D01*
X0167205Y0124278D01*
X0167157Y0124273D01*
X0167108Y0124272D01*
X0167059Y0124275D01*
X0167010Y0124282D01*
X0166963Y0124293D01*
X0166916Y0124308D01*
X0166871Y0124326D01*
X0166827Y0124348D01*
X0166785Y0124374D01*
X0166746Y0124403D01*
X0166709Y0124435D01*
X0166675Y0124470D01*
X0166643Y0124508D01*
X0166615Y0124548D01*
X0166590Y0124590D01*
X0166569Y0124634D01*
X0166552Y0124680D01*
X0166538Y0124727D01*
X0166528Y0124775D01*
X0166522Y0124823D01*
X0166520Y0124872D01*
D15*
X0166450Y0128358D03*
X0167070Y0119072D03*
X0167210Y0119072D03*
X0167450Y0119072D03*
X0154484Y0120503D03*
X0151104Y0125360D03*
D16*
X0153199Y0126170D03*
X0154489Y0120551D03*
D17*
X0154459Y0120599D03*
D18*
X0154459Y0120646D03*
D19*
X0154439Y0120694D03*
D20*
X0154439Y0120741D03*
X0153339Y0126408D03*
D21*
X0153414Y0126503D03*
X0154414Y0120789D03*
D22*
X0154409Y0120837D03*
D23*
X0154389Y0120884D03*
X0157389Y0123741D03*
X0172545Y0120977D03*
D24*
X0171660Y0124358D03*
X0157414Y0123789D03*
X0154364Y0120932D03*
X0153084Y0129360D03*
D25*
X0154389Y0120980D03*
D26*
X0154364Y0121027D03*
D27*
X0154314Y0121075D03*
D28*
X0154319Y0121122D03*
D29*
X0154294Y0121170D03*
X0155154Y0123027D03*
X0155294Y0123551D03*
X0155344Y0123741D03*
X0155344Y0123884D03*
D30*
X0155294Y0125218D03*
X0154294Y0121218D03*
X0153484Y0129075D03*
D31*
X0155034Y0126265D03*
X0154654Y0121884D03*
X0154274Y0121265D03*
D32*
X0154269Y0121313D03*
X0154889Y0126599D03*
D33*
X0154294Y0121360D03*
D34*
X0154319Y0121408D03*
D35*
X0154364Y0121456D03*
D36*
X0154414Y0121503D03*
D37*
X0154439Y0121551D03*
X0154579Y0121741D03*
X0155099Y0126027D03*
X0155059Y0126170D03*
X0154959Y0126408D03*
X0154909Y0126551D03*
D38*
X0154959Y0126456D03*
X0155009Y0126313D03*
X0154629Y0121837D03*
X0154529Y0121694D03*
X0154489Y0121599D03*
X0171355Y0124024D03*
D39*
X0154509Y0121646D03*
D40*
X0154604Y0121789D03*
X0155174Y0125789D03*
X0155124Y0125932D03*
D41*
X0154699Y0121932D03*
D42*
X0154724Y0121980D03*
X0154914Y0122313D03*
D43*
X0154794Y0122122D03*
X0154744Y0122027D03*
D44*
X0154769Y0122075D03*
D45*
X0154819Y0122170D03*
D46*
X0154864Y0122218D03*
D47*
X0154864Y0122265D03*
D48*
X0154914Y0122360D03*
D49*
X0154939Y0122408D03*
D50*
X0154959Y0122456D03*
X0155339Y0124980D03*
X0155199Y0125694D03*
D51*
X0155364Y0124789D03*
X0155364Y0124646D03*
X0155364Y0124503D03*
X0155364Y0124360D03*
X0154984Y0122503D03*
D52*
X0155029Y0122551D03*
X0155079Y0122741D03*
X0155129Y0122884D03*
X0155319Y0125170D03*
D53*
X0155029Y0122599D03*
D54*
X0155029Y0122646D03*
X0167235Y0130358D03*
D55*
X0155344Y0123980D03*
X0155344Y0123837D03*
X0155344Y0123694D03*
X0155244Y0123313D03*
X0155154Y0122980D03*
X0155104Y0122837D03*
X0155054Y0122694D03*
D56*
X0155104Y0122789D03*
X0155154Y0122932D03*
X0155344Y0123789D03*
D57*
X0155389Y0124218D03*
X0155199Y0123075D03*
D58*
X0155199Y0123122D03*
X0155199Y0123170D03*
X0155389Y0124122D03*
X0155389Y0124265D03*
D59*
X0155219Y0123218D03*
D60*
X0155219Y0123265D03*
X0155269Y0123408D03*
X0155369Y0124027D03*
X0153409Y0129122D03*
D61*
X0155369Y0123932D03*
X0155319Y0123646D03*
X0155269Y0123503D03*
X0155269Y0123360D03*
D62*
X0155269Y0123456D03*
X0155319Y0123599D03*
D63*
X0151649Y0123646D03*
D64*
X0157314Y0123646D03*
D65*
X0151604Y0123694D03*
D66*
X0157344Y0123694D03*
D67*
X0151554Y0123741D03*
D68*
X0151529Y0123789D03*
D69*
X0151509Y0123837D03*
D70*
X0157439Y0123837D03*
D71*
X0151484Y0123884D03*
X0151484Y0125170D03*
D72*
X0157484Y0125027D03*
X0157484Y0123884D03*
X0171640Y0124310D03*
D73*
X0151459Y0123932D03*
D74*
X0157484Y0123932D03*
D75*
X0151434Y0123980D03*
D76*
X0157509Y0123980D03*
X0157509Y0124980D03*
X0171565Y0124262D03*
X0172375Y0121119D03*
D77*
X0170730Y0121310D03*
X0151434Y0124027D03*
X0151434Y0125027D03*
D78*
X0157509Y0124027D03*
D79*
X0151434Y0124075D03*
X0151434Y0125075D03*
D80*
X0155344Y0124075D03*
D81*
X0157534Y0124075D03*
D82*
X0151409Y0124122D03*
X0151409Y0124170D03*
X0151409Y0124884D03*
D83*
X0157534Y0124884D03*
X0157534Y0124122D03*
D84*
X0155364Y0124170D03*
X0155364Y0124408D03*
X0155364Y0124551D03*
X0155364Y0124741D03*
D85*
X0157554Y0124741D03*
X0157554Y0124408D03*
X0157554Y0124265D03*
X0157554Y0124170D03*
X0172330Y0121167D03*
D86*
X0167185Y0119500D03*
X0151409Y0124218D03*
D87*
X0157554Y0124218D03*
D88*
X0151389Y0124265D03*
X0151389Y0124408D03*
X0151389Y0124551D03*
X0151389Y0124741D03*
D89*
X0151389Y0124694D03*
X0151389Y0124599D03*
X0151389Y0124456D03*
X0151389Y0124313D03*
X0151389Y0124837D03*
D90*
X0155389Y0124313D03*
D91*
X0157554Y0124313D03*
X0157554Y0124456D03*
X0157554Y0124599D03*
X0157554Y0124694D03*
X0157554Y0124837D03*
D92*
X0151389Y0124789D03*
X0151389Y0124646D03*
X0151389Y0124503D03*
X0151389Y0124360D03*
D93*
X0157579Y0124360D03*
X0157579Y0124503D03*
X0157579Y0124646D03*
X0171545Y0124215D03*
X0172255Y0121215D03*
D94*
X0155364Y0124456D03*
X0155364Y0124599D03*
X0155364Y0124694D03*
X0155364Y0124837D03*
D95*
X0157579Y0124551D03*
D96*
X0157554Y0124789D03*
D97*
X0155339Y0124884D03*
X0155339Y0125027D03*
X0155339Y0125122D03*
X0155249Y0125551D03*
X0155199Y0125741D03*
X0155149Y0125884D03*
D98*
X0151409Y0124932D03*
D99*
X0155199Y0125646D03*
X0155249Y0125503D03*
X0155339Y0124932D03*
D100*
X0157534Y0124932D03*
D101*
X0151409Y0124980D03*
D102*
X0155339Y0125075D03*
D103*
X0157484Y0125075D03*
D104*
X0151459Y0125122D03*
D105*
X0157459Y0125122D03*
D106*
X0157439Y0125170D03*
D107*
X0151484Y0125218D03*
D108*
X0157414Y0125218D03*
D109*
X0151529Y0125265D03*
X0167165Y0119453D03*
D110*
X0155294Y0125265D03*
X0155294Y0125408D03*
D111*
X0157389Y0125265D03*
D112*
X0151579Y0125313D03*
D113*
X0155294Y0125313D03*
D114*
X0157439Y0125313D03*
D115*
X0149819Y0125360D03*
D116*
X0150079Y0125360D03*
D117*
X0150219Y0125360D03*
X0150319Y0125360D03*
X0150509Y0125360D03*
X0150889Y0125360D03*
X0153559Y0125360D03*
X0165805Y0128215D03*
X0167185Y0121072D03*
X0167285Y0121072D03*
X0167425Y0121072D03*
X0167565Y0119072D03*
X0166805Y0119072D03*
D118*
X0167330Y0119072D03*
X0168140Y0130358D03*
X0166330Y0130358D03*
X0150984Y0125360D03*
X0150414Y0125360D03*
D119*
X0150699Y0125360D03*
D120*
X0151554Y0125360D03*
D121*
X0152059Y0125360D03*
D122*
X0152294Y0125360D03*
D123*
X0152579Y0125360D03*
D124*
X0153059Y0125360D03*
X0172785Y0120786D03*
D125*
X0153439Y0125360D03*
D126*
X0155294Y0125360D03*
D127*
X0155274Y0125456D03*
X0155224Y0125599D03*
X0155174Y0125837D03*
X0155124Y0125980D03*
D128*
X0153129Y0126027D03*
X0165995Y0130310D03*
D129*
X0153149Y0126075D03*
D130*
X0155079Y0126075D03*
D131*
X0153174Y0126122D03*
X0152604Y0129741D03*
D132*
X0155079Y0126122D03*
D133*
X0153249Y0126218D03*
X0172925Y0120643D03*
D134*
X0155059Y0126218D03*
D135*
X0153244Y0126265D03*
X0172880Y0120691D03*
D136*
X0153269Y0126313D03*
D137*
X0153294Y0126360D03*
D138*
X0154909Y0126503D03*
X0155009Y0126360D03*
D139*
X0153364Y0126456D03*
D140*
X0153409Y0126551D03*
D141*
X0153434Y0126599D03*
D142*
X0154389Y0126646D03*
D143*
X0154389Y0126694D03*
X0154199Y0127837D03*
D144*
X0154389Y0126741D03*
D145*
X0154364Y0126789D03*
X0154174Y0127789D03*
D146*
X0154344Y0126837D03*
D147*
X0154319Y0126884D03*
D148*
X0154319Y0126932D03*
D149*
X0154294Y0126980D03*
D150*
X0154294Y0127027D03*
D151*
X0154274Y0127075D03*
X0154224Y0127218D03*
D152*
X0154249Y0127122D03*
D153*
X0154224Y0127170D03*
X0154224Y0127265D03*
X0171040Y0123691D03*
D154*
X0154199Y0127313D03*
X0154149Y0127456D03*
D155*
X0154199Y0127360D03*
D156*
X0154174Y0127408D03*
D157*
X0154129Y0127503D03*
X0167185Y0119215D03*
D158*
X0154129Y0127551D03*
D159*
X0154104Y0127599D03*
X0154104Y0127694D03*
X0171070Y0123738D03*
D160*
X0154079Y0127646D03*
D161*
X0154149Y0127741D03*
D162*
X0154219Y0127884D03*
X0170945Y0123596D03*
D163*
X0154244Y0127932D03*
D164*
X0154294Y0127980D03*
D165*
X0154314Y0128027D03*
X0154224Y0128551D03*
X0170280Y0128167D03*
D166*
X0170875Y0123500D03*
X0154339Y0128075D03*
D167*
X0154369Y0128122D03*
D168*
X0154389Y0128170D03*
D169*
X0154414Y0128218D03*
D170*
X0154464Y0128265D03*
X0154414Y0128408D03*
X0170000Y0128310D03*
D171*
X0154509Y0128313D03*
D172*
X0154484Y0128360D03*
D173*
X0154344Y0128456D03*
D174*
X0154294Y0128503D03*
D175*
X0154174Y0128599D03*
D176*
X0154104Y0128646D03*
X0163780Y0127929D03*
D177*
X0163710Y0121738D03*
X0170660Y0127881D03*
X0154034Y0128694D03*
D178*
X0153959Y0128741D03*
D179*
X0153889Y0128789D03*
X0163425Y0122072D03*
D180*
X0153819Y0128837D03*
D181*
X0153744Y0128884D03*
D182*
X0153699Y0128932D03*
X0162615Y0125786D03*
X0162665Y0125929D03*
X0162565Y0124358D03*
X0162615Y0124072D03*
X0162615Y0123929D03*
X0162665Y0123786D03*
X0171285Y0123929D03*
X0171665Y0125786D03*
X0171615Y0126072D03*
X0171565Y0126215D03*
D183*
X0153629Y0128980D03*
D184*
X0153554Y0129027D03*
X0171330Y0123977D03*
D185*
X0153364Y0129170D03*
D186*
X0153294Y0129218D03*
D187*
X0153244Y0129265D03*
D188*
X0153154Y0129313D03*
D189*
X0153009Y0129408D03*
D190*
X0153009Y0129456D03*
X0171735Y0124405D03*
D191*
X0152939Y0129503D03*
D192*
X0152869Y0129551D03*
D193*
X0152819Y0129599D03*
D194*
X0152749Y0129646D03*
D195*
X0152654Y0129694D03*
D196*
X0152668Y0117510D03*
D197*
X0152716Y0117460D03*
D198*
X0152763Y0117390D03*
X0156144Y0116870D03*
D199*
X0152811Y0117320D03*
D200*
X0152859Y0117270D03*
D201*
X0152906Y0117180D03*
D202*
X0152954Y0117130D03*
D203*
X0153001Y0117060D03*
X0158620Y0112770D03*
D204*
X0153049Y0117010D03*
D205*
X0153097Y0116940D03*
D206*
X0153144Y0116895D03*
D207*
X0153192Y0116800D03*
X0161192Y0115750D03*
D208*
X0153239Y0116725D03*
D209*
X0153287Y0116655D03*
X0158287Y0114745D03*
X0158430Y0114745D03*
X0158620Y0114745D03*
X0158763Y0114795D03*
X0158906Y0114795D03*
X0159001Y0114845D03*
X0159049Y0114845D03*
X0159144Y0114895D03*
D210*
X0157192Y0114795D03*
X0156859Y0114845D03*
X0153335Y0116605D03*
D211*
X0153382Y0116535D03*
X0160668Y0115585D03*
D212*
X0153430Y0116465D03*
D213*
X0153478Y0116415D03*
D214*
X0153525Y0116320D03*
D215*
X0153573Y0116270D03*
D216*
X0153620Y0116200D03*
D217*
X0153668Y0116155D03*
D218*
X0153716Y0116080D03*
X0155192Y0115840D03*
D219*
X0153763Y0115985D03*
D220*
X0153811Y0115935D03*
D221*
X0153859Y0115865D03*
D222*
X0153906Y0115820D03*
D223*
X0153954Y0115745D03*
D224*
X0154001Y0115675D03*
D225*
X0154049Y0115630D03*
D226*
X0154097Y0115610D03*
D227*
X0154144Y0115630D03*
D228*
X0154192Y0115655D03*
D229*
X0154239Y0115705D03*
D230*
X0154287Y0115725D03*
D231*
X0154335Y0115750D03*
D232*
X0154382Y0115800D03*
D233*
X0154430Y0115795D03*
D234*
X0154478Y0115820D03*
D235*
X0154525Y0115870D03*
D236*
X0154573Y0115890D03*
D237*
X0154620Y0115940D03*
D238*
X0154668Y0115965D03*
D239*
X0154716Y0115965D03*
X0154859Y0115965D03*
D240*
X0154763Y0115985D03*
D241*
X0154811Y0115985D03*
D242*
X0154906Y0115940D03*
X0155001Y0115890D03*
X0155049Y0115890D03*
D243*
X0154954Y0115940D03*
D244*
X0155097Y0115865D03*
D245*
X0155144Y0115865D03*
D246*
X0155239Y0115840D03*
D247*
X0155287Y0115820D03*
D248*
X0155335Y0115800D03*
D249*
X0155382Y0115775D03*
D250*
X0155430Y0115775D03*
D251*
X0155478Y0115775D03*
X0155573Y0115725D03*
D252*
X0155525Y0115750D03*
X0155668Y0115700D03*
D253*
X0155620Y0115700D03*
D254*
X0155716Y0115680D03*
D255*
X0155763Y0116605D03*
D256*
X0155763Y0115205D03*
X0156001Y0115105D03*
D257*
X0155811Y0116655D03*
D258*
X0155811Y0115205D03*
D259*
X0155859Y0116680D03*
D260*
X0155859Y0115180D03*
D261*
X0155906Y0116700D03*
D262*
X0155906Y0115130D03*
X0156049Y0115080D03*
D263*
X0155954Y0116725D03*
D264*
X0155954Y0115130D03*
X0156097Y0115080D03*
D265*
X0156001Y0116750D03*
D266*
X0156049Y0116795D03*
D267*
X0156097Y0116820D03*
D268*
X0156144Y0115035D03*
D269*
X0156192Y0116865D03*
D270*
X0156192Y0115035D03*
D271*
X0156239Y0116890D03*
D272*
X0156239Y0115010D03*
D273*
X0156287Y0116915D03*
D274*
X0156287Y0114990D03*
X0160287Y0115370D03*
D275*
X0160335Y0115370D03*
X0160478Y0115460D03*
X0156335Y0114990D03*
D276*
X0156382Y0114965D03*
X0156525Y0114915D03*
X0160239Y0115295D03*
D277*
X0156620Y0114915D03*
X0156430Y0114965D03*
D278*
X0156478Y0114915D03*
X0156573Y0114915D03*
X0160192Y0115295D03*
D279*
X0156668Y0114870D03*
D280*
X0156716Y0114870D03*
D281*
X0156763Y0114870D03*
X0161049Y0115820D03*
D282*
X0156811Y0114845D03*
D283*
X0156906Y0114845D03*
X0157001Y0114795D03*
X0157049Y0114795D03*
X0157144Y0114795D03*
D284*
X0156954Y0114820D03*
D285*
X0157001Y0118415D03*
D286*
X0157049Y0118465D03*
X0158620Y0118465D03*
D287*
X0157049Y0112725D03*
D288*
X0157097Y0118485D03*
D289*
X0157097Y0114795D03*
D290*
X0157097Y0112725D03*
D291*
X0157144Y0118535D03*
D292*
X0157144Y0112750D03*
D293*
X0157192Y0118560D03*
D294*
X0157192Y0112700D03*
D295*
X0157239Y0118585D03*
X0158382Y0118585D03*
D296*
X0157239Y0114770D03*
D297*
X0157239Y0112675D03*
D298*
X0157287Y0118585D03*
D299*
X0159287Y0114920D03*
X0157287Y0114770D03*
D300*
X0157287Y0112655D03*
X0158430Y0112655D03*
D301*
X0157335Y0118605D03*
D302*
X0157335Y0114750D03*
X0157478Y0114750D03*
D303*
X0157335Y0112630D03*
X0158335Y0112630D03*
D304*
X0158239Y0118605D03*
X0157382Y0118605D03*
D305*
X0157382Y0114750D03*
D306*
X0157382Y0112605D03*
X0158239Y0112605D03*
D307*
X0158144Y0118630D03*
X0157430Y0118630D03*
D308*
X0157430Y0114750D03*
D309*
X0157430Y0112605D03*
X0158287Y0112605D03*
D310*
X0158192Y0118630D03*
X0157478Y0118630D03*
D311*
X0157478Y0112580D03*
X0157573Y0112580D03*
X0158192Y0112580D03*
D312*
X0157525Y0118630D03*
D313*
X0157525Y0114725D03*
X0157668Y0114725D03*
X0157811Y0114725D03*
D314*
X0157525Y0112580D03*
D315*
X0157573Y0118655D03*
X0157716Y0118655D03*
X0157859Y0118655D03*
D316*
X0157859Y0114725D03*
X0157716Y0114725D03*
X0157573Y0114725D03*
D317*
X0157620Y0118655D03*
X0157763Y0118655D03*
X0157906Y0118655D03*
X0158001Y0118655D03*
X0158049Y0118655D03*
D318*
X0158049Y0114725D03*
X0158001Y0114725D03*
X0157906Y0114725D03*
X0157763Y0114725D03*
X0157620Y0114725D03*
X0158144Y0114725D03*
D319*
X0158144Y0112580D03*
X0157620Y0112580D03*
D320*
X0157668Y0118655D03*
X0157811Y0118655D03*
D321*
X0161239Y0115750D03*
X0157811Y0112560D03*
X0157668Y0112560D03*
D322*
X0157716Y0112560D03*
X0157859Y0112560D03*
D323*
X0157906Y0112560D03*
X0158001Y0112560D03*
X0158049Y0112560D03*
X0157763Y0112560D03*
D324*
X0157954Y0118655D03*
D325*
X0157954Y0114725D03*
D326*
X0157954Y0112560D03*
D327*
X0158097Y0118630D03*
D328*
X0158097Y0114725D03*
D329*
X0158097Y0112580D03*
D330*
X0158192Y0114725D03*
X0158335Y0114725D03*
D331*
X0158239Y0114725D03*
D332*
X0158287Y0118605D03*
D333*
X0158335Y0118585D03*
D334*
X0159239Y0114895D03*
X0158811Y0114795D03*
X0158525Y0114745D03*
X0158382Y0114745D03*
D335*
X0158382Y0112630D03*
D336*
X0158430Y0118560D03*
D337*
X0158478Y0118535D03*
D338*
X0159192Y0114895D03*
X0158859Y0114795D03*
X0158573Y0114745D03*
X0158478Y0114745D03*
D339*
X0158478Y0112675D03*
X0161335Y0115725D03*
D340*
X0158525Y0118510D03*
D341*
X0158525Y0112700D03*
D342*
X0158573Y0118485D03*
D343*
X0158573Y0112750D03*
D344*
X0158668Y0118390D03*
D345*
X0158668Y0114770D03*
D346*
X0158668Y0112845D03*
D347*
X0158716Y0114770D03*
D348*
X0158716Y0112750D03*
D349*
X0158954Y0114845D03*
X0159097Y0114845D03*
X0161097Y0115795D03*
D350*
X0159335Y0114940D03*
D351*
X0159382Y0114940D03*
D352*
X0159430Y0114960D03*
X0159620Y0115010D03*
D353*
X0159478Y0114985D03*
D354*
X0159525Y0115010D03*
X0159668Y0115060D03*
X0159811Y0115110D03*
D355*
X0159716Y0115060D03*
X0159573Y0115010D03*
D356*
X0159763Y0115085D03*
X0160001Y0115175D03*
X0160049Y0115225D03*
D357*
X0159859Y0115130D03*
D358*
X0159906Y0115130D03*
D359*
X0159954Y0115175D03*
D360*
X0160097Y0115250D03*
D361*
X0160144Y0115250D03*
D362*
X0160382Y0115415D03*
D363*
X0160430Y0115435D03*
X0160620Y0115585D03*
X0160763Y0115675D03*
X0161001Y0115825D03*
D364*
X0160525Y0115510D03*
D365*
X0160573Y0115535D03*
D366*
X0160716Y0115630D03*
D367*
X0160811Y0115700D03*
D368*
X0160859Y0115750D03*
D369*
X0160906Y0115800D03*
D370*
X0160954Y0115820D03*
D371*
X0161144Y0115770D03*
D372*
X0161287Y0115725D03*
D373*
X0161382Y0115675D03*
D374*
X0161430Y0115680D03*
D375*
X0161478Y0115655D03*
D376*
X0161525Y0115650D03*
D377*
X0161573Y0115630D03*
D378*
X0161620Y0115630D03*
D379*
X0161668Y0115630D03*
D380*
X0161716Y0115605D03*
D381*
X0161763Y0115605D03*
D382*
X0166475Y0119119D03*
X0167995Y0119119D03*
X0170755Y0125119D03*
X0170855Y0125119D03*
X0170945Y0125119D03*
X0171045Y0125119D03*
X0171235Y0125119D03*
X0171425Y0125119D03*
X0171565Y0125119D03*
X0171665Y0125119D03*
X0171755Y0125119D03*
X0171855Y0125119D03*
X0171945Y0125119D03*
X0172045Y0125119D03*
X0172235Y0125119D03*
X0172425Y0125119D03*
X0172665Y0125119D03*
X0172045Y0124738D03*
X0167615Y0128405D03*
X0167285Y0128405D03*
X0167285Y0130405D03*
X0167375Y0130405D03*
X0167475Y0130405D03*
X0167565Y0130405D03*
X0167185Y0130405D03*
X0167095Y0130405D03*
X0166995Y0130405D03*
D383*
X0167230Y0119119D03*
D384*
X0166140Y0119167D03*
D385*
X0167210Y0119167D03*
X0162590Y0124167D03*
X0162540Y0124453D03*
X0162540Y0124548D03*
X0162540Y0124596D03*
X0162540Y0124977D03*
X0162540Y0125167D03*
X0162590Y0125453D03*
X0162590Y0125548D03*
X0162590Y0125596D03*
X0162690Y0125977D03*
X0171690Y0125691D03*
X0171690Y0125596D03*
X0171690Y0125548D03*
X0171730Y0125310D03*
D386*
X0171190Y0122119D03*
X0167190Y0119262D03*
X0164090Y0121405D03*
D387*
X0167165Y0119310D03*
X0171115Y0121834D03*
X0170975Y0122310D03*
D388*
X0167160Y0119358D03*
X0169880Y0128358D03*
D389*
X0167165Y0119405D03*
D390*
X0167165Y0119548D03*
D391*
X0167185Y0119596D03*
D392*
X0167165Y0119643D03*
D393*
X0167185Y0119691D03*
D394*
X0167165Y0119738D03*
D395*
X0167160Y0119786D03*
X0167210Y0129786D03*
D396*
X0167165Y0119834D03*
D397*
X0167160Y0119881D03*
D398*
X0167165Y0119929D03*
D399*
X0167165Y0119977D03*
D400*
X0167160Y0120024D03*
D401*
X0167165Y0120072D03*
D402*
X0167165Y0120119D03*
D403*
X0167185Y0120167D03*
X0167185Y0129453D03*
D404*
X0167160Y0120215D03*
D405*
X0167165Y0120262D03*
D406*
X0167160Y0120310D03*
X0167160Y0129310D03*
D407*
X0167160Y0120358D03*
D408*
X0167165Y0120405D03*
D409*
X0167165Y0120453D03*
D410*
X0167135Y0120500D03*
D411*
X0167140Y0120548D03*
D412*
X0173070Y0120548D03*
X0168450Y0130310D03*
D413*
X0167140Y0120596D03*
D414*
X0173000Y0120596D03*
X0172000Y0124691D03*
D415*
X0167140Y0120643D03*
D416*
X0167140Y0120691D03*
D417*
X0167140Y0120738D03*
D418*
X0172830Y0120738D03*
D419*
X0167140Y0120786D03*
D420*
X0167115Y0120834D03*
X0167215Y0128834D03*
D421*
X0172710Y0120834D03*
D422*
X0167140Y0120881D03*
D423*
X0172640Y0120881D03*
D424*
X0167140Y0120929D03*
D425*
X0172590Y0120929D03*
D426*
X0167135Y0120977D03*
X0167185Y0128691D03*
D427*
X0167115Y0121024D03*
D428*
X0172470Y0121024D03*
D429*
X0164950Y0121072D03*
D430*
X0167520Y0121072D03*
D431*
X0169495Y0121072D03*
D432*
X0172425Y0121072D03*
D433*
X0164685Y0121119D03*
D434*
X0169640Y0121119D03*
X0170640Y0123262D03*
D435*
X0164565Y0121167D03*
D436*
X0169760Y0121167D03*
D437*
X0164425Y0121215D03*
D438*
X0169855Y0121215D03*
D439*
X0164330Y0121262D03*
D440*
X0170635Y0121262D03*
D441*
X0171160Y0122167D03*
X0164260Y0121310D03*
D442*
X0164185Y0121358D03*
D443*
X0170780Y0121358D03*
X0167210Y0130072D03*
D444*
X0170805Y0121405D03*
D445*
X0164045Y0121453D03*
D446*
X0170880Y0121453D03*
D447*
X0163970Y0121500D03*
D448*
X0170900Y0121500D03*
D449*
X0163905Y0121548D03*
X0163805Y0127977D03*
D450*
X0170975Y0121548D03*
D451*
X0163855Y0121596D03*
X0170565Y0127977D03*
D452*
X0170975Y0121596D03*
D453*
X0163805Y0121643D03*
D454*
X0170995Y0121643D03*
D455*
X0163735Y0121691D03*
D456*
X0171045Y0121691D03*
D457*
X0171090Y0121738D03*
D458*
X0163635Y0121786D03*
D459*
X0171065Y0121786D03*
D460*
X0163615Y0121834D03*
D461*
X0163570Y0121881D03*
D462*
X0171140Y0121881D03*
D463*
X0163545Y0121929D03*
D464*
X0171135Y0121929D03*
D465*
X0163495Y0121977D03*
D466*
X0170805Y0123453D03*
X0171185Y0121977D03*
D467*
X0163450Y0122024D03*
D468*
X0171185Y0122024D03*
D469*
X0171210Y0122072D03*
D470*
X0163400Y0122119D03*
D471*
X0163350Y0122167D03*
D472*
X0163330Y0122215D03*
X0171090Y0127358D03*
D473*
X0171095Y0122215D03*
D474*
X0171045Y0127405D03*
X0163285Y0122262D03*
D475*
X0171045Y0122262D03*
D476*
X0163260Y0122310D03*
X0167210Y0130310D03*
D477*
X0163285Y0127358D03*
X0163235Y0122358D03*
D478*
X0170950Y0122358D03*
D479*
X0163210Y0122405D03*
X0163210Y0127262D03*
D480*
X0170880Y0122405D03*
D481*
X0171115Y0127310D03*
X0163165Y0122453D03*
D482*
X0170830Y0122453D03*
D483*
X0163140Y0122500D03*
D484*
X0170780Y0122500D03*
D485*
X0171190Y0123834D03*
X0171190Y0127167D03*
X0163140Y0127167D03*
X0163040Y0126977D03*
X0163040Y0122691D03*
X0163090Y0122596D03*
X0163140Y0122548D03*
D486*
X0170710Y0122548D03*
D487*
X0170640Y0122596D03*
D488*
X0163065Y0122643D03*
D489*
X0170590Y0122643D03*
D490*
X0170565Y0122691D03*
D491*
X0163020Y0122738D03*
D492*
X0170495Y0122738D03*
D493*
X0163020Y0122786D03*
X0163020Y0126929D03*
D494*
X0170425Y0122786D03*
D495*
X0171355Y0126834D03*
X0171305Y0126977D03*
X0162975Y0126834D03*
X0162925Y0122977D03*
X0162975Y0122834D03*
D496*
X0170375Y0122834D03*
D497*
X0171380Y0126738D03*
X0171330Y0126881D03*
X0162950Y0126738D03*
X0162850Y0123119D03*
X0162900Y0123024D03*
X0162950Y0122881D03*
D498*
X0170350Y0122881D03*
D499*
X0171380Y0126786D03*
X0162950Y0126786D03*
X0162900Y0123072D03*
X0162950Y0122929D03*
D500*
X0170305Y0122929D03*
D501*
X0170330Y0122977D03*
D502*
X0170405Y0123024D03*
D503*
X0170450Y0123072D03*
D504*
X0170500Y0123119D03*
D505*
X0162850Y0123167D03*
X0162850Y0126596D03*
X0162900Y0126691D03*
D506*
X0170520Y0123167D03*
D507*
X0162830Y0123215D03*
X0162780Y0123358D03*
X0162780Y0126358D03*
D508*
X0170570Y0123215D03*
D509*
X0171210Y0123881D03*
X0171590Y0126119D03*
X0162830Y0123262D03*
X0162780Y0123405D03*
D510*
X0162780Y0123310D03*
X0162780Y0126310D03*
X0171450Y0126548D03*
X0171450Y0126596D03*
D511*
X0170685Y0123310D03*
D512*
X0170710Y0123358D03*
D513*
X0170780Y0123405D03*
D514*
X0171665Y0125834D03*
X0171615Y0125977D03*
X0171565Y0126167D03*
X0162665Y0125834D03*
X0162615Y0125691D03*
X0162565Y0125310D03*
X0162565Y0124310D03*
X0162615Y0123977D03*
X0162665Y0123834D03*
X0162755Y0123453D03*
D515*
X0162735Y0123500D03*
D516*
X0162735Y0123548D03*
X0162685Y0123691D03*
X0162735Y0126167D03*
X0162875Y0126548D03*
D517*
X0170875Y0123548D03*
D518*
X0162710Y0123596D03*
D519*
X0162710Y0123643D03*
X0171710Y0125500D03*
D520*
X0170995Y0123643D03*
D521*
X0171665Y0125738D03*
X0171615Y0126024D03*
X0162805Y0126405D03*
X0162755Y0126262D03*
X0162665Y0125881D03*
X0162565Y0125405D03*
X0162615Y0124024D03*
X0162665Y0123881D03*
X0162665Y0123738D03*
D522*
X0171115Y0123786D03*
D523*
X0171425Y0124072D03*
D524*
X0171730Y0125262D03*
X0171640Y0125881D03*
X0162640Y0125738D03*
X0162540Y0125262D03*
X0162540Y0125119D03*
X0162540Y0125024D03*
X0162540Y0124881D03*
X0162540Y0124738D03*
X0162540Y0124405D03*
X0162590Y0124262D03*
X0162590Y0124119D03*
D525*
X0171450Y0124119D03*
D526*
X0171495Y0124167D03*
D527*
X0171730Y0125215D03*
X0171730Y0125358D03*
X0171640Y0125929D03*
X0162540Y0125358D03*
X0162540Y0125215D03*
X0162540Y0125072D03*
X0162590Y0124215D03*
D528*
X0171780Y0124453D03*
D529*
X0171690Y0125643D03*
X0162590Y0125500D03*
X0162540Y0124643D03*
X0162540Y0124500D03*
D530*
X0171830Y0124500D03*
D531*
X0171880Y0124548D03*
D532*
X0171905Y0124596D03*
D533*
X0171950Y0124643D03*
D534*
X0162520Y0124691D03*
X0162520Y0124834D03*
D535*
X0162520Y0124786D03*
D536*
X0162520Y0124929D03*
D537*
X0167140Y0128405D03*
X0166900Y0130405D03*
X0164900Y0130024D03*
X0171140Y0125119D03*
X0171330Y0125119D03*
X0172140Y0125119D03*
X0172330Y0125119D03*
D538*
X0172520Y0125119D03*
D539*
X0171710Y0125167D03*
X0171710Y0125453D03*
D540*
X0171710Y0125405D03*
X0162710Y0126119D03*
D541*
X0162615Y0125643D03*
D542*
X0162685Y0126024D03*
D543*
X0162710Y0126072D03*
D544*
X0162735Y0126215D03*
D545*
X0171495Y0126405D03*
X0171545Y0126262D03*
D546*
X0171545Y0126310D03*
X0171495Y0126453D03*
D547*
X0171545Y0126358D03*
D548*
X0171425Y0126691D03*
X0162805Y0126453D03*
D549*
X0162830Y0126500D03*
D550*
X0171495Y0126500D03*
D551*
X0162900Y0126643D03*
D552*
X0171425Y0126643D03*
D553*
X0171255Y0127024D03*
X0163065Y0127024D03*
X0162975Y0126881D03*
D554*
X0171305Y0126929D03*
D555*
X0163090Y0127072D03*
D556*
X0171235Y0127072D03*
D557*
X0171115Y0127262D03*
X0163115Y0127119D03*
D558*
X0171235Y0127119D03*
D559*
X0171165Y0127215D03*
X0163165Y0127215D03*
D560*
X0163235Y0127310D03*
D561*
X0163310Y0127405D03*
D562*
X0163310Y0127453D03*
X0171020Y0127453D03*
D563*
X0163375Y0127500D03*
D564*
X0170970Y0127500D03*
D565*
X0163375Y0127548D03*
D566*
X0170905Y0127596D03*
X0170945Y0127548D03*
D567*
X0163450Y0127596D03*
D568*
X0163495Y0127643D03*
D569*
X0170880Y0127643D03*
D570*
X0163520Y0127691D03*
D571*
X0170830Y0127691D03*
D572*
X0163545Y0127738D03*
D573*
X0170805Y0127738D03*
D574*
X0163615Y0127786D03*
D575*
X0170760Y0127786D03*
D576*
X0170710Y0127834D03*
X0163660Y0127834D03*
D577*
X0163710Y0127881D03*
D578*
X0170590Y0127929D03*
D579*
X0163880Y0128024D03*
D580*
X0170500Y0128024D03*
D581*
X0163950Y0128072D03*
D582*
X0170425Y0128072D03*
D583*
X0164020Y0128119D03*
D584*
X0167255Y0130262D03*
X0170355Y0128119D03*
D585*
X0164115Y0128167D03*
D586*
X0164160Y0128215D03*
X0170210Y0128215D03*
D587*
X0164280Y0128262D03*
D588*
X0170115Y0128262D03*
D589*
X0164400Y0128310D03*
D590*
X0164495Y0128358D03*
D591*
X0164755Y0128405D03*
X0167235Y0130119D03*
D592*
X0166900Y0128405D03*
D593*
X0169665Y0128405D03*
D594*
X0167160Y0128453D03*
D595*
X0167160Y0128500D03*
D596*
X0167185Y0128548D03*
D597*
X0167190Y0128596D03*
D598*
X0167185Y0128643D03*
D599*
X0167160Y0128738D03*
D600*
X0167165Y0128786D03*
D601*
X0167165Y0128881D03*
D602*
X0167210Y0128929D03*
D603*
X0167165Y0128977D03*
D604*
X0167190Y0129024D03*
D605*
X0167185Y0129072D03*
D606*
X0167160Y0129119D03*
D607*
X0167185Y0129167D03*
D608*
X0167190Y0129215D03*
D609*
X0167210Y0129262D03*
D610*
X0167190Y0129358D03*
D611*
X0167185Y0129405D03*
D612*
X0167190Y0129500D03*
D613*
X0167210Y0129548D03*
D614*
X0167185Y0129596D03*
D615*
X0167215Y0129643D03*
D616*
X0167210Y0129691D03*
D617*
X0167190Y0129738D03*
D618*
X0167185Y0129834D03*
D619*
X0167210Y0129881D03*
D620*
X0167210Y0129929D03*
D621*
X0167210Y0129977D03*
D622*
X0167235Y0130024D03*
D623*
X0167210Y0130167D03*
D624*
X0167210Y0130215D03*
D625*
X0165139Y0066564D02*
X0145454Y0066564D01*
X0145454Y0052784D02*
X0165139Y0052784D01*
D626*
X0168643Y0073515D02*
X0171950Y0073515D01*
X0171950Y0078633D02*
X0168643Y0078633D01*
X0150685Y0025972D02*
X0144307Y0025972D01*
X0144307Y0014776D02*
X0150685Y0014776D01*
X0058996Y0116374D02*
X0058996Y0119774D01*
X0033996Y0119774D02*
X0033996Y0116374D01*
D627*
X0184755Y0060704D02*
X0184755Y0034523D01*
D628*
X0086341Y0027483D02*
X0086341Y0006813D01*
X0065180Y0006813D01*
X0065180Y0010258D01*
X0082306Y0010258D01*
X0082306Y0024038D01*
X0038605Y0024038D01*
X0038605Y0010258D01*
X0055731Y0010258D01*
X0055731Y0006813D01*
X0065180Y0006813D01*
X0055731Y0006813D02*
X0034569Y0006813D01*
X0034569Y0027483D01*
X0086341Y0027483D01*
X0050455Y0006835D02*
X0051705Y0004335D01*
X0049205Y0004335D01*
X0050455Y0006835D01*
X0050280Y0006484D02*
X0050631Y0006484D01*
X0050830Y0006086D02*
X0050080Y0006086D01*
X0049881Y0005687D02*
X0051029Y0005687D01*
X0051228Y0005289D02*
X0049682Y0005289D01*
X0049483Y0004890D02*
X0051428Y0004890D01*
X0051627Y0004492D02*
X0049283Y0004492D01*
D629*
X0046603Y0013235D02*
X0044668Y0013235D01*
X0045635Y0013235D02*
X0045635Y0016138D01*
X0044668Y0015170D01*
X0044355Y0018235D02*
X0046290Y0020170D01*
X0046290Y0020654D01*
X0045806Y0021138D01*
X0044839Y0021138D01*
X0044355Y0020654D01*
X0044355Y0018235D02*
X0046290Y0018235D01*
M02*
