  0
SECTION
  2
HEADER
  9
$ACADVER
  1
AC1009
  9
$FILLMODE
 70
0
  9
$EXTMIN
 10
-7.2009
 20
-4.4196
 30
0.0000
  9
$EXTMAX
 10
40.1060
 20
32.7600
 30
0.0000
  0
ENDSEC
  0
SECTION
  2
TABLES
  0
TABLE
  2
LTYPE
 70
1
  0
LTYPE
  2
CONTINUOUS
 70
64
  3
Solid line
 72
65
 73
0
 40
0
  0
ENDTAB
  0
TABLE
  2
LAYER
 70
255
  0
LAYER
  2
20
 70
64
 62
7
  6
CONTINUOUS
  0
LAYER
  2
37
 70
64
 62
253
  6
CONTINUOUS
  0
LAYER
  2
38
 70
64
 62
253
  6
CONTINUOUS
  0
LAYER
  2
45
 70
64
 62
253
  6
CONTINUOUS
  0
LAYER
  2
47
 70
64
 62
253
  6
CONTINUOUS
  0
LAYER
  2
88
 70
64
 62
5
  6
CONTINUOUS
  0
LAYER
  2
89
 70
64
 62
5
  6
CONTINUOUS
  0
LAYER
  2
100
 70
64
 62
253
  6
CONTINUOUS
  0
LAYER
  2
101
 70
64
 62
1
  6
CONTINUOUS
  0
LAYER
  2
102
 70
64
 62
253
  6
CONTINUOUS
  0
LAYER
  2
103
 70
64
 62
253
  6
CONTINUOUS
  0
LAYER
  2
104
 70
64
 62
253
  6
CONTINUOUS
  0
LAYER
  2
105
 70
64
 62
253
  6
CONTINUOUS
  0
LAYER
  2
106
 70
64
 62
253
  6
CONTINUOUS
  0
LAYER
  2
107
 70
64
 62
253
  6
CONTINUOUS
  0
LAYER
  2
108
 70
64
 62
253
  6
CONTINUOUS
  0
LAYER
  2
109
 70
64
 62
253
  6
CONTINUOUS
  0
LAYER
  2
110
 70
64
 62
253
  6
CONTINUOUS
  0
LAYER
  2
111
 70
64
 62
253
  6
CONTINUOUS
  0
LAYER
  2
112
 70
64
 62
253
  6
CONTINUOUS
  0
LAYER
  2
114
 70
64
 62
253
  6
CONTINUOUS
  0
LAYER
  2
115
 70
64
 62
253
  6
CONTINUOUS
  0
LAYER
  2
116
 70
64
 62
5
  6
CONTINUOUS
  0
LAYER
  2
121
 70
64
 62
253
  6
CONTINUOUS
  0
LAYER
  2
122
 70
64
 62
253
  6
CONTINUOUS
  0
LAYER
  2
123
 70
64
 62
253
  6
CONTINUOUS
  0
LAYER
  2
124
 70
64
 62
253
  6
CONTINUOUS
  0
LAYER
  2
125
 70
64
 62
253
  6
CONTINUOUS
  0
LAYER
  2
126
 70
64
 62
253
  6
CONTINUOUS
  0
LAYER
  2
127
 70
64
 62
253
  6
CONTINUOUS
  0
LAYER
  2
128
 70
64
 62
253
  6
CONTINUOUS
  0
LAYER
  2
129
 70
64
 62
253
  6
CONTINUOUS
  0
LAYER
  2
131
 70
64
 62
253
  6
CONTINUOUS
  0
LAYER
  2
132
 70
64
 62
253
  6
CONTINUOUS
  0
LAYER
  2
144
 70
64
 62
253
  6
CONTINUOUS
  0
LAYER
  2
150
 70
64
 62
253
  6
CONTINUOUS
  0
LAYER
  2
151
 70
64
 62
253
  6
CONTINUOUS
  0
LAYER
  2
152
 70
64
 62
253
  6
CONTINUOUS
  0
LAYER
  2
199
 70
64
 62
253
  6
CONTINUOUS
  0
LAYER
  2
200
 70
64
 62
175
  6
CONTINUOUS
  0
LAYER
  2
201
 70
64
 62
82
  6
CONTINUOUS
  0
LAYER
  2
202
 70
64
 62
140
  6
CONTINUOUS
  0
LAYER
  2
203
 70
64
 62
22
  6
CONTINUOUS
  0
LAYER
  2
204
 70
64
 62
213
  6
CONTINUOUS
  0
LAYER
  2
205
 70
64
 62
53
  6
CONTINUOUS
  0
LAYER
  2
206
 70
64
 62
253
  6
CONTINUOUS
  0
LAYER
  2
207
 70
64
 62
250
  6
CONTINUOUS
  0
LAYER
  2
208
 70
64
 62
5
  6
CONTINUOUS
  0
LAYER
  2
209
 70
64
 62
253
  6
CONTINUOUS
  0
LAYER
  2
210
 70
64
 62
253
  6
CONTINUOUS
  0
LAYER
  2
211
 70
64
 62
253
  6
CONTINUOUS
  0
LAYER
  2
212
 70
64
 62
253
  6
CONTINUOUS
  0
LAYER
  2
213
 70
64
 62
253
  6
CONTINUOUS
  0
LAYER
  2
214
 70
64
 62
253
  6
CONTINUOUS
  0
LAYER
  2
215
 70
64
 62
253
  6
CONTINUOUS
  0
LAYER
  2
216
 70
64
 62
253
  6
CONTINUOUS
  0
LAYER
  2
225
 70
64
 62
253
  6
CONTINUOUS
  0
LAYER
  2
226
 70
64
 62
253
  6
CONTINUOUS
  0
LAYER
  2
227
 70
64
 62
253
  6
CONTINUOUS
  0
LAYER
  2
228
 70
64
 62
253
  6
CONTINUOUS
  0
LAYER
  2
229
 70
64
 62
253
  6
CONTINUOUS
  0
LAYER
  2
230
 70
64
 62
253
  6
CONTINUOUS
  0
LAYER
  2
248
 70
64
 62
253
  6
CONTINUOUS
  0
LAYER
  2
249
 70
64
 62
253
  6
CONTINUOUS
  0
LAYER
  2
250
 70
64
 62
253
  6
CONTINUOUS
  0
LAYER
  2
251
 70
64
 62
253
  6
CONTINUOUS
  0
LAYER
  2
252
 70
64
 62
22
  6
CONTINUOUS
  0
LAYER
  2
253
 70
64
 62
175
  6
CONTINUOUS
  0
LAYER
  2
254
 70
64
 62
253
  6
CONTINUOUS
  0
LAYER
  2
255
 70
64
 62
253
  6
CONTINUOUS
  0
ENDTAB
  0
ENDSEC
  0
SECTION
  2
BLOCKS
  0
BLOCK
  8
0
  2
RECT
 70
64
 10
0.0000
 20
0.0000
 30
0.0000
  3
RECT
  0
SOLID
  8
0
 10
-0.5000
 20
-0.5000
 30
0.0000
 11
0.5000
 21
-0.5000
 31
0.0000
 12
-0.5000
 22
0.5000
 32
0.0000
 13
0.5000
 23
0.5000
 33
0.0000
  0
ENDBLK
  8
0
  0
BLOCK
  8
0
  2
PIE
 70
64
 10
0.0000
 20
0.0000
 30
0.0000
  3
PIE
  0
CIRCLE
  8
0
 10
0.0000
 20
0.0000
 30
0.0000
 40
0.5000
  0
ENDBLK
  8
0
  0
BLOCK
  8
0
  2
OCTAGONP
 70
64
 10
0.0000
 20
0.0000
 30
0.0000
  3
OCTAGONP
  0
POLYLINE
  8
0
 66
1
 10
0.0000
 20
0.0000
 30
0.0000
 40
0.0000
 41
0.0000
 70
1
  0
VERTEX
  8
0
 10
-0.5000
 20
-0.2071
 30
0.0000
  0
VERTEX
  8
0
 10
-0.5000
 20
0.2071
 30
0.0000
  0
VERTEX
  8
0
 10
-0.2071
 20
0.5000
 30
0.0000
  0
VERTEX
  8
0
 10
0.2071
 20
0.5000
 30
0.0000
  0
VERTEX
  8
0
 10
0.5000
 20
0.2071
 30
0.0000
  0
VERTEX
  8
0
 10
0.5000
 20
-0.2071
 30
0.0000
  0
VERTEX
  8
0
 10
0.2071
 20
-0.5000
 30
0.0000
  0
VERTEX
  8
0
 10
-0.2071
 20
-0.5000
 30
0.0000
  0
SEQEND
  8
0
  0
ENDBLK
  8
0
  0
BLOCK
  8
0
  2
SQUAREP
 70
64
 10
0.0000
 20
0.0000
 30
0.0000
  3
SQUAREP
  0
SOLID
  8
0
 10
-0.5000
 20
-0.5000
 30
0.0000
 11
0.5000
 21
-0.5000
 31
0.0000
 12
-0.5000
 22
0.5000
 32
0.0000
 13
0.5000
 23
0.5000
 33
0.0000
  0
ENDBLK
  8
0
  0
BLOCK
  8
0
  2
ROUNDP
 70
64
 10
0.0000
 20
0.0000
 30
0.0000
  3
ROUNDP
  0
CIRCLE
  8
0
 10
0.0000
 20
0.0000
 30
0.0000
 40
0.5000
  0
ENDBLK
  8
0
  0
BLOCK
  8
0
  2
ANNULUSP
 70
64
 10
0.0000
 20
0.0000
 30
0.0000
  3
ANNULUSP
  0
CIRCLE
  8
0
 10
0.0000
 20
0.0000
 30
0.0000
 40
0.5000
  0
ENDBLK
  8
0
  0
BLOCK
  8
0
  2
THERMALP
 70
64
 10
0.0000
 20
0.0000
 30
0.0000
  3
THERMALP
  0
LINE
  8
0
 10
-0.2379
 20
0.4500
 30
0.0000
 11
0.2379
 21
0.4500
 31
0.0000
  0
LINE
  8
0
 10
0.4500
 20
0.2379
 30
0.0000
 11
0.4500
 21
-0.2379
 31
0.0000
  0
LINE
  8
0
 10
0.2379
 20
-0.4500
 30
0.0000
 11
-0.2379
 21
-0.4500
 31
0.0000
  0
LINE
  8
0
 10
-0.4500
 20
-0.2379
 30
0.0000
 11
-0.4500
 21
0.2379
 31
0.0000
  0
ENDBLK
  8
0
  0
BLOCK
  8
0
  2
OCTAGONV
 70
64
 10
0.0000
 20
0.0000
 30
0.0000
  3
OCTAGONV
  0
POLYLINE
  8
0
 66
1
 10
0.0000
 20
0.0000
 30
0.0000
 40
0.0000
 41
0.0000
 70
1
  0
VERTEX
  8
0
 10
-0.5000
 20
-0.2071
 30
0.0000
  0
VERTEX
  8
0
 10
-0.5000
 20
0.2071
 30
0.0000
  0
VERTEX
  8
0
 10
-0.2071
 20
0.5000
 30
0.0000
  0
VERTEX
  8
0
 10
0.2071
 20
0.5000
 30
0.0000
  0
VERTEX
  8
0
 10
0.5000
 20
0.2071
 30
0.0000
  0
VERTEX
  8
0
 10
0.5000
 20
-0.2071
 30
0.0000
  0
VERTEX
  8
0
 10
0.2071
 20
-0.5000
 30
0.0000
  0
VERTEX
  8
0
 10
-0.2071
 20
-0.5000
 30
0.0000
  0
SEQEND
  8
0
  0
ENDBLK
  8
0
  0
BLOCK
  8
0
  2
SQUAREV
 70
64
 10
0.0000
 20
0.0000
 30
0.0000
  3
SQUAREV
  0
SOLID
  8
0
 10
-0.5000
 20
-0.5000
 30
0.0000
 11
0.5000
 21
-0.5000
 31
0.0000
 12
-0.5000
 22
0.5000
 32
0.0000
 13
0.5000
 23
0.5000
 33
0.0000
  0
ENDBLK
  8
0
  0
BLOCK
  8
0
  2
ROUNDV
 70
64
 10
0.0000
 20
0.0000
 30
0.0000
  3
ROUNDV
  0
CIRCLE
  8
0
 10
0.0000
 20
0.0000
 30
0.0000
 40
0.5000
  0
ENDBLK
  8
0
  0
BLOCK
  8
0
  2
ANNULUSV
 70
64
 10
0.0000
 20
0.0000
 30
0.0000
  3
ANNULUSV
  0
CIRCLE
  8
0
 10
0.0000
 20
0.0000
 30
0.0000
 40
0.5000
  0
ENDBLK
  8
0
  0
BLOCK
  8
0
  2
THERMALV
 70
64
 10
0.0000
 20
0.0000
 30
0.0000
  3
THERMALV
  0
LINE
  8
0
 10
-0.2379
 20
0.4500
 30
0.0000
 11
0.2379
 21
0.4500
 31
0.0000
  0
LINE
  8
0
 10
0.4500
 20
0.2379
 30
0.0000
 11
0.4500
 21
-0.2379
 31
0.0000
  0
LINE
  8
0
 10
0.2379
 20
-0.4500
 30
0.0000
 11
-0.2379
 21
-0.4500
 31
0.0000
  0
LINE
  8
0
 10
-0.4500
 20
-0.2379
 30
0.0000
 11
-0.4500
 21
0.2379
 31
0.0000
  0
ENDBLK
  8
0
  0
ENDSEC
  0
SECTION
  2
ENTITIES
  0
LINE
  8
20
 10
37.0000
 20
1.0000
 30
0.0000
 11
-4.0000
 21
1.0000
 31
0.0000
  0
ARC
  8
20
 10
-4.0000
 20
4.0000
 30
0.0000
 40
3.0000
 50
180.0000
 51
270.0000
  0
LINE
  8
20
 10
-7.0000
 20
4.0000
 30
0.0000
 11
-7.0000
 21
26.0000
 31
0.0000
  0
ARC
  8
20
 10
-4.0000
 20
26.0000
 30
0.0000
 40
3.0000
 50
90.0000
 51
180.0000
  0
LINE
  8
20
 10
-4.0000
 20
29.0000
 30
0.0000
 11
37.0000
 21
29.0000
 31
0.0000
  0
LINE
  8
20
 10
37.0000
 20
29.0000
 30
0.0000
 11
37.0000
 21
16.0000
 31
0.0000
  0
LINE
  8
20
 10
37.0000
 20
16.0000
 30
0.0000
 11
36.0000
 21
16.0000
 31
0.0000
  0
LINE
  8
20
 10
36.0000
 20
14.0000
 30
0.0000
 11
37.0000
 21
14.0000
 31
0.0000
  0
LINE
  8
20
 10
37.0000
 20
14.0000
 30
0.0000
 11
37.0000
 21
1.0000
 31
0.0000
  0
ARC
  8
20
 10
36.0000
 20
15.0000
 30
0.0000
 40
1.0000
 50
90.0000
 51
270.0000
  0
CIRCLE
  8
20
 10
-4.0000
 20
4.0000
 30
0.0000
 40
1.1000
  0
CIRCLE
  8
20
 10
-4.0000
 20
26.0000
 30
0.0000
 40
1.1000
  0
LINE
  8
45
 10
35.2060
 20
19.8100
 30
0.0000
 11
35.9060
 21
19.8100
 31
0.0000
  0
LINE
  8
45
 10
35.9060
 20
19.8100
 30
0.0000
 11
35.9728
 21
19.8025
 31
0.0000
  0
LINE
  8
45
 10
35.9728
 20
19.8025
 30
0.0000
 11
36.0362
 21
19.7803
 31
0.0000
  0
LINE
  8
45
 10
36.0362
 20
19.7803
 30
0.0000
 11
36.0930
 21
19.7446
 31
0.0000
  0
LINE
  8
45
 10
36.0930
 20
19.7446
 30
0.0000
 11
36.1406
 21
19.6970
 31
0.0000
  0
LINE
  8
45
 10
36.1406
 20
19.6970
 30
0.0000
 11
36.1763
 21
19.6402
 31
0.0000
  0
LINE
  8
45
 10
36.1763
 20
19.6402
 30
0.0000
 11
36.1985
 21
19.5768
 31
0.0000
  0
LINE
  8
45
 10
36.1985
 20
19.5768
 30
0.0000
 11
36.2060
 21
19.5100
 31
0.0000
  0
LINE
  8
45
 10
36.2060
 20
19.5100
 30
0.0000
 11
36.1985
 21
19.4432
 31
0.0000
  0
LINE
  8
45
 10
36.1985
 20
19.4432
 30
0.0000
 11
36.1763
 21
19.3798
 31
0.0000
  0
LINE
  8
45
 10
36.1763
 20
19.3798
 30
0.0000
 11
36.1406
 21
19.3230
 31
0.0000
  0
LINE
  8
45
 10
36.1406
 20
19.3230
 30
0.0000
 11
36.0930
 21
19.2754
 31
0.0000
  0
LINE
  8
45
 10
36.0930
 20
19.2754
 30
0.0000
 11
36.0362
 21
19.2397
 31
0.0000
  0
LINE
  8
45
 10
36.0362
 20
19.2397
 30
0.0000
 11
35.9728
 21
19.2175
 31
0.0000
  0
LINE
  8
45
 10
35.9728
 20
19.2175
 30
0.0000
 11
35.9060
 21
19.2100
 31
0.0000
  0
LINE
  8
45
 10
35.9060
 20
19.2100
 30
0.0000
 11
35.2060
 21
19.2100
 31
0.0000
  0
LINE
  8
45
 10
35.2060
 20
19.2100
 30
0.0000
 11
35.1392
 21
19.2175
 31
0.0000
  0
LINE
  8
45
 10
35.1392
 20
19.2175
 30
0.0000
 11
35.0758
 21
19.2397
 31
0.0000
  0
LINE
  8
45
 10
35.0758
 20
19.2397
 30
0.0000
 11
35.0190
 21
19.2754
 31
0.0000
  0
LINE
  8
45
 10
35.0190
 20
19.2754
 30
0.0000
 11
34.9715
 21
19.3230
 31
0.0000
  0
LINE
  8
45
 10
34.9715
 20
19.3230
 30
0.0000
 11
34.9357
 21
19.3798
 31
0.0000
  0
LINE
  8
45
 10
34.9357
 20
19.3798
 30
0.0000
 11
34.9135
 21
19.4432
 31
0.0000
  0
LINE
  8
45
 10
34.9135
 20
19.4432
 30
0.0000
 11
34.9060
 21
19.5100
 31
0.0000
  0
LINE
  8
45
 10
34.9060
 20
19.5100
 30
0.0000
 11
34.9162
 21
19.5876
 31
0.0000
  0
LINE
  8
45
 10
34.9162
 20
19.5876
 30
0.0000
 11
34.9462
 21
19.6600
 31
0.0000
  0
LINE
  8
45
 10
34.9462
 20
19.6600
 30
0.0000
 11
34.9939
 21
19.7221
 31
0.0000
  0
LINE
  8
45
 10
34.9939
 20
19.7221
 30
0.0000
 11
35.0560
 21
19.7698
 31
0.0000
  0
LINE
  8
45
 10
35.0560
 20
19.7698
 30
0.0000
 11
35.1284
 21
19.7998
 31
0.0000
  0
LINE
  8
45
 10
35.1284
 20
19.7998
 30
0.0000
 11
35.2060
 21
19.8100
 31
0.0000
  0
LINE
  8
45
 10
35.9060
 20
26.2100
 30
0.0000
 11
35.2060
 21
26.2100
 31
0.0000
  0
LINE
  8
45
 10
35.2060
 20
26.2100
 30
0.0000
 11
35.1392
 21
26.2175
 31
0.0000
  0
LINE
  8
45
 10
35.1392
 20
26.2175
 30
0.0000
 11
35.0758
 21
26.2397
 31
0.0000
  0
LINE
  8
45
 10
35.0758
 20
26.2397
 30
0.0000
 11
35.0190
 21
26.2755
 31
0.0000
  0
LINE
  8
45
 10
35.0190
 20
26.2755
 30
0.0000
 11
34.9715
 21
26.3230
 31
0.0000
  0
LINE
  8
45
 10
34.9715
 20
26.3230
 30
0.0000
 11
34.9357
 21
26.3798
 31
0.0000
  0
LINE
  8
45
 10
34.9357
 20
26.3798
 30
0.0000
 11
34.9135
 21
26.4432
 31
0.0000
  0
LINE
  8
45
 10
34.9135
 20
26.4432
 30
0.0000
 11
34.9060
 21
26.5100
 31
0.0000
  0
LINE
  8
45
 10
34.9060
 20
26.5100
 30
0.0000
 11
34.9162
 21
26.5876
 31
0.0000
  0
LINE
  8
45
 10
34.9162
 20
26.5876
 30
0.0000
 11
34.9462
 21
26.6600
 31
0.0000
  0
LINE
  8
45
 10
34.9462
 20
26.6600
 30
0.0000
 11
34.9939
 21
26.7221
 31
0.0000
  0
LINE
  8
45
 10
34.9939
 20
26.7221
 30
0.0000
 11
35.0560
 21
26.7698
 31
0.0000
  0
LINE
  8
45
 10
35.0560
 20
26.7698
 30
0.0000
 11
35.1284
 21
26.7998
 31
0.0000
  0
LINE
  8
45
 10
35.1284
 20
26.7998
 30
0.0000
 11
35.2060
 21
26.8100
 31
0.0000
  0
LINE
  8
45
 10
35.2060
 20
26.8100
 30
0.0000
 11
35.9060
 21
26.8100
 31
0.0000
  0
LINE
  8
45
 10
35.9060
 20
26.8100
 30
0.0000
 11
35.9728
 21
26.8025
 31
0.0000
  0
LINE
  8
45
 10
35.9728
 20
26.8025
 30
0.0000
 11
36.0362
 21
26.7803
 31
0.0000
  0
LINE
  8
45
 10
36.0362
 20
26.7803
 30
0.0000
 11
36.0930
 21
26.7446
 31
0.0000
  0
LINE
  8
45
 10
36.0930
 20
26.7446
 30
0.0000
 11
36.1406
 21
26.6970
 31
0.0000
  0
LINE
  8
45
 10
36.1406
 20
26.6970
 30
0.0000
 11
36.1763
 21
26.6402
 31
0.0000
  0
LINE
  8
45
 10
36.1763
 20
26.6402
 30
0.0000
 11
36.1985
 21
26.5768
 31
0.0000
  0
LINE
  8
45
 10
36.1985
 20
26.5768
 30
0.0000
 11
36.2060
 21
26.5100
 31
0.0000
  0
LINE
  8
45
 10
36.2060
 20
26.5100
 30
0.0000
 11
36.1985
 21
26.4432
 31
0.0000
  0
LINE
  8
45
 10
36.1985
 20
26.4432
 30
0.0000
 11
36.1763
 21
26.3798
 31
0.0000
  0
LINE
  8
45
 10
36.1763
 20
26.3798
 30
0.0000
 11
36.1406
 21
26.3230
 31
0.0000
  0
LINE
  8
45
 10
36.1406
 20
26.3230
 30
0.0000
 11
36.0930
 21
26.2755
 31
0.0000
  0
LINE
  8
45
 10
36.0930
 20
26.2755
 30
0.0000
 11
36.0362
 21
26.2397
 31
0.0000
  0
LINE
  8
45
 10
36.0362
 20
26.2397
 30
0.0000
 11
35.9728
 21
26.2175
 31
0.0000
  0
LINE
  8
45
 10
35.9728
 20
26.2175
 30
0.0000
 11
35.9060
 21
26.2100
 31
0.0000
  0
ENDSEC
  0
EOF
